<svg width="24" height="24" viewBox="0 0 24 24" fill="none" xmlns="http://www.w3.org/2000/svg">
<path d="M12 15C13.6543 15 15 13.6543 15 12C15 10.3457 13.6543 9 12 9C10.3457 9 9 10.3457 9 12C9 13.6543 10.3457 15 12 15Z" stroke="#6C757D" stroke-width="2" stroke-miterlimit="10"/>
<path d="M14.4012 3.82322C14.6035 4.53473 15.0753 5.14618 15.7158 5.52416C16.3562 5.90215 17.109 6.01332 17.8281 5.83545C18.3562 5.6798 18.9293 5.70205 19.4461 5.91328C19.963 6.1245 20.39 6.50248 20.6709 6.98053C20.9518 7.45857 21.0528 8.02555 20.9742 8.58142C20.8955 9.13728 20.6259 9.63757 20.2214 10.0156C19.7045 10.5492 19.4124 11.2718 19.4124 12.0167C19.4124 12.7615 19.7045 13.4842 20.2214 14.0178C20.6259 14.3958 20.8843 14.9072 20.9742 15.4519C21.0528 16.0078 20.9518 16.5636 20.6709 17.0528C20.39 17.5308 19.963 17.9088 19.4461 18.1201C18.9293 18.3313 18.3675 18.3535 17.8281 18.1979C17.109 18.02 16.345 18.1201 15.6934 18.4981C15.0529 18.876 14.5697 19.4764 14.3675 20.199C14.2214 20.7215 13.9068 21.1773 13.4799 21.4997C13.0529 21.8221 12.5248 22 11.9855 22C11.4461 22 10.9293 21.8221 10.4911 21.4997C10.0642 21.1773 9.74952 20.7215 9.60345 20.199C9.40121 19.4764 8.91807 18.876 8.27762 18.4981C7.63718 18.1312 6.87318 18.02 6.14284 18.1979C5.61475 18.3535 5.04166 18.3202 4.53605 18.1089C4.01919 17.8977 3.59228 17.5197 3.32262 17.0417C3.05296 16.5637 2.94059 15.9966 3.03047 15.4519C3.10912 14.9072 3.37876 14.3958 3.77201 14.0178C4.28887 13.4842 4.58103 12.7615 4.58103 12.0167C4.58103 11.2718 4.28887 10.5492 3.77201 10.0156C3.36752 9.63757 3.10912 9.12617 3.03047 8.58142C2.95182 8.03667 3.05296 7.4697 3.32262 6.99165C3.59228 6.51361 4.01919 6.13563 4.53605 5.9244C5.0529 5.71317 5.61475 5.6798 6.14284 5.83545C6.86194 6.01332 7.63718 5.90216 8.27762 5.53529C8.91807 5.1573 9.40121 4.54585 9.60345 3.83435C9.73828 3.31183 10.0529 2.8449 10.4799 2.51139C10.9069 2.17787 11.4461 2 11.9855 2C12.5248 2 13.0641 2.17787 13.4911 2.51139C13.9181 2.8449 14.2664 3.30071 14.4012 3.82322Z" stroke="#6C757D" stroke-width="2" stroke-miterlimit="10" stroke-linecap="round"/>
</svg>
