<svg width="16" height="16" viewBox="0 0 16 16" fill="none" xmlns="http://www.w3.org/2000/svg">
<g clip-path="url(#clip0_714_13728)">
<path fill-rule="evenodd" clip-rule="evenodd" d="M7.75 14C11.2018 14 14 11.2018 14 7.75C14 4.29822 11.2018 1.5 7.75 1.5C4.29822 1.5 1.5 4.29822 1.5 7.75C1.5 11.2018 4.29822 14 7.75 14ZM8.5 4.97266C8.5 4.55844 8.16421 4.22266 7.75 4.22266C7.33579 4.22266 7 4.55844 7 4.97266V7.75043C7 8.16465 7.33579 8.50043 7.75 8.50043H10.5278C10.942 8.50043 11.2778 8.16465 11.2778 7.75043C11.2778 7.33622 10.942 7.00043 10.5278 7.00043H8.5V4.97266Z" fill="#ADB5BD"/>
</g>
<defs>
<clipPath id="clip0_714_13728">
<rect width="16" height="16" fill="white"/>
</clipPath>
</defs>
</svg>
