<svg width="28" height="28" viewBox="0 0 28 28" fill="none" xmlns="http://www.w3.org/2000/svg">
<path d="M14.7343 12.2171C14.5375 13.1978 14.123 14.1257 13.5221 14.9271C12.9107 15.7285 12.1336 16.3717 11.2218 16.8146C10.3307 17.2575 9.33601 17.5 8.3413 17.5C7.34659 17.5 6.35188 17.2786 5.45042 16.8462C5.24319 16.7408 5.0049 16.7091 4.7873 16.7619L2.52847 17.3102C2.44557 17.3313 2.36269 17.3313 2.2798 17.3102C2.19691 17.2891 2.12439 17.2469 2.06222 17.1837C2.00005 17.1204 1.96895 17.0466 1.94822 16.9728C1.91714 16.8884 1.91714 16.804 1.94822 16.7302L2.48704 14.4737C2.53885 14.2523 2.51811 14.0097 2.40413 13.8094C1.94823 12.8709 1.73063 11.8376 1.75135 10.7936C1.78244 9.74973 2.0415 8.72689 2.54921 7.80951C3.0362 6.89213 3.75114 6.11185 4.61114 5.52135C5.47115 4.93085 6.45549 4.56178 7.49165 4.4247C8.51744 4.29817 9.57433 4.41416 10.5483 4.76214C11.5223 5.11011 12.403 5.70059 13.1179 6.4598C13.8225 7.21901 14.3406 8.14692 14.6308 9.14866C14.9105 10.1504 14.9519 11.2049 14.7447 12.2277L14.7343 12.2171Z" stroke="white" stroke-width="2" stroke-linecap="round" stroke-linejoin="round"/>
<path d="M8.91879 15.798C9.15503 16.9748 9.65236 18.0883 10.3735 19.05C11.1071 20.0117 12.0397 20.7835 13.1338 21.315C14.2031 21.8464 15.3968 22.1375 16.5904 22.1375C17.7841 22.1375 18.9777 21.8717 20.0595 21.3529C20.3082 21.2264 20.5941 21.1884 20.8552 21.2517L23.5658 21.9097C23.6653 21.935 23.7648 21.935 23.8642 21.9097C23.9637 21.8844 24.0507 21.8338 24.1253 21.7579C24.1999 21.6819 24.2373 21.5934 24.2621 21.5048C24.2994 21.4035 24.2994 21.3023 24.2621 21.2137L23.6155 18.5059C23.5534 18.2402 23.5783 17.9491 23.715 17.7087C24.2621 16.5826 24.5232 15.3425 24.4984 14.0898C24.4611 12.8371 24.1502 11.6097 23.5409 10.5089C22.9566 9.40801 22.0986 8.47167 21.0666 7.76307C20.0346 7.05447 18.8534 6.61159 17.61 6.44709C16.3791 6.29525 15.1108 6.43445 13.942 6.85201C12.7732 7.26958 11.7164 7.97816 10.8585 8.88921C10.013 9.80027 9.39124 10.9138 9.0431 12.1158C8.70738 13.3179 8.65766 14.5833 8.90634 15.8107L8.91879 15.798Z" fill="white" stroke="white" stroke-width="2" stroke-linecap="round" stroke-linejoin="round"/>
<circle cx="12.6875" cy="14.4375" r="1.3125" fill="#1CB0F6"/>
<circle cx="16.625" cy="14.4375" r="1.3125" fill="#1CB0F6"/>
<circle cx="20.5625" cy="14.4375" r="1.3125" fill="#1CB0F6"/>
</svg>
