<svg width="20" height="20" viewBox="0 0 20 20" fill="none" xmlns="http://www.w3.org/2000/svg">
<path d="M16.7901 5.09599H14.1667L13.5417 3.32905C13.4985 3.20814 13.4194 3.10363 13.3151 3.02979C13.2108 2.95596 13.0865 2.91639 12.9591 2.9165H7.04089C6.78048 2.9165 6.54707 3.08191 6.46026 3.32905L5.83333 5.09599H3.20987C2.35725 5.09599 1.66666 5.79265 1.66666 6.65277V15.5264C1.66666 16.3865 2.35725 17.0832 3.20987 17.0832H16.7901C17.6427 17.0832 18.3333 16.3865 18.3333 15.5264V6.65277C18.3333 5.79265 17.6427 5.09599 16.7901 5.09599ZM10 13.9696C8.29475 13.9696 6.91358 12.5763 6.91358 10.8561C6.91358 9.13583 8.29475 7.74251 10 7.74251C11.7052 7.74251 13.0864 9.13583 13.0864 10.8561C13.0864 12.5763 11.7052 13.9696 10 13.9696ZM8.14815 10.8561C8.14815 11.3515 8.34325 11.8267 8.69054 12.177C9.03783 12.5274 9.50886 12.7242 10 12.7242C10.4911 12.7242 10.9622 12.5274 11.3095 12.177C11.6567 11.8267 11.8518 11.3515 11.8518 10.8561C11.8518 10.3606 11.6567 9.88544 11.3095 9.5351C10.9622 9.18475 10.4911 8.98793 10 8.98793C9.50886 8.98793 9.03783 9.18475 8.69054 9.5351C8.34325 9.88544 8.14815 10.3606 8.14815 10.8561Z" fill="white"/>
</svg>