<svg width="25" height="24" viewBox="0 0 25 24" fill="none" xmlns="http://www.w3.org/2000/svg">
<path d="M12.26 22C11.9483 22 11.6869 21.8933 11.4757 21.68C11.2652 21.4674 11.16 21.2037 11.16 20.8889V19.6111C10.335 19.4259 9.6108 19.1019 8.98747 18.6389C8.36413 18.1759 7.85996 17.5278 7.47496 16.6944C7.34663 16.4352 7.34186 16.1622 7.46066 15.8756C7.5802 15.5881 7.7958 15.3796 8.10747 15.25C8.36413 15.1389 8.62997 15.1437 8.90497 15.2644C9.17997 15.3844 9.3908 15.5833 9.53747 15.8611C9.84914 16.4167 10.2433 16.8382 10.72 17.1256C11.1966 17.4122 11.7833 17.5556 12.48 17.5556C13.2317 17.5556 13.8689 17.3844 14.3918 17.0422C14.9139 16.6993 15.175 16.1667 15.175 15.4444C15.175 14.7963 14.9733 14.2822 14.57 13.9022C14.1667 13.523 13.2317 13.0926 11.765 12.6111C10.1883 12.1111 9.10664 11.5141 8.51997 10.82C7.9333 10.1252 7.63996 9.27778 7.63996 8.27778C7.63996 7.07407 8.02497 6.13889 8.79497 5.47222C9.56497 4.80556 10.3533 4.42593 11.16 4.33333V3.11111C11.16 2.7963 11.2652 2.53222 11.4757 2.31889C11.6869 2.1063 11.9483 2 12.26 2C12.5716 2 12.8331 2.1063 13.0443 2.31889C13.2548 2.53222 13.36 2.7963 13.36 3.11111V4.33333C14.0567 4.44444 14.6617 4.67148 15.175 5.01444C15.6883 5.35667 16.11 5.77778 16.44 6.27778C16.605 6.51852 16.6373 6.78704 16.5368 7.08333C16.4356 7.37963 16.2292 7.59259 15.9175 7.72222C15.6608 7.83333 15.395 7.83778 15.12 7.73556C14.845 7.63407 14.5883 7.4537 14.35 7.19445C14.1117 6.93519 13.8323 6.73593 13.5118 6.59667C13.1906 6.45815 12.7916 6.38889 12.315 6.38889C11.5083 6.38889 10.8941 6.56963 10.4725 6.93111C10.0508 7.29185 9.83997 7.74074 9.83997 8.27778C9.83997 8.88889 10.115 9.37037 10.665 9.72222C11.215 10.0741 12.1683 10.4444 13.525 10.8333C14.79 11.2037 15.7481 11.7915 16.3993 12.5967C17.0498 13.4026 17.375 14.3333 17.375 15.3889C17.375 16.7037 16.99 17.7037 16.22 18.3889C15.45 19.0741 14.4967 19.5 13.36 19.6667V20.8889C13.36 21.2037 13.2548 21.4674 13.0443 21.68C12.8331 21.8933 12.5716 22 12.26 22Z" fill="#6C757D"/>
</svg>
