<svg width="32" height="32" viewBox="0 0 32 32" fill="none" xmlns="http://www.w3.org/2000/svg">
<path d="M16 2.66669C7.89959 2.66669 1.33337 7.80236 1.33337 14.1411C1.33337 18.2655 4.11384 21.8802 8.29007 23.9027C7.98267 25.0345 7.17955 28.008 7.01892 28.6437C6.81953 29.433 7.30971 29.422 7.63373 29.211C7.88574 29.0439 11.6521 26.5089 13.2777 25.4155C14.1612 25.5443 15.0695 25.6128 16 25.6128C24.1005 25.6128 30.6667 20.4771 30.6667 14.1411C30.6667 7.8051 24.1005 2.66669 16 2.66669Z" fill="#371C1D"/>
<path d="M5.81152 12.0097H7.33608C7.33608 12.0097 7.34447 16.141 7.33608 17.1041C7.33608 17.8078 8.92219 17.8161 8.91939 17.1152L8.92498 12.0649C8.92498 12.0649 9.4369 12.0677 10.4412 12.0677C11.3895 12.0677 11.3895 10.5968 10.4412 10.5968C9.37256 10.5968 5.80313 10.5664 5.80313 10.5664C4.90798 10.5664 4.91077 12.0097 5.80313 12.0097" fill="#F9E000"/>
<path d="M13.1097 12.2773L13.9573 14.899H12.1893L13.1097 12.2773ZM12.1586 11.0493C11.7837 11.8634 10.427 15.7132 9.97943 16.7342C9.65494 17.4711 11.0564 18.0727 11.3809 17.3359L11.6858 16.2844H14.4748C14.4748 16.2844 14.3797 16.3286 14.7489 17.2917C15.0482 18.0727 16.4973 17.5318 16.198 16.7508C15.77 15.6359 14.2874 11.6178 14.016 11.0493C13.8929 10.7871 13.4454 10.5967 13.0118 10.5967C12.6537 10.5967 12.304 10.7264 12.1558 11.0493" fill="#F9E000"/>
<path d="M16.7351 11.2894C16.7351 12.5975 16.7435 16.8143 16.7435 16.8143C16.7435 16.8143 16.6204 17.6532 17.3505 17.6532C18.0807 17.6532 19.6947 17.6449 20.4109 17.6449C21.127 17.6449 21.1242 16.1409 20.4081 16.1409C19.6919 16.1409 18.3828 16.1326 18.3828 16.1326C18.3828 16.1326 18.3884 12.2332 18.3856 11.2838C18.3856 10.8257 17.9716 10.5967 17.5603 10.5967C17.1491 10.5967 16.7323 10.8285 16.7351 11.2866" fill="#F9E000"/>
<path d="M21.3174 11.0796C21.3342 11.6536 21.2979 16.8419 21.2979 17.2255C21.2979 17.8326 22.8644 17.8298 22.8644 17.2255C22.8644 16.5217 22.8644 15.1833 22.8644 15.1833L23.3231 14.819L25.3344 17.5235C25.7401 18.0534 27.0185 17.0958 26.6128 16.5687L24.4784 13.7952C24.4784 13.7952 25.9275 12.2497 26.4981 11.6895C26.831 11.3639 25.7988 10.3373 25.4659 10.6657C25.1442 10.9803 22.8728 13.2239 22.8728 13.2239C22.8728 13.2239 22.8923 11.8165 22.8728 11.0382C22.8644 10.7429 22.4979 10.5994 22.1203 10.5994C21.7175 10.5994 21.3062 10.7622 21.3146 11.0796" fill="#F9E000"/>
</svg>