<svg width="28" height="28" viewBox="0 0 28 28" fill="none" xmlns="http://www.w3.org/2000/svg">
<mask id="path-1-inside-1_5922_38412" fill="white">
<path fill-rule="evenodd" clip-rule="evenodd" d="M8.53125 4.15625H19.4688C21.885 4.15625 23.8438 6.115 23.8438 8.53125V19.4688C23.8438 21.885 21.885 23.8438 19.4688 23.8438H8.53125C6.80815 23.8438 5.3177 22.8476 4.60438 21.3998L9.41628 15.2268L12.2203 17.0961C12.6532 17.3847 13.2351 17.2931 13.5585 16.8855L18.1303 11.1214C18.4735 10.6887 18.401 10.0597 17.9683 9.71653C17.5356 9.37332 16.9066 9.44587 16.5634 9.87857L12.5637 14.9213L9.75312 13.0476C9.31749 12.7572 8.73161 12.852 8.40973 13.2649L4.15625 18.7215V8.53125C4.15625 6.115 6.115 4.15625 8.53125 4.15625Z"/>
</mask>
<path fill-rule="evenodd" clip-rule="evenodd" d="M8.53125 4.15625H19.4688C21.885 4.15625 23.8438 6.115 23.8438 8.53125V19.4688C23.8438 21.885 21.885 23.8438 19.4688 23.8438H8.53125C6.80815 23.8438 5.3177 22.8476 4.60438 21.3998L9.41628 15.2268L12.2203 17.0961C12.6532 17.3847 13.2351 17.2931 13.5585 16.8855L18.1303 11.1214C18.4735 10.6887 18.401 10.0597 17.9683 9.71653C17.5356 9.37332 16.9066 9.44587 16.5634 9.87857L12.5637 14.9213L9.75312 13.0476C9.31749 12.7572 8.73161 12.852 8.40973 13.2649L4.15625 18.7215V8.53125C4.15625 6.115 6.115 4.15625 8.53125 4.15625Z" fill="white"/>
<path d="M4.60438 21.3998L3.027 20.1702C2.55562 20.7749 2.47145 21.5959 2.81031 22.2837L4.60438 21.3998ZM9.41628 15.2268L10.5257 13.5627C9.65442 12.9818 8.48265 13.1713 7.8389 13.9972L9.41628 15.2268ZM12.2203 17.0961L11.1109 18.7602L11.1109 18.7602L12.2203 17.0961ZM13.5585 16.8855L15.1254 18.1283L15.1254 18.1283L13.5585 16.8855ZM18.1303 11.1214L19.6973 12.3643L19.6973 12.3643L18.1303 11.1214ZM17.9683 9.71653L16.7254 11.2835L16.7254 11.2835L17.9683 9.71653ZM16.5634 9.87857L14.9965 8.63572L16.5634 9.87857ZM12.5637 14.9213L11.4543 16.5854C12.3201 17.1626 13.4839 16.9795 14.1306 16.1642L12.5637 14.9213ZM9.75312 13.0476L10.8625 11.3835H10.8625L9.75312 13.0476ZM8.40973 13.2649L9.98711 14.4945L9.98711 14.4945L8.40973 13.2649ZM4.15625 18.7215H2.15625C2.15625 19.5756 2.69852 20.3353 3.50616 20.6129C4.3138 20.8905 5.2086 20.6247 5.73363 19.9511L4.15625 18.7215ZM19.4688 2.15625H8.53125V6.15625H19.4688V2.15625ZM25.8438 8.53125C25.8438 5.01043 22.9896 2.15625 19.4688 2.15625V6.15625C20.7804 6.15625 21.8438 7.21957 21.8438 8.53125H25.8438ZM25.8438 19.4688V8.53125H21.8438V19.4688H25.8438ZM19.4688 25.8438C22.9896 25.8438 25.8438 22.9896 25.8438 19.4688H21.8438C21.8438 20.7804 20.7804 21.8438 19.4688 21.8438V25.8438ZM8.53125 25.8438H19.4688V21.8438H8.53125V25.8438ZM2.81031 22.2837C3.84735 24.3886 6.0175 25.8438 8.53125 25.8438V21.8438C7.5988 21.8438 6.78806 21.3066 6.39846 20.5159L2.81031 22.2837ZM7.8389 13.9972L3.027 20.1702L6.18177 22.6294L10.9937 16.4563L7.8389 13.9972ZM13.3297 15.432L10.5257 13.5627L8.30689 16.8909L11.1109 18.7602L13.3297 15.432ZM11.9915 15.6426C12.3149 15.235 12.8968 15.1434 13.3297 15.432L11.1109 18.7602C12.4097 19.6261 14.1554 19.3513 15.1254 18.1283L11.9915 15.6426ZM16.5634 9.87857L11.9915 15.6426L15.1254 18.1283L19.6973 12.3643L16.5634 9.87857ZM16.7254 11.2835C16.2927 10.9403 16.2202 10.3113 16.5634 9.87857L19.6973 12.3643C20.7269 11.0662 20.5093 9.1792 19.2112 8.14958L16.7254 11.2835ZM18.1303 11.1214C17.7871 11.5541 17.1581 11.6267 16.7254 11.2835L19.2112 8.14958C17.9131 7.11997 16.0261 7.33762 14.9965 8.63572L18.1303 11.1214ZM14.1306 16.1642L18.1303 11.1214L14.9965 8.63572L10.9967 13.6785L14.1306 16.1642ZM8.64372 14.7117L11.4543 16.5854L13.6731 13.2572L10.8625 11.3835L8.64372 14.7117ZM9.98711 14.4945C9.66524 14.9074 9.07935 15.0022 8.64373 14.7117L10.8625 11.3835C9.55563 10.5123 7.79798 10.7965 6.83235 12.0353L9.98711 14.4945ZM5.73363 19.9511L9.98711 14.4945L6.83235 12.0353L2.57887 17.492L5.73363 19.9511ZM2.15625 8.53125V18.7215H6.15625V8.53125H2.15625ZM8.53125 2.15625C5.01043 2.15625 2.15625 5.01043 2.15625 8.53125H6.15625C6.15625 7.21957 7.21957 6.15625 8.53125 6.15625V2.15625Z" fill="white" mask="url(#path-1-inside-1_5922_38412)"/>
<circle cx="17.0625" cy="10.9375" r="2.1875" fill="#58CC02"/>
</svg>
