<svg width="201" height="120" viewBox="0 0 201 120" fill="none" xmlns="http://www.w3.org/2000/svg">
<g clip-path="url(#clip0_852_29562)">
<g clip-path="url(#clip1_852_29562)">
<path d="M144.853 15.3105C144.657 15.5901 144.681 16.3142 145.304 16.6847C145.317 16.6948 145.334 16.6982 145.351 16.7083C145.381 16.6477 145.411 16.5871 145.442 16.5264C145.475 16.4523 145.563 16.422 145.637 16.4557C145.711 16.4894 145.741 16.577 145.708 16.6511C145.681 16.7083 145.654 16.7588 145.627 16.8161C146.266 16.971 146.943 16.5567 147.178 16.1054C146.351 16.1122 145.529 15.836 144.856 15.3139L144.853 15.3105Z" fill="#EAAF44"/>
<path d="M143.765 14.0003C144.041 14.5325 144.415 14.9737 144.853 15.3105C145.526 15.8326 146.347 16.1088 147.175 16.102C147.7 16.0987 148.229 15.9808 148.727 15.7383C150.955 14.6571 152.143 12.0569 150.285 9.98554C149.043 8.60125 147.094 8.33854 145.324 9.25466C143.755 10.0664 142.796 12.1209 143.765 13.997V14.0003Z" fill="#DE959E"/>
<path d="M147.189 13.246C147.131 13.3942 146.909 13.4481 146.694 13.3639C146.478 13.2797 146.35 13.0911 146.411 12.9429C146.468 12.7947 146.69 12.7408 146.906 12.825C147.121 12.9092 147.249 13.0978 147.189 13.246Z" fill="#FDF9F5"/>
<path d="M145.93 11.2755C145.994 11.0734 146.27 10.9824 146.549 11.0734C146.828 11.161 147 11.3967 146.936 11.5954C146.872 11.7942 146.596 11.8885 146.317 11.7975C146.037 11.71 145.866 11.4742 145.93 11.2755Z" fill="#FDF9F5"/>
<path d="M146.054 13.9262C146.132 13.7308 146.435 13.6702 146.737 13.7847C147.04 13.9026 147.222 14.1552 147.145 14.3505C147.067 14.5459 146.764 14.6065 146.461 14.492C146.159 14.3741 145.977 14.1215 146.054 13.9262Z" fill="#FDF9F5"/>
<path d="M144.644 13.2119C144.701 13.0637 144.923 13.0098 145.139 13.094C145.354 13.1782 145.482 13.3669 145.421 13.5151C145.364 13.6633 145.142 13.7171 144.927 13.6329C144.711 13.5487 144.583 13.3601 144.644 13.2119Z" fill="#FDF9F5"/>
<path d="M145.637 16.4555C145.563 16.4219 145.475 16.4555 145.442 16.5263C145.411 16.5903 145.381 16.6475 145.351 16.7081C144.422 18.5808 143.17 19.7024 141.218 21.0732C141.15 21.1204 141.137 21.2113 141.181 21.2787C141.218 21.3292 141.282 21.3528 141.339 21.3359C141.356 21.3325 141.372 21.3258 141.386 21.3157C143.389 19.9112 144.671 18.7627 145.627 16.8193C145.654 16.7654 145.681 16.7115 145.708 16.6543C145.741 16.5802 145.708 16.4926 145.637 16.4589V16.4555Z" fill="#EAAF44"/>
<path d="M155.024 45.1349L154.964 45.0811C155.058 44.98 155.401 44.7476 155.448 44.7139C155.596 44.6163 155.748 44.5287 155.899 44.4411C156.098 44.3232 156.303 44.2053 156.495 44.0673L156.653 43.9494C157.01 43.6867 157.38 43.4172 157.751 43.168L157.794 43.2353C157.424 43.4846 157.057 43.754 156.7 44.0167L156.542 44.1312C156.347 44.2727 156.138 44.394 155.94 44.5118C155.792 44.5994 155.64 44.687 155.492 44.7813C155.415 44.8352 155.102 45.0507 155.021 45.1349H155.024Z" fill="#58CC02"/>
<path d="M157.606 43.2691C157.73 43.0435 158.013 42.5652 158.333 42.6427C158.488 42.6797 158.501 42.8347 158.434 42.9593C158.353 43.1007 158.181 43.1647 158.033 43.2119C157.878 43.2624 157.717 43.3028 157.562 43.3466L157.606 43.2691Z" fill="#58CC02"/>
<path d="M155.038 45.0069C155.038 44.697 155.054 44.2356 155.118 43.7943C155.139 43.6529 155.149 43.5047 155.155 43.3666C155.166 43.2016 155.176 43.0264 155.206 42.858C155.219 42.7873 155.226 42.7031 155.236 42.6121C155.253 42.4235 155.273 42.208 155.341 42.0732L155.411 42.1103C155.351 42.2315 155.334 42.437 155.317 42.6189C155.307 42.7132 155.3 42.8008 155.287 42.8715C155.26 43.0399 155.25 43.2083 155.24 43.3733C155.229 43.5148 155.219 43.663 155.199 43.8078C155.135 44.2423 155.122 44.7037 155.118 45.0069H155.038Z" fill="#58CC02"/>
<path d="M155.408 41.1977C155.583 41.0798 155.748 41.1909 155.755 41.3897C155.755 41.5614 155.637 41.7063 155.553 41.8444C155.465 41.9959 155.415 42.1744 155.31 42.3159C155.31 42.3159 155.065 41.4334 155.408 41.1977Z" fill="#58CC02"/>
<path d="M155.041 44.9903C155.115 44.8656 155.193 44.741 155.27 44.6198C155.374 44.4514 155.482 44.2796 155.58 44.1078C155.637 44.0101 155.687 43.9057 155.741 43.8047C155.808 43.6733 155.879 43.5352 155.957 43.4039C155.983 43.3635 156.041 43.2422 156.095 43.121C156.196 42.9054 156.226 42.838 156.249 42.8145C156.259 42.8044 156.303 42.8751 156.303 42.8751C156.286 42.8919 156.219 43.0435 156.165 43.158C156.105 43.286 156.051 43.4039 156.024 43.4477C155.946 43.5757 155.876 43.7137 155.808 43.8417C155.758 43.9428 155.704 44.0472 155.647 44.1482C155.546 44.3234 155.438 44.4985 155.334 44.6636C155.256 44.7848 155.182 44.9094 155.105 45.034L155.034 44.9936L155.041 44.9903Z" fill="#58CC02"/>
<path d="M156.175 43.0062C156.172 42.7334 156.259 42.2653 156.539 42.1305C156.673 42.0665 156.784 42.1406 156.784 42.2888C156.784 42.4404 156.663 42.5515 156.559 42.6459C156.434 42.7637 156.313 42.8884 156.195 43.0062H156.179H156.175Z" fill="#58CC02"/>
<path d="M155.061 45.034C155.021 44.9397 154.967 44.8589 154.913 44.7679C154.89 44.7343 154.863 44.6938 154.842 44.6568C154.678 44.384 154.506 44.0741 154.317 43.7171C154.24 43.5689 154.176 43.4106 154.115 43.2557C154.031 43.0502 153.947 42.8414 153.829 42.6595L153.897 42.6157C154.018 42.8043 154.105 43.0199 154.189 43.2253C154.25 43.3769 154.314 43.5352 154.388 43.6767C154.58 44.0337 154.748 44.3436 154.913 44.613C154.937 44.6501 154.957 44.6871 154.98 44.7242C155.038 44.8117 155.092 44.8993 155.135 45.0003L155.061 45.0307V45.034Z" fill="#58CC02"/>
<path d="M153.95 42.8412C153.833 42.6391 153.425 42.2012 153.51 41.9554C153.563 41.7971 153.748 41.8375 153.846 41.9352C153.957 42.0497 153.944 42.2248 153.961 42.373C153.977 42.5448 154.008 42.7098 153.991 42.8782L153.95 42.8412Z" fill="#58CC02"/>
<path d="M152.456 44.5391L152.463 44.5054L152.453 44.4616C152.453 44.4616 152.466 44.4582 152.54 44.4818C152.584 44.4953 152.641 44.5189 152.671 44.5256C152.789 44.5559 152.91 44.5694 153.028 44.5828L153.085 44.5896C153.23 44.6098 153.372 44.6367 153.51 44.6603C153.637 44.6839 153.772 44.7075 153.903 44.7243C154.297 44.7782 154.647 44.8557 155.041 44.9769L155.017 45.0544C154.63 44.9365 154.28 44.859 153.893 44.8051C153.759 44.7883 153.624 44.7614 153.496 44.7411C153.358 44.7142 153.213 44.6906 153.075 44.6704L153.018 44.6637C152.897 44.6468 152.772 44.63 152.655 44.5997C152.621 44.5929 152.564 44.5727 152.517 44.5559C152.486 44.5458 152.463 44.5357 152.456 44.5357V44.5391Z" fill="#58CC02"/>
<path d="M152.628 44.5522C152.486 44.4209 152.21 44.1918 152.005 44.2592C151.884 44.2996 151.84 44.431 151.924 44.5287C152.008 44.6263 152.16 44.6196 152.274 44.6162C152.412 44.6162 152.547 44.5994 152.682 44.5825L152.631 44.5522H152.628Z" fill="#58CC02"/>
<path d="M152.517 45.8556L152.523 45.7748C152.641 45.7849 152.796 45.7411 152.921 45.7007L153.045 45.667C153.287 45.5963 153.537 45.5289 153.779 45.4548C154.062 45.3706 154.321 45.2629 154.58 45.1483C154.681 45.1046 154.792 45.0742 154.893 45.0473L154.913 45.0406C154.937 45.0338 154.967 45.0305 154.991 45.0203C155.044 45.0102 155.098 44.9968 155.139 44.9766L155.176 45.0473C155.125 45.0742 155.065 45.0877 155.007 45.1012C154.984 45.1079 154.957 45.1113 154.933 45.118L154.91 45.1248C154.805 45.1551 154.708 45.182 154.61 45.2258C154.348 45.3403 154.085 45.4481 153.799 45.5357C153.557 45.6098 153.308 45.6805 153.065 45.7479L152.944 45.7849C152.81 45.822 152.645 45.8725 152.513 45.859L152.517 45.8556Z" fill="#58CC02"/>
<path d="M152.998 45.7344C152.907 45.8153 152.81 45.886 152.705 45.9466C152.611 46.0005 152.497 46.0679 152.382 46.0645C152.288 46.0645 152.204 45.9971 152.251 45.8961C152.359 45.6738 152.759 45.7109 152.964 45.7075L152.998 45.7344Z" fill="#58CC02"/>
<path d="M153.56 46.6407L153.496 46.5901C153.621 46.4419 153.762 46.2904 153.897 46.1489C154.011 46.0277 154.126 45.9064 154.233 45.7784C154.28 45.7279 154.331 45.6639 154.381 45.5999C154.577 45.3608 154.819 45.0644 155.031 44.9937L155.058 45.0711C154.866 45.1385 154.634 45.4214 154.442 45.6538C154.388 45.7212 154.338 45.7818 154.29 45.8323C154.179 45.9603 154.065 46.0849 153.95 46.2028C153.816 46.3476 153.678 46.4925 153.553 46.6407H153.56Z" fill="#58CC02"/>
<path d="M153.624 46.4755C153.446 46.553 152.927 46.8629 153.052 47.1222C153.197 47.4287 153.503 46.9269 153.56 46.8056C153.607 46.7046 153.634 46.6035 153.634 46.4856L153.624 46.4722V46.4755Z" fill="#58CC02"/>
<path d="M154.041 48.1259C154.102 47.7419 154.213 47.3714 154.324 47.0144C154.385 46.809 154.452 46.5968 154.506 46.3812C154.58 46.0882 154.704 45.8086 154.822 45.5392L154.846 45.4819C154.866 45.4415 154.893 45.3876 154.92 45.3304C154.974 45.2192 155.044 45.0811 155.048 45.0205H155.128C155.125 45.1013 155.058 45.2361 154.991 45.3641C154.964 45.4179 154.937 45.4685 154.92 45.5123L154.896 45.5695C154.778 45.8356 154.657 46.1118 154.583 46.4014C154.529 46.617 154.462 46.8325 154.398 47.038C154.29 47.3917 154.176 47.7588 154.119 48.136L154.038 48.1259H154.041Z" fill="#58CC02"/>
<path d="M154.102 47.8765C153.95 48.028 153.594 48.5063 153.772 48.7252C154.031 49.0486 154.176 48.4861 154.203 48.3143C154.226 48.1526 154.149 48.0011 154.126 47.8428L154.102 47.8765Z" fill="#58CC02"/>
<path d="M155.499 47.6813C155.482 47.3074 155.415 46.9336 155.351 46.5698C155.317 46.3879 155.287 46.2027 155.26 46.0242C155.213 45.6941 155.132 45.3775 155.058 45.0744L155.135 45.0508L155.095 45.0609L155.135 45.0542C155.213 45.3606 155.29 45.6772 155.337 46.0107C155.364 46.1926 155.398 46.3778 155.428 46.553C155.492 46.9201 155.563 47.2973 155.576 47.6745H155.499V47.6813Z" fill="#58CC02"/>
<path d="M155.502 47.4487C155.405 47.6137 155.324 47.964 155.458 48.1391C155.543 48.2503 155.66 48.22 155.728 48.1054C155.795 47.9977 155.758 47.873 155.728 47.7619C155.691 47.6373 155.647 47.5127 155.563 47.4116L155.506 47.4487H155.502Z" fill="#58CC02"/>
<path d="M156.428 47.769C156.327 47.6949 156.256 47.5097 156.192 47.348C156.165 47.284 156.142 47.22 156.121 47.1762C156.071 47.0786 156.02 46.9809 155.973 46.8798C155.866 46.6609 155.755 46.4352 155.637 46.2163C155.58 46.1119 155.522 46.0075 155.455 45.8997C155.29 45.6168 155.118 45.3204 155.041 45.0173L155.118 44.9971C155.196 45.2935 155.364 45.5831 155.526 45.8627C155.59 45.9671 155.65 46.0782 155.707 46.1826C155.825 46.4016 155.936 46.6272 156.044 46.8462C156.095 46.9438 156.142 47.0415 156.192 47.1392C156.216 47.1863 156.239 47.2503 156.27 47.3177C156.327 47.4625 156.397 47.641 156.482 47.705L156.431 47.769H156.428Z" fill="#58CC02"/>
<path d="M156.731 48.3315C156.448 48.5807 156.3 48.0485 156.266 47.8667C156.243 47.7286 156.266 47.6073 156.293 47.4355C156.428 47.6208 157.003 48.0923 156.731 48.3315Z" fill="#58CC02"/>
<path d="M154.93 45.0574L154.937 44.9766C155.94 45.0608 156.758 45.0776 157.444 45.0305L157.451 45.1113C156.761 45.1584 155.936 45.1416 154.93 45.0574Z" fill="#58CC02"/>
<path d="M157.35 45.0474C157.485 44.9497 158.269 44.6836 158.05 45.0777C157.922 45.3168 157.427 45.172 157.236 45.1013L157.35 45.0474Z" fill="#58CC02"/>
<path d="M156.502 46.1791C156.475 46.1589 156.448 46.1387 156.421 46.1185L156.239 45.977C155.849 45.6739 155.448 45.3573 155.044 45.0912L155.088 45.0205C155.495 45.2933 155.896 45.6066 156.29 45.9131L156.468 46.0511C156.63 46.1758 156.811 46.2903 156.993 46.3981C157.242 46.553 157.501 46.7113 157.71 46.9134L157.656 46.9706C157.451 46.7753 157.199 46.6204 156.953 46.4688C156.801 46.3779 156.647 46.2802 156.502 46.1758V46.1791Z" fill="#58CC02"/>
<path d="M157.542 46.7886C157.821 46.8391 158.276 46.8761 158.319 47.2466C158.363 47.5902 157.845 47.2803 157.75 47.1692C157.66 47.058 157.582 46.9334 157.505 46.8155L157.542 46.7886Z" fill="#58CC02"/>
<path d="M43.6152 60.2912L43.5546 60.2373C43.6488 60.1363 43.9921 59.9039 44.0392 59.8702C44.1873 59.7725 44.3388 59.6849 44.4903 59.5974C44.6889 59.4795 44.8942 59.3616 45.086 59.2235L45.2442 59.1056C45.601 58.8429 45.9712 58.5735 46.3415 58.3242L46.3852 58.3916C46.015 58.6408 45.6481 58.9103 45.2913 59.173L45.1331 59.2875C44.9379 59.429 44.7292 59.5502 44.5307 59.6681C44.3826 59.7557 44.2311 59.8432 44.083 59.9375C44.0056 59.9914 43.6926 60.207 43.6118 60.2912H43.6152Z" fill="#58CC02"/>
<path d="M46.1967 58.4254C46.3212 58.1997 46.604 57.7215 46.9237 57.7989C47.0786 57.836 47.092 57.9909 47.0247 58.1155C46.9439 58.257 46.7723 58.321 46.6242 58.3681C46.4693 58.4187 46.3078 58.4591 46.153 58.5029L46.1967 58.4254Z" fill="#58CC02"/>
<path d="M43.6285 60.1631C43.6285 59.8532 43.6454 59.3918 43.7093 58.9506C43.7295 58.8091 43.7396 58.6609 43.7463 58.5228C43.7564 58.3578 43.7665 58.1827 43.7968 58.0143C43.8103 57.9435 43.817 57.8593 43.8271 57.7684C43.844 57.5798 43.8642 57.3642 43.9315 57.2295L44.0021 57.2665C43.9416 57.3878 43.9247 57.5933 43.9079 57.7751C43.8978 57.8694 43.8911 57.957 43.8776 58.0277C43.8507 58.1961 43.8406 58.3645 43.8305 58.5296C43.8204 58.671 43.8103 58.8192 43.7901 58.9641C43.7261 59.3986 43.7127 59.86 43.7093 60.1631H43.6285Z" fill="#58CC02"/>
<path d="M43.9988 56.3539C44.1738 56.236 44.3388 56.3472 44.3455 56.5459C44.3455 56.7177 44.2277 56.8625 44.1435 57.0006C44.056 57.1522 44.0055 57.3307 43.9012 57.4721C43.9012 57.4721 43.6555 56.5897 43.9988 56.3539Z" fill="#58CC02"/>
<path d="M43.632 60.1465C43.706 60.0219 43.7834 59.8973 43.8609 59.776C43.9652 59.6076 44.0729 59.4358 44.1705 59.2641C44.2277 59.1664 44.2782 59.062 44.3321 58.9609C44.3994 58.8296 44.4701 58.6915 44.5475 58.5601C44.5744 58.5197 44.6316 58.3985 44.6855 58.2772C44.7865 58.0616 44.8167 57.9943 44.8403 57.9707C44.8504 57.9606 44.8942 58.0313 44.8942 58.0313C44.8773 58.0482 44.81 58.1997 44.7562 58.3143C44.6956 58.4422 44.6417 58.5601 44.6148 58.6039C44.5374 58.7319 44.4667 58.87 44.3994 58.998C44.3489 59.099 44.295 59.2034 44.2378 59.3045C44.1368 59.4796 44.0291 59.6548 43.9248 59.8198C43.8474 59.9411 43.7733 60.0657 43.6959 60.1903L43.6252 60.1499L43.632 60.1465Z" fill="#58CC02"/>
<path d="M44.7662 58.1625C44.7628 57.8897 44.8504 57.4215 45.1297 57.2868C45.2644 57.2228 45.3754 57.2969 45.3754 57.4451C45.3754 57.5966 45.2543 57.7078 45.1499 57.8021C45.0254 57.92 44.9042 58.0446 44.7864 58.1625H44.7696H44.7662Z" fill="#58CC02"/>
<path d="M43.6522 60.1903C43.6118 60.096 43.5579 60.0151 43.5041 59.9242C43.4805 59.8905 43.4536 59.8501 43.4334 59.813C43.2685 59.5402 43.0968 59.2304 42.9083 58.8733C42.8309 58.7251 42.767 58.5668 42.7064 58.4119C42.6222 58.2065 42.5381 57.9976 42.4203 57.8158L42.4876 57.772C42.6088 57.9606 42.6963 58.1761 42.7804 58.3816C42.841 58.5332 42.905 58.6915 42.979 58.8329C43.1709 59.1899 43.3392 59.4998 43.5041 59.7693C43.5276 59.8063 43.5478 59.8434 43.5714 59.8804C43.6286 59.968 43.6825 60.0555 43.7262 60.1566L43.6522 60.1869V60.1903Z" fill="#58CC02"/>
<path d="M42.5414 57.9974C42.4236 57.7953 42.0163 57.3575 42.1005 57.1116C42.1543 56.9533 42.3394 56.9937 42.437 57.0914C42.5481 57.2059 42.5347 57.3811 42.5515 57.5293C42.5683 57.701 42.5986 57.8661 42.5818 58.0345L42.5414 57.9974Z" fill="#58CC02"/>
<path d="M41.0469 59.6953L41.0537 59.6616L41.0436 59.6178C41.0436 59.6178 41.057 59.6145 41.1311 59.6381C41.1748 59.6515 41.2321 59.6751 41.2624 59.6818C41.3802 59.7121 41.5013 59.7256 41.6191 59.7391L41.6764 59.7458C41.8211 59.766 41.9625 59.793 42.1005 59.8166C42.2284 59.8401 42.363 59.8637 42.4943 59.8806C42.8881 59.9344 43.2381 60.0119 43.6319 60.1332L43.6083 60.2106C43.2213 60.0927 42.8712 60.0153 42.4842 59.9614C42.3495 59.9445 42.2149 59.9176 42.087 59.8974C41.949 59.8704 41.8043 59.8469 41.6663 59.8267L41.609 59.8199C41.4879 59.8031 41.3633 59.7862 41.2455 59.7559C41.2119 59.7492 41.1546 59.729 41.1075 59.7121C41.0772 59.702 41.0537 59.6919 41.0469 59.6919V59.6953Z" fill="#58CC02"/>
<path d="M41.2187 59.7085C41.0773 59.5771 40.8013 59.3481 40.596 59.4155C40.4748 59.4559 40.4311 59.5872 40.5152 59.6849C40.5993 59.7826 40.7508 59.7758 40.8652 59.7725C41.0032 59.7725 41.1379 59.7556 41.2725 59.7388L41.222 59.7085H41.2187Z" fill="#58CC02"/>
<path d="M41.1076 61.0119L41.1143 60.9311C41.2321 60.9412 41.387 60.8974 41.5115 60.857L41.6361 60.8233C41.8784 60.7525 42.1275 60.6852 42.3698 60.6111C42.6525 60.5269 42.9117 60.4191 43.1709 60.3046C43.2718 60.2608 43.3829 60.2305 43.4839 60.2035L43.5041 60.1968C43.5276 60.1901 43.5579 60.1867 43.5815 60.1766C43.6354 60.1665 43.6892 60.153 43.7296 60.1328L43.7666 60.2035C43.7161 60.2305 43.6556 60.244 43.5983 60.2574C43.5748 60.2642 43.5478 60.2675 43.5243 60.2743L43.5007 60.281C43.3964 60.3113 43.2988 60.3383 43.2012 60.382C42.9386 60.4966 42.6761 60.6043 42.39 60.6919C42.1477 60.766 41.8986 60.8367 41.6562 60.9041L41.5351 60.9412C41.4004 60.9782 41.2355 61.0287 41.1042 61.0153L41.1076 61.0119Z" fill="#58CC02"/>
<path d="M41.589 60.8907C41.4981 60.9715 41.4005 61.0422 41.2961 61.1029C41.2019 61.1568 41.0874 61.2241 40.973 61.2208C40.8788 61.2208 40.7946 61.1534 40.8417 61.0523C40.9494 60.8301 41.35 60.8671 41.5553 60.8637L41.589 60.8907Z" fill="#58CC02"/>
<path d="M42.151 61.7969L42.087 61.7464C42.2116 61.5982 42.3529 61.4466 42.4876 61.3052C42.602 61.1839 42.7164 61.0627 42.8242 60.9347C42.8713 60.8841 42.9218 60.8202 42.9723 60.7562C43.1675 60.517 43.4098 60.2206 43.6219 60.1499L43.6488 60.2274C43.4569 60.2947 43.2247 60.5777 43.0328 60.8101C42.979 60.8774 42.9285 60.938 42.8814 60.9886C42.7703 61.1166 42.6559 61.2412 42.5414 61.3591C42.4068 61.5039 42.2688 61.6487 42.1443 61.7969H42.151Z" fill="#58CC02"/>
<path d="M42.215 61.6318C42.0366 61.7093 41.5182 62.0191 41.6428 62.2785C41.7875 62.585 42.0938 62.0831 42.151 61.9619C42.1981 61.8608 42.225 61.7598 42.225 61.6419L42.215 61.6284V61.6318Z" fill="#58CC02"/>
<path d="M42.6323 63.2822C42.6929 62.8982 42.8039 62.5277 42.915 62.1707C42.9756 61.9652 43.0429 61.753 43.0968 61.5375C43.1708 61.2444 43.2953 60.9649 43.4131 60.6954L43.4367 60.6382C43.4569 60.5978 43.4838 60.5439 43.5108 60.4866C43.5646 60.3755 43.6353 60.2374 43.6387 60.1768H43.7194C43.7161 60.2576 43.6488 60.3923 43.5814 60.5203C43.5545 60.5742 43.5276 60.6247 43.5108 60.6685L43.4872 60.7258C43.3694 60.9918 43.2482 61.268 43.1742 61.5577C43.1203 61.7732 43.053 61.9888 42.9891 62.1943C42.8813 62.5479 42.7669 62.915 42.7097 63.2923L42.6289 63.2822H42.6323Z" fill="#58CC02"/>
<path d="M42.6929 63.0327C42.5414 63.1843 42.1846 63.6625 42.363 63.8815C42.6222 64.2048 42.7669 63.6423 42.7938 63.4706C42.8174 63.3089 42.74 63.1573 42.7164 62.999L42.6929 63.0327Z" fill="#58CC02"/>
<path d="M44.0897 62.8375C44.0729 62.4637 44.0056 62.0898 43.9416 61.726C43.908 61.5442 43.8777 61.3589 43.8508 61.1804C43.8036 60.8503 43.7229 60.5337 43.6488 60.2306L43.7262 60.207L43.6858 60.2171L43.7262 60.2104C43.8036 60.5169 43.881 60.8335 43.9282 61.1669C43.9551 61.3488 43.9888 61.5341 44.019 61.7092C44.083 62.0763 44.1537 62.4536 44.1671 62.8308H44.0897V62.8375Z" fill="#58CC02"/>
<path d="M44.0931 62.6049C43.9955 62.77 43.9147 63.1202 44.0493 63.2954C44.1335 63.4065 44.2513 63.3762 44.3186 63.2617C44.3859 63.1539 44.3489 63.0293 44.3186 62.9182C44.2816 62.7935 44.2378 62.6689 44.1537 62.5679L44.0965 62.6049H44.0931Z" fill="#58CC02"/>
<path d="M45.0187 62.9253C44.9177 62.8512 44.847 62.6659 44.7831 62.5043C44.7562 62.4403 44.7326 62.3763 44.7124 62.3325C44.6619 62.2348 44.6114 62.1371 44.5643 62.0361C44.4566 61.8172 44.3455 61.5915 44.2277 61.3726C44.1705 61.2682 44.1133 61.1637 44.046 61.056C43.881 60.773 43.7094 60.4767 43.632 60.1735L43.7094 60.1533C43.7868 60.4497 43.9551 60.7394 44.1166 61.0189C44.1806 61.1233 44.2412 61.2345 44.2984 61.3389C44.4162 61.5578 44.5273 61.7835 44.635 62.0024C44.6855 62.1001 44.7326 62.1978 44.7831 62.2954C44.8066 62.3426 44.8302 62.4066 44.8605 62.4739C44.9177 62.6188 44.9884 62.7973 45.0725 62.8613L45.022 62.9253H45.0187Z" fill="#58CC02"/>
<path d="M45.3216 63.4877C45.0388 63.737 44.8907 63.2048 44.8571 63.0229C44.8335 62.8848 44.8571 62.7636 44.884 62.5918C45.0186 62.777 45.5942 63.2486 45.3216 63.4877Z" fill="#58CC02"/>
<path d="M43.5209 60.2136L43.5276 60.1328C44.5306 60.217 45.3485 60.2339 46.0352 60.1867L46.0419 60.2675C45.3519 60.3147 44.5273 60.2978 43.5209 60.2136Z" fill="#58CC02"/>
<path d="M45.941 60.2036C46.0756 60.106 46.8598 59.8399 46.6411 60.2339C46.5132 60.4731 46.0184 60.3283 45.8265 60.2575L45.941 60.2036Z" fill="#58CC02"/>
<path d="M45.0928 61.3354C45.0659 61.3152 45.0389 61.295 45.012 61.2748L44.8302 61.1333C44.4398 60.8302 44.0393 60.5136 43.6354 60.2475L43.6791 60.1768C44.0864 60.4496 44.4869 60.7628 44.8807 61.0693L45.0591 61.2074C45.2207 61.332 45.4024 61.4465 45.5842 61.5543C45.8333 61.7092 46.0924 61.8675 46.3011 62.0696L46.2473 62.1269C46.0419 61.9315 45.7895 61.7766 45.5438 61.625C45.3923 61.5341 45.2375 61.4364 45.0928 61.332V61.3354Z" fill="#58CC02"/>
<path d="M46.1327 61.9448C46.4121 61.9953 46.8665 62.0324 46.9102 62.4029C46.954 62.7464 46.4357 62.4366 46.3414 62.3254C46.2505 62.2143 46.1731 62.0897 46.0957 61.9718L46.1327 61.9448Z" fill="#58CC02"/>
<path d="M148.935 72.6828C149.235 73.9189 147.189 72.4942 146.788 72.3089C146.303 72.6558 145.822 73.0095 145.341 73.3631C144.402 73.9155 145.196 71.7565 145.267 71.413C144.93 71.1604 144.361 70.9886 144.176 70.6013C144.2 70.1297 145.388 70.0961 145.761 69.9883C145.997 69.3888 146.287 68.8162 146.589 68.2503C146.643 68.1493 146.701 68.028 146.822 67.9977C147.108 67.8293 147.616 69.0587 147.522 69.2305C147.576 69.3686 147.629 69.5066 147.683 69.6447C148.299 69.5336 148.912 69.4157 149.524 69.2978C150.773 69.217 148.555 70.9448 148.306 71.1739C148.515 71.6791 148.74 72.1776 148.932 72.6895L148.935 72.6828Z" fill="#FF9600"/>
<path d="M175.824 60.8042C178.21 60.7099 174.834 63.9568 174.349 64.6236C174.81 65.6475 175.282 66.6647 175.756 67.6819C176.429 69.6185 172.747 67.3585 172.138 67.1026C171.549 67.6314 171.02 68.6148 170.24 68.8136C169.378 68.5946 169.755 66.3919 169.694 65.6644C168.681 65.011 167.729 64.2666 166.796 63.4987C166.631 63.3606 166.426 63.2124 166.416 62.9766C166.211 62.3906 168.661 61.9022 168.94 62.1346C169.213 62.0875 169.489 62.0403 169.762 61.9898C169.785 60.8143 169.792 59.6388 169.802 58.4667C170.108 56.1326 172.478 60.8581 172.808 61.4004C173.814 61.2016 174.814 60.9726 175.827 60.8042H175.824Z" fill="#FF9600"/>
<path d="M176.394 13.0741C174.304 12.2321 171.826 11.225 169.565 12.03C168.572 12.3837 167.713 13.1112 167.488 14.1789C167.252 15.2836 167.612 16.5062 168.232 17.4224C169.507 19.3186 172.008 20.0899 174.122 19.1771C174.583 18.9784 175.162 18.7123 175.401 18.2408C175.664 17.7255 175.438 17.1394 175.152 16.6847C174.603 15.8158 173.715 15.2398 172.752 14.9266C170.786 14.2867 168.437 14.8626 167.034 16.3951C165.367 18.2139 165.835 20.8039 166.778 22.8585C167.734 24.9433 169.602 26.7891 172.042 26.7284C173.048 26.7049 174.243 26.2973 174.654 25.2902C175.095 24.199 174.408 23.0707 173.459 22.5351C171.443 21.3967 168.514 21.8918 166.798 23.3536C166.007 24.0272 165.411 24.9467 165.307 25.9942C165.192 27.1494 165.687 28.234 166.418 29.1029C166.801 29.561 167.242 29.9584 167.72 30.3155C168.235 30.6994 168.922 29.9584 168.4 29.5677C167.044 28.5573 165.68 26.8834 166.606 25.1387C167.458 23.5388 169.467 22.8618 171.18 22.9595C172.005 23.0067 173.129 23.2189 173.594 23.9868C174.109 24.8322 173.425 25.4587 172.624 25.6439C170.823 26.0649 169.127 24.8389 168.205 23.3906C167.289 21.9491 166.461 19.7261 167.155 18.0455C167.754 16.5972 169.366 15.7518 170.877 15.6844C171.668 15.6507 172.473 15.8124 173.169 16.1964C173.489 16.3715 173.785 16.5972 174.031 16.87C174.226 17.0889 174.647 17.5807 174.428 17.8568C174.199 18.1465 173.6 18.3149 173.26 18.4092C172.84 18.5271 172.402 18.5709 171.968 18.5473C171.099 18.4968 170.282 18.1398 169.649 17.5503C168.955 16.9037 168.481 15.9875 168.427 15.031C168.37 14.0071 168.972 13.2964 169.918 12.9765C171.897 12.3096 174.095 13.2358 175.919 13.97C176.518 14.2092 176.99 13.3166 176.387 13.0741H176.394Z" fill="#8481EF"/>
<path d="M128.071 77.1084C130.171 76.2899 132.665 75.3267 133.762 73.1913C134.244 72.2549 134.371 71.1367 133.809 70.2038C133.227 69.2371 132.126 68.5938 131.049 68.348C128.821 67.8394 126.472 68.9913 125.556 71.1031C125.358 71.5645 125.115 72.1539 125.264 72.6625C125.425 73.2182 125.991 73.491 126.509 73.6258C127.502 73.8851 128.545 73.6965 129.461 73.2654C131.332 72.3863 132.652 70.3553 132.628 68.2772C132.598 65.8084 130.484 64.2422 128.394 63.3901C126.27 62.5245 123.648 62.4605 121.911 64.1749C121.194 64.8822 120.602 65.997 120.992 67.0108C121.416 68.1088 122.692 68.4591 123.749 68.1998C125.997 67.6474 127.795 65.283 128.044 63.0398C128.158 62.0092 127.963 60.9314 127.323 60.0927C126.617 59.1699 125.513 58.7185 124.385 58.5872C123.793 58.5165 123.2 58.5266 122.608 58.5939C121.968 58.668 121.975 59.6784 122.625 59.6044C124.304 59.4124 126.445 59.6953 126.96 61.605C127.434 63.3531 126.431 65.2224 125.119 66.3271C124.486 66.8559 123.52 67.4722 122.658 67.2331C121.706 66.9704 121.773 66.0475 122.231 65.3604C123.254 63.8212 125.334 63.5518 126.994 63.9761C128.65 64.4005 130.77 65.4514 131.416 67.1556C131.972 68.6241 131.373 70.3419 130.316 71.4264C129.76 71.9922 129.064 72.4234 128.296 72.6221C127.943 72.713 127.572 72.7534 127.206 72.7198C126.913 72.6928 126.273 72.6254 126.24 72.2752C126.206 71.908 126.529 71.3759 126.711 71.0727C126.936 70.6989 127.226 70.3688 127.559 70.0893C128.225 69.5302 129.067 69.2304 129.932 69.227C130.881 69.2237 131.854 69.5672 132.544 70.2274C133.288 70.9347 133.331 71.8676 132.864 72.7467C131.877 74.589 129.639 75.4176 127.808 76.1316C127.209 76.3674 127.472 77.3408 128.077 77.105L128.071 77.1084Z" fill="#8481EF"/>
<path d="M48.5783 73.6054C46.3265 73.6829 43.6541 73.7671 41.9139 75.4208C41.1499 76.1449 40.6618 77.1587 40.884 78.2264C41.1162 79.3312 41.9409 80.3012 42.8766 80.8906C44.8119 82.1065 47.4103 81.7966 48.9721 80.1058C49.312 79.7387 49.7361 79.2604 49.763 78.7316C49.7933 78.1523 49.3524 77.7077 48.9081 77.4113C48.0566 76.8388 47.0098 76.6704 46.0034 76.7748C43.9469 76.987 42.0317 78.4656 41.3687 80.4359C40.5811 82.7734 42.0587 84.9525 43.7517 86.448C45.4716 87.967 47.9219 88.8966 50.1299 87.8525C51.0387 87.4213 51.9677 86.5659 51.934 85.4813C51.897 84.3059 50.8098 83.5514 49.726 83.447C47.4238 83.2247 44.9465 84.865 43.9671 86.8959C43.5161 87.8323 43.3444 88.9134 43.6743 89.9137C44.0378 91.0185 44.9297 91.8066 45.9496 92.3051C46.4881 92.5678 47.0468 92.7531 47.6291 92.8844C48.2552 93.0259 48.585 92.0693 47.9489 91.9245C46.2996 91.5506 44.3744 90.5739 44.5157 88.6036C44.6436 86.7983 46.2087 85.3634 47.8142 84.7572C48.585 84.4642 49.6991 84.2048 50.4362 84.7168C51.2474 85.2792 50.8771 86.128 50.2208 86.6265C48.7466 87.7413 46.6968 87.3068 45.2697 86.357C43.8493 85.4106 42.1899 83.7164 42.1462 81.8943C42.1058 80.3248 43.2401 78.9 44.5965 78.2264C45.3067 77.8728 46.1078 77.6976 46.8987 77.765C47.2622 77.7953 47.6257 77.8795 47.959 78.0311C48.2249 78.1523 48.8072 78.4319 48.723 78.7721C48.6321 79.1291 48.1508 79.5265 47.8815 79.7522C47.545 80.0284 47.1646 80.2473 46.7574 80.4022C45.9462 80.7087 45.0509 80.7155 44.233 80.4292C43.3377 80.1193 42.5332 79.4726 42.0957 78.6205C41.6278 77.7044 41.8937 76.8118 42.6275 76.1382C44.1657 74.727 46.552 74.6832 48.5177 74.6124C49.1606 74.5889 49.2346 73.5818 48.585 73.6054H48.5783Z" fill="#8481EF"/>
<path d="M28.7886 92.668C26.6547 93.1194 25.544 95.4299 26.1128 97.444C26.7254 99.6097 28.9334 101.028 31.1346 101.051C32.0198 101.061 33.0397 100.762 33.4672 99.9162C33.9485 98.9698 33.4503 97.8448 32.6392 97.2689C31.7607 96.6424 30.5591 96.639 29.6806 97.2689C28.7516 97.9324 28.4386 99.0775 28.6506 100.169C28.8964 101.442 29.8724 102.486 30.8687 103.247C31.9121 104.045 33.171 104.541 34.4904 104.268C35.1265 104.136 34.8572 103.163 34.2211 103.294C32.592 103.631 30.8317 102.227 30.0273 100.917C29.6234 100.26 29.4113 99.4042 29.7614 98.6767C30.0946 97.9863 30.9125 97.6427 31.6395 97.8819C32.2386 98.0806 32.9353 98.8384 32.5483 99.4986C32.242 100.021 31.4544 100.071 30.9192 100.034C29.3575 99.9196 27.7688 98.9967 27.1932 97.4878C26.5908 95.9115 27.3144 94.0119 29.0613 93.6414C29.6974 93.5067 29.4282 92.5333 28.792 92.668H28.7886Z" fill="#1CB0F6"/>
<path d="M118.175 96.1044C119.622 95.3028 121.046 93.8646 122.793 93.8377C124.331 93.8141 125.836 95.0839 126.004 96.6299C126.166 98.1455 125.055 99.6881 123.584 100.045C123.163 100.15 122.759 100.153 122.487 99.779C122.234 99.4321 122.16 98.9741 122.174 98.553C122.204 97.6538 122.689 96.8319 123.328 96.2223C123.995 95.5857 124.846 95.1445 125.698 94.8043C126.64 94.4271 127.593 94.2385 128.481 94.8414C129.929 95.8249 130.804 97.7683 130.888 99.4793C130.932 100.328 130.77 101.359 129.922 101.77C129.158 102.14 128.501 101.594 128.387 100.82C128.252 99.9036 128.845 98.9707 129.319 98.2331C129.777 97.5224 130.329 96.8353 131.012 96.3301C131.733 95.8013 132.628 95.4847 133.516 95.7171C134.368 95.9394 135.038 96.5894 135.455 97.3473C136.532 99.2974 135.691 101.601 134.695 103.396C134.378 103.966 135.25 104.474 135.566 103.905C136.714 101.84 137.535 99.3109 136.438 97.0509C135.489 95.1007 133.328 94.0768 131.292 94.9997C130.309 95.4443 129.528 96.2425 128.888 97.0913C128.198 98.004 127.512 99.1054 127.384 100.267C127.27 101.305 127.761 102.463 128.804 102.817C129.811 103.161 130.921 102.558 131.44 101.685C132.042 100.668 131.975 99.3782 131.733 98.2668C131.487 97.1384 130.969 96.0775 130.252 95.1748C129.538 94.2722 128.589 93.5009 127.397 93.4302C126.186 93.3594 124.89 93.9792 123.87 94.5787C122.066 95.643 120.285 98.0714 121.558 100.197C122.847 102.356 125.782 100.379 126.573 98.7854C127.525 96.8623 126.842 94.6528 125.055 93.4975C124.176 92.9283 123.133 92.7229 122.106 92.9014C121.009 93.0933 120.043 93.7164 119.131 94.3193C118.653 94.6359 118.175 94.9559 117.67 95.2355C117.101 95.5487 117.61 96.4244 118.178 96.1078L118.175 96.1044Z" fill="#1CB0F6"/>
<path d="M37.4692 32.6123C37.8226 33.9562 39.041 34.9262 40.3941 35.1384C41.8616 35.3674 43.3156 34.6972 44.3052 33.6261C45.4159 32.4271 45.8972 30.8239 46.0352 29.224C46.1732 27.6242 46.0722 25.7919 45.0962 24.448C44.2446 23.2692 42.831 22.5047 41.3668 22.5047C39.7378 22.5047 38.8492 24.0472 38.7852 25.5326C38.6472 28.739 42.077 30.0559 44.7629 29.9246C48.7178 29.7326 49.7376 24.8219 49.842 21.6492C49.8622 20.9991 48.8524 20.9991 48.8322 21.6492C48.7918 22.9055 48.6505 24.1584 48.2701 25.3608C47.9066 26.5093 47.2671 27.7488 46.2607 28.4595C45.3048 29.1364 43.8272 29.0017 42.7401 28.7458C41.6899 28.4999 40.66 27.9778 40.1215 27.0011C39.5897 26.0311 39.6738 24.4784 40.5826 23.7374C41.0269 23.3736 41.7606 23.4982 42.2722 23.6397C42.8242 23.7913 43.3426 24.0742 43.7667 24.4615C44.7663 25.3743 45.0423 26.6979 45.0659 28.0014C45.0894 29.3318 44.9245 30.7195 44.2917 31.9084C43.6825 33.0536 42.5651 34.0606 41.2254 34.1684C40.0238 34.2661 38.7617 33.5419 38.4453 32.3429C38.2803 31.7131 37.3043 31.9825 37.4725 32.6123H37.4692Z" fill="#1CB0F6"/>
<path d="M106.331 27.712C104.961 27.4695 103.574 28.17 102.813 29.3118C101.992 30.5513 101.992 32.1511 102.548 33.4984C103.17 35.0106 104.422 36.1187 105.816 36.9136C107.209 37.7085 108.916 38.3855 110.545 38.0621C111.972 37.7792 113.258 36.8159 113.87 35.4855C114.55 34.0069 113.527 32.5519 112.204 31.8716C109.353 30.4031 106.721 32.9696 105.715 35.462C104.234 39.1366 108.263 42.1173 111.097 43.542C111.679 43.8351 112.1 42.9156 111.521 42.6259C110.4 42.0634 109.32 41.41 108.387 40.5613C107.499 39.7496 106.64 38.6482 106.418 37.4357C106.206 36.2838 106.947 34.9972 107.633 34.1147C108.296 33.266 109.202 32.5452 110.313 32.4677C111.417 32.3903 112.79 33.1178 113.083 34.2528C113.227 34.8086 112.807 35.4249 112.463 35.8291C112.093 36.2669 111.622 36.6206 111.093 36.8429C109.848 37.3683 108.529 37.0652 107.337 36.5398C106.122 36.0042 104.931 35.2733 104.116 34.2023C103.332 33.1717 102.888 31.7301 103.349 30.4671C103.763 29.332 104.947 28.49 106.169 28.7055C106.809 28.8201 106.974 27.8231 106.334 27.7086L106.331 27.712Z" fill="#1CB0F6"/>
</g>
<g clip-path="url(#clip2_852_29562)">
<path d="M87.6131 33.879C88.0619 35.1757 87.3772 36.5822 86.6308 37.7353C83.893 41.9699 80.002 45.4363 75.5189 47.7368C73.5663 48.7358 71.5088 49.5119 69.3814 50.0342C68.7733 50.1827 68.1024 50.3077 67.5513 50.0194C67.4666 49.9748 67.3825 49.922 67.3089 49.8581C67.2834 49.8434 67.2603 49.8173 67.2385 49.7962C67.1899 49.7553 67.1432 49.7112 67.1033 49.6626C67.077 49.6346 67.0539 49.6084 67.034 49.5841C66.9728 49.5061 66.9136 49.4249 66.8598 49.3341C66.7026 49.0769 66.5753 48.7899 66.4608 48.5103C66.3398 48.2269 66.2239 47.9423 66.1048 47.6558C65.8024 46.9218 65.4982 46.1911 65.1977 45.454C65.114 45.2606 65.0354 45.0657 64.96 44.8728C64.8108 44.5134 64.6616 44.154 64.5143 43.7914C64.1 42.7879 63.6862 41.7762 63.2788 40.7682C63.1045 40.3345 62.9284 39.9041 62.7555 39.4755C62.6729 39.2655 62.5852 39.0569 62.5008 38.8502C61.9918 37.5914 61.4816 36.3276 60.9745 35.0656C60.8879 34.8406 60.7962 34.6169 60.7064 34.39C60.1509 33.006 59.6022 31.6176 59.0617 30.2296C58.9719 30.0027 58.8853 29.7776 58.7986 29.5525C58.558 28.9397 58.3224 28.3254 58.0868 27.7112C58.0276 27.5489 57.962 27.383 57.8997 27.2189C57.6856 26.6555 57.4703 26.0871 57.2613 25.5224C57.1765 25.2942 57.0899 25.0691 57.0083 24.8427C56.7881 24.2459 56.5679 23.6491 56.3514 23.0459C56.133 22.4459 55.9211 21.8495 55.7096 21.245C55.6477 21.0726 55.5859 20.9003 55.5259 20.7247C55.4949 20.6386 55.4608 20.5506 55.4349 20.463C55.4067 20.3869 55.3789 20.3026 55.3557 20.2252C55.1581 19.6628 54.9637 19.1022 54.7743 18.5403C54.7639 18.5215 54.7586 18.5013 54.7551 18.4779C54.5348 17.8298 54.3163 17.1785 54.1061 16.5277C53.9356 16.0066 53.4481 13.9532 53.8933 13.241C54.0549 12.9757 54.3437 12.8948 54.8266 13.1394C56.3678 13.9268 57.898 14.7333 59.4175 15.5509C59.6696 15.6879 59.9267 15.8235 60.177 15.9637C61.2191 16.527 62.2544 17.0948 63.2822 17.6754L64.0011 18.0777C65.0085 18.6422 66.0085 19.2196 67.0067 19.8001C67.2519 19.9417 67.494 20.0815 67.7323 20.2276C68.9006 20.9107 70.0633 21.6033 71.2187 22.3088C71.4557 22.4499 71.694 22.596 71.9305 22.7454C72.9444 23.3649 73.9596 23.9895 74.9624 24.6282C75.1989 24.7775 75.4354 24.9269 75.67 25.0794C76.9858 25.9117 78.2922 26.7599 79.5881 27.6191C79.8228 27.7716 80.0542 27.9223 80.2852 28.0813C81.7106 29.0324 83.1318 29.9981 84.5374 30.9761C84.7779 31.1406 85.0166 31.3083 85.2553 31.4759C85.3675 31.5536 85.478 31.6344 85.5935 31.7139C86.4153 32.2909 87.2779 32.9298 87.608 33.8804L87.6131 33.879Z" fill="#6F6CE8"/>
<path d="M60.1789 15.9606C59.3835 17.3972 58.4371 18.7422 57.2676 19.9073C57.2097 19.9635 57.1517 20.0197 57.0906 20.0741C56.6639 20.4895 56.2022 20.8847 55.7096 21.2451C55.6478 21.0727 55.5859 20.9004 55.5259 20.7249C55.495 20.6387 55.4609 20.5507 55.435 20.4631C55.8928 20.1041 56.3217 19.707 56.7255 19.2869C57.6542 18.3329 58.4482 17.2372 59.1183 16.0913C59.2219 15.9119 59.3254 15.7326 59.4207 15.5528C59.6728 15.6898 59.93 15.8255 60.1802 15.9657L60.1789 15.9606Z" fill="white"/>
<path d="M64.003 18.075C63.8015 18.424 63.584 18.7639 63.3652 19.0987C63.0099 19.6407 62.629 20.168 62.234 20.6829C61.3424 21.8375 60.3485 22.9118 59.2679 23.8934C59.1769 23.9774 59.0864 24.0533 58.9954 24.1374C58.4403 24.6281 57.8608 25.0877 57.2631 25.5197C57.1784 25.2914 57.0917 25.0664 57.0102 24.84C57.5791 24.3914 58.1282 23.9185 58.6605 23.4231C59.7407 22.42 60.7343 21.3242 61.6256 20.148C61.6275 20.1448 61.6293 20.1416 61.633 20.1352C62.0013 19.6519 62.3541 19.1511 62.6878 18.6392C62.8974 18.3204 63.0973 17.9961 63.2859 17.6695L64.0048 18.0718L64.003 18.075Z" fill="white"/>
<path d="M67.7374 20.2264C67.6745 20.3353 67.6053 20.4405 67.5392 20.5475C67.3236 20.8842 67.1094 21.2259 66.8856 21.562C66.4337 22.249 65.9691 22.9287 65.4791 23.5936C64.1678 25.3941 62.7169 27.1054 61.0821 28.591C60.4387 29.1759 59.7681 29.7196 59.0636 30.2265C58.9738 29.9996 58.8871 29.7745 58.8005 29.5495C58.8386 29.5202 58.8804 29.4846 58.9186 29.4554C59.5537 28.951 60.1575 28.4201 60.7395 27.868C62.2529 26.4234 63.5991 24.8053 64.822 23.099C64.8312 23.0829 64.8455 23.0656 64.8566 23.0464C65.3191 22.3997 65.7694 21.7374 66.202 21.0692C66.4757 20.6465 66.7444 20.2252 67.0086 19.7971C67.2538 19.9387 67.4958 20.0784 67.7342 20.2246L67.7374 20.2264Z" fill="white"/>
<path d="M71.9355 22.7445C71.8602 22.8675 71.7799 22.9919 71.6996 23.1163C71.4069 23.5793 71.1046 24.0366 70.7991 24.4922C70.2915 25.2537 69.7666 26.001 69.2226 26.7373C68.0226 28.3672 66.7307 29.9355 65.3496 31.401C64.7031 32.0867 64.0227 32.7356 63.3051 33.3461C62.6799 33.8774 62.0288 34.3726 61.3438 34.831C61.2199 34.9132 61.0978 34.9922 60.9758 35.0711C60.8892 34.8461 60.7975 34.6224 60.7077 34.3955C61.0243 34.1854 61.3351 33.9635 61.6362 33.736C62.0967 33.3871 62.5418 33.0207 62.9715 32.6368C65.0908 30.7606 66.8902 28.5118 68.5541 26.2403C68.5597 26.2307 68.5684 26.223 68.5739 26.2134C69.1111 25.4816 69.6322 24.7407 70.1361 23.9856C70.5085 23.4363 70.8713 22.8815 71.2264 22.318C71.4634 22.4591 71.7017 22.6052 71.9382 22.7546L71.9355 22.7445Z" fill="white"/>
<path d="M75.6801 25.0769C75.4549 25.4891 75.2296 25.9013 74.9999 26.3066C74.7997 26.6607 74.5995 27.0148 74.3897 27.3634C73.9328 28.1328 73.4517 28.8926 72.9538 29.6298C71.6299 31.6066 70.1419 33.4631 68.4415 35.1285C67.5104 36.0426 66.5078 36.9112 65.4391 37.7032C64.5792 38.3468 63.6813 38.9385 62.751 39.4688C62.6684 39.2588 62.5807 39.0502 62.4963 38.8435C63.0654 38.4975 63.6261 38.1295 64.17 37.739C64.4826 37.5139 64.7938 37.2837 65.0923 37.0462C67.6859 35.0253 69.9013 32.5855 71.7915 29.8853C71.9635 29.6388 72.1324 29.3904 72.2949 29.1384C72.8001 28.3883 73.2791 27.6102 73.7384 26.8293C74.0361 26.3138 74.3356 25.795 74.6205 25.2721C74.7361 25.0571 74.8536 24.8388 74.9661 24.622C75.2026 24.7713 75.4391 24.9207 75.6737 25.0732L75.6801 25.0769Z" fill="white"/>
<path d="M80.2921 28.0771C79.8664 28.8732 79.4217 29.6582 78.9528 30.4335C78.8419 30.6257 78.7246 30.8141 78.6073 31.0026C78.2239 31.6224 77.8279 32.2349 77.4159 32.8381C75.5989 35.5293 73.5381 38.0542 71.2819 40.3808C70.4903 41.2004 69.6538 42.024 68.7738 42.8053C67.6613 43.7983 66.4693 44.7155 65.1926 45.4557C65.109 45.2623 65.0304 45.0675 64.955 44.8745C65.6239 44.4366 66.2707 43.9562 66.8894 43.4509C67.3708 43.0584 67.8463 42.6541 68.3095 42.2341C70.9281 39.8904 73.2715 37.1701 75.3387 34.3544C75.8164 33.7037 76.2799 33.0405 76.7307 32.37C77.1562 31.7361 77.5689 31.0948 77.9675 30.4411C78.2021 30.0642 78.4304 29.6836 78.6522 29.2993C78.9721 28.7453 79.2874 28.1845 79.5913 27.6213C79.826 27.7738 80.0574 27.9245 80.2884 28.0835L80.2921 28.0771Z" fill="white"/>
<path d="M85.2621 31.4718C84.9091 32.1347 84.5319 32.788 84.1439 33.4307C81.642 37.5582 78.4964 41.2927 74.8519 44.4573C74.1232 45.0869 73.3759 45.6973 72.6137 46.282C71.4792 47.1512 70.3002 47.9649 69.0851 48.7236C68.4778 49.0988 67.8665 49.459 67.2385 49.7966C67.1899 49.7557 67.1431 49.7116 67.1033 49.663C67.077 49.635 67.0539 49.6089 67.0339 49.5845C66.9728 49.5066 66.9135 49.4254 66.8598 49.3346C67.7509 48.7987 68.6221 48.2385 69.4696 47.6605C70.3204 47.0842 71.1568 46.474 71.97 45.8377C74.8927 43.5629 77.5446 40.9481 79.8641 38.056C81.3539 36.1963 82.7024 34.221 83.8886 32.1518C84.1141 31.7612 84.3315 31.37 84.5443 30.972C84.7848 31.1365 85.0234 31.3041 85.2621 31.4718Z" fill="white"/>
<path d="M48.4872 13.8303C46.748 15.5631 51.2733 15.0504 52.0586 15.1024C52.4164 16.086 52.7572 17.077 53.0999 18.0647C53.9122 19.7762 55.0017 15.6018 55.2594 14.9863C56.0252 14.8734 57.0478 15.088 57.7265 14.6259C58.1877 13.8419 56.4608 12.7509 56.0184 12.2521C56.2959 11.0802 56.4747 9.90255 56.6157 8.72437C56.6404 8.51236 56.6868 8.27017 56.5399 8.11276C56.295 7.59561 54.2478 9.13348 54.2093 9.48699C53.9839 9.66423 53.7634 9.84011 53.5398 10.0141C52.7412 9.30118 51.9601 8.57268 51.174 7.84554C49.4092 6.6217 50.8802 11.3478 51.0086 11.9344C50.1707 12.5693 49.3148 13.1766 48.4904 13.8322L48.4872 13.8303Z" fill="#F9E000"/>
<path d="M69.5119 46.5573C68.5136 47.0655 67.5204 47.5722 66.5221 48.0804C66.2512 48.2186 65.9735 48.3614 65.7714 48.5863C65.3269 49.0768 65.342 49.8669 65.6812 50.4342C66.0222 50.9983 66.618 51.3637 67.2396 51.5816C69.0599 52.2312 71.0958 51.8012 72.9003 51.0882C77.0487 49.4485 80.4836 46.419 83.6988 43.3139C84.5641 42.4771 85.4272 41.6219 86.1077 40.6272C86.8395 39.551 87.3406 38.3374 87.8311 37.1347C88.2882 36.0195 88.7452 34.9042 89.2022 33.789C89.2682 33.6307 89.3328 33.4673 89.3499 33.2979C89.3997 32.763 88.9479 32.31 88.4768 32.0594C87.0924 31.3241 85.2024 31.7145 84.2139 32.9413C83.4202 33.9263 83.2257 35.2486 82.9054 36.4727C82.4773 38.1042 81.7715 39.665 80.8252 41.0613C80.4201 41.66 79.9566 42.2421 79.3352 42.605C78.1351 43.3083 76.5856 43.0797 75.3413 43.6977C73.8605 44.4311 72.9605 46.2769 71.3238 46.4933L69.5188 46.5527L69.5119 46.5573Z" fill="#FF9600"/>
</g>
<ellipse cx="100.5" cy="58.5" rx="44" ry="43.5" fill="white"/>
<path d="M114.238 38.2773C114.438 39.0914 114.545 39.9469 114.545 40.844C114.545 41.0434 114.545 41.2427 114.529 41.4421C104.835 40.2626 100.134 41.4421 100.134 41.4421C100.134 41.2427 100.117 41.0434 100.117 40.844C100.117 39.9469 100.225 39.0997 100.425 38.2773H114.238Z" fill="white"/>
<path d="M107.327 45.3882C109.42 45.3882 111.215 46.2521 112.054 47.5229C110.783 48.8603 109.13 49.6743 107.327 49.6743C105.525 49.6743 103.863 48.8686 102.601 47.5229C103.44 46.2521 105.242 45.3882 107.327 45.3882Z" fill="#FF7C5F"/>
<path d="M114.529 41.4427C114.396 43.8682 113.457 46.0278 112.054 47.523C111.215 46.2521 109.42 45.3883 107.327 45.3883C105.234 45.3883 103.44 46.2521 102.601 47.523C101.189 46.0278 100.258 43.8682 100.125 41.4427C100.125 41.4427 104.835 40.2632 114.521 41.4427H114.529Z" fill="#495057"/>
<path d="M96.3211 37.572C95.9805 37.572 95.6981 37.2895 95.6981 36.949C95.6981 35.8608 94.8924 34.9803 93.8956 34.9803C92.8989 34.9803 92.1014 35.8608 92.1014 36.949C92.1014 37.2895 91.819 37.572 91.4785 37.572C91.1379 37.572 90.8555 37.2895 90.8555 36.949C90.8555 35.1714 92.2177 33.7344 93.9039 33.7344C95.5901 33.7344 96.9524 35.1714 96.9524 36.949C96.9524 37.2895 96.67 37.572 96.3294 37.572H96.3211Z" fill="#495057"/>
<path d="M122.777 37.572C122.437 37.572 122.154 37.2895 122.154 36.949C122.154 35.8608 121.348 34.9803 120.352 34.9803C119.355 34.9803 118.549 35.8608 118.549 36.949C118.549 37.2895 118.267 37.572 117.926 37.572C117.586 37.572 117.303 37.2895 117.303 36.949C117.303 35.1797 118.665 33.7344 120.352 33.7344C122.038 33.7344 123.4 35.1714 123.4 36.949C123.4 37.2895 123.118 37.572 122.777 37.572Z" fill="#495057"/>
</g>
<defs>
<clipPath id="clip0_852_29562">
<rect width="200" height="120" fill="white" transform="translate(0.5)"/>
</clipPath>
<clipPath id="clip1_852_29562">
<rect width="242" height="103" fill="white" transform="translate(-41.5 3)"/>
</clipPath>
<clipPath id="clip2_852_29562">
<rect width="32.3952" height="47.3468" fill="white" transform="translate(35.6328 33.4102) rotate(-60)"/>
</clipPath>
</defs>
</svg>