<svg width="121" height="120" viewBox="0 0 121 120" fill="none" xmlns="http://www.w3.org/2000/svg">
<g clip-path="url(#clip0_852_29634)">
<circle cx="60.5" cy="60" r="60" fill="white"/>
<path d="M57.17 36.62C55.14 36.62 53.5 34.88 53.5 32.75C53.5 32.34 53.84 32 54.25 32C54.66 32 55 32.34 55 32.75C55 34.06 55.97 35.12 57.17 35.12C58.37 35.12 59.34 34.06 59.34 32.75C59.34 32.34 59.68 32 60.09 32C60.5 32 60.84 32.34 60.84 32.75C60.84 34.88 59.2 36.62 57.17 36.62Z" fill="#495057"/>
<path d="M89.02 36.62C87 36.62 85.35 34.89 85.35 32.75C85.35 32.34 85.69 32 86.1 32C86.51 32 86.85 32.34 86.85 32.75C86.85 34.06 87.82 35.12 89.02 35.12C90.22 35.12 91.19 34.06 91.19 32.75C91.19 32.34 91.53 32 91.94 32C92.35 32 92.69 32.34 92.69 32.75C92.69 34.88 91.05 36.62 89.02 36.62Z" fill="#495057"/>
<path d="M73.1898 43.8504C74.4877 43.8504 75.5398 42.7983 75.5398 41.5004C75.5398 40.2025 74.4877 39.1504 73.1898 39.1504C71.892 39.1504 70.8398 40.2025 70.8398 41.5004C70.8398 42.7983 71.892 43.8504 73.1898 43.8504Z" fill="#495057"/>
</g>
<defs>
<clipPath id="clip0_852_29634">
<rect width="120" height="120" fill="white" transform="translate(0.5)"/>
</clipPath>
</defs>
</svg>