<svg width="25" height="24" viewBox="0 0 25 24" fill="none" xmlns="http://www.w3.org/2000/svg">
<path d="M3.875 5.99994C3.875 5.20431 4.19106 4.44126 4.75366 3.87866C5.31626 3.31606 6.07931 3 6.87494 3H18.8748C19.6704 3 20.4334 3.31606 20.996 3.87866C21.5586 4.44126 21.8747 5.20431 21.8747 5.99994V17.9998C21.8747 18.7954 21.5586 19.5584 20.996 20.121C20.4334 20.6836 19.6704 20.9997 18.8748 20.9997H6.87494C6.07931 20.9997 5.31626 20.6836 4.75366 20.121C4.19106 19.5584 3.875 18.7954 3.875 17.9998V5.99994Z" stroke="#6C757D" stroke-width="2" stroke-linecap="round" stroke-linejoin="round"/>
<path d="M9.375 10.5C10.4796 10.5 11.375 9.60457 11.375 8.5C11.375 7.39543 10.4796 6.5 9.375 6.5C8.27043 6.5 7.375 7.39543 7.375 8.5C7.375 9.60457 8.27043 10.5 9.375 10.5Z" stroke="#6C757D" stroke-width="2" stroke-linecap="round" stroke-linejoin="round"/>
<path d="M9.14056 21L16.1396 13.3263C16.2329 13.224 16.3468 13.1421 16.474 13.0858C16.6013 13.0295 16.7391 13.0003 16.8786 13C17.018 12.9997 17.1559 13.0284 17.2834 13.0842C17.4109 13.1399 17.5251 13.2214 17.6188 13.3233L17.6189 13.3234L21.6474 17.7022L21.6488 17.7037L21.6688 17.7255C21.7424 17.8059 21.7888 17.8564 21.8282 17.9034C21.8521 17.9319 21.8655 17.9498 21.8725 17.9599C21.8736 17.9702 21.8748 17.9874 21.8748 18.0134V18.1459C21.8748 18.9018 21.5735 19.6274 21.0362 20.1629C20.4988 20.6985 19.7693 21 19.0078 21H9.14056Z" stroke="#6C757D" stroke-width="2" stroke-linecap="round" stroke-linejoin="round"/>
</svg>
