<svg width="25" height="24" viewBox="0 0 25 24" fill="none" xmlns="http://www.w3.org/2000/svg">
<g clip-path="url(#clip0_1127_10235)">
<path fill-rule="evenodd" clip-rule="evenodd" d="M22.625 6.99077C22.625 6.99417 22.625 6.99758 22.625 7.00098V11C22.625 11.4045 22.3814 11.7691 22.0077 11.9239C21.634 12.0787 21.2039 11.9931 20.9179 11.7071L19.625 10.4142L14.3321 15.7071C13.9416 16.0976 13.3084 16.0976 12.9179 15.7071L9.625 12.4142L4.33211 17.7071C3.94158 18.0976 3.30842 18.0976 2.91789 17.7071C2.52737 17.3166 2.52737 16.6834 2.91789 16.2929L8.91789 10.2929C9.30842 9.90237 9.94158 9.90237 10.3321 10.2929L13.625 13.5858L18.2108 9L16.9179 7.70711C16.6319 7.42111 16.5463 6.99099 16.7011 6.61732C16.8559 6.24364 17.2205 6 17.625 6H21.6243C21.6245 6 21.6248 6 21.625 6C21.641 6 21.657 6.00038 21.673 6.00114C21.9127 6.01258 22.149 6.10983 22.3321 6.29289C22.525 6.48581 22.6226 6.73793 22.625 6.99077Z" fill="#6C757D"/>
</g>
<defs>
<clipPath id="clip0_1127_10235">
<rect width="24" height="24" fill="white" transform="translate(0.625)"/>
</clipPath>
</defs>
</svg>
