<svg width="32" height="32" viewBox="0 0 32 32" fill="none" xmlns="http://www.w3.org/2000/svg">
<path d="M23.1525 16.9813C23.1227 13.6475 25.86 12.0469 25.9808 11.9727C24.4427 9.70751 22.0444 9.39181 21.1937 9.35392C19.1517 9.14714 17.2086 10.5646 16.1759 10.5646C15.1431 10.5646 13.5422 9.38865 11.8533 9.4218C9.62456 9.45179 7.57787 10.7241 6.43053 12.7209C4.12016 16.7524 5.83724 22.7287 8.09268 25.9978C9.19137 27.5984 10.5019 29.3963 12.2237 29.3316C13.8859 29.2669 14.5137 28.2535 16.5196 28.2535C18.5255 28.2535 19.0889 29.3316 20.8453 29.3048C22.6298 29.2669 23.7615 27.6663 24.8507 26.0657C26.1127 24.2078 26.6369 22.4098 26.6667 22.3151C26.6275 22.3009 23.1854 20.9718 23.1509 16.9813H23.1525Z" fill="white"/>
<path d="M18.9515 7.27465C19.6419 6.0552 20.1066 4.35662 19.9789 2.66669C18.9869 2.72204 17.7845 3.63706 17.074 4.85132C16.4343 5.93585 15.8727 7.66902 16.0253 9.32263C17.1307 9.44544 18.2645 8.49756 18.9515 7.27465V7.27465Z" fill="white"/>
</svg>