<svg width="16" height="16" viewBox="0 0 16 16" fill="none" xmlns="http://www.w3.org/2000/svg">
<path d="M2.6665 2C2.6665 0.895429 3.56193 0 4.6665 0H11.3332C12.4377 0 13.3332 0.895431 13.3332 2V12.0973C13.3332 12.8548 12.9052 13.5473 12.2276 13.8861L8.89426 15.5528C8.33121 15.8343 7.66846 15.8343 7.10541 15.5528L3.77208 13.8861C3.09451 13.5473 2.6665 12.8548 2.6665 12.0973V2Z" fill="#FF9600"/>
<path fill-rule="evenodd" clip-rule="evenodd" d="M11.9298 11.3687C12.0944 11.698 11.9609 12.0984 11.6316 12.2631L8.29829 13.9298C8.1106 14.0236 7.88969 14.0236 7.702 13.9298L4.36867 12.2631C4.03935 12.0984 3.90587 11.698 4.07053 11.3687C4.23519 11.0394 4.63564 10.9059 4.96496 11.0705L8.00015 12.5881L11.0353 11.0705C11.3647 10.9059 11.7651 11.0394 11.9298 11.3687Z" fill="white"/>
<path d="M8.34108 2.21948L9.07698 3.78268C9.13245 3.89752 9.236 3.97902 9.36173 3.99754L11.011 4.24943C11.318 4.29758 11.4437 4.69394 11.2181 4.9199L10.0237 6.13861C9.93492 6.22752 9.89425 6.36086 9.91643 6.4868L10.1975 8.2056C10.2492 8.52787 9.92753 8.77235 9.65018 8.62047L8.17467 7.80923C8.06373 7.74997 7.93431 7.74997 7.82337 7.80923L6.34786 8.62047C6.07051 8.77235 5.74879 8.52787 5.80056 8.2056L6.0816 6.4868C6.10379 6.36086 6.06312 6.22752 5.97437 6.13861L4.77991 4.9199C4.55803 4.69394 4.68006 4.29388 4.987 4.24943L6.6363 3.99754C6.75833 3.97902 6.86558 3.89752 6.92105 3.78268L7.65695 2.21948C7.79378 1.92684 8.19316 1.92684 8.32999 2.21948H8.34108Z" fill="white"/>
</svg>
