<svg width="24" height="24" viewBox="0 0 24 24" fill="none" xmlns="http://www.w3.org/2000/svg">
<path d="M16.8131 10.8211C17.0567 10.1884 17.3403 9.26125 17.5257 8.26138C17.733 7.14151 17.8348 5.84349 17.5476 4.74544C17.5403 4.71999 17.533 4.69817 17.5257 4.67272C17.4094 4.36003 17.144 3.96008 16.6895 3.71648C16.1986 3.45105 15.5842 3.42197 14.9115 3.71648C14.617 3.84737 14.1698 4.20369 13.9262 4.80725C13.8244 5.01814 13.7807 5.25811 13.7589 5.44354C13.7335 5.66897 13.7226 5.92712 13.7262 6.1889C13.7262 6.71975 13.7735 7.33785 13.828 7.9196C13.8826 8.50498 13.9516 9.06128 14.0062 9.47214C14.0098 9.50486 14.0134 9.53031 14.0171 9.56303C13.3481 9.40669 12.6427 9.31943 11.9082 9.31943C11.1738 9.31943 10.5048 9.39942 9.85395 9.54849C9.90122 9.134 9.95212 8.62497 9.99939 8.09049C10.0503 7.46511 10.0903 6.80337 10.0903 6.2398C10.0903 5.95984 10.0794 5.69078 10.0539 5.45808C10.0321 5.26901 9.99212 5.02177 9.88668 4.80725C9.6467 4.20005 9.19585 3.84373 8.90134 3.71284C8.23233 3.4147 7.61786 3.44378 7.12338 3.71284C6.66889 3.95645 6.40346 4.36003 6.28712 4.66909C6.27984 4.69454 6.26894 4.71635 6.2653 4.74181C5.97806 5.84349 6.08714 7.14515 6.30166 8.26138C6.49073 9.25762 6.77796 10.1775 7.02157 10.8065C5.82172 11.69 5 12.9481 5 14.4097C5 15.8714 5.86535 17.2057 7.11974 18.0893C8.37413 18.9764 10.0721 19.5 11.9082 19.5C13.7444 19.5 15.4424 18.9764 16.6968 18.0893C17.9511 17.2057 18.8165 15.915 18.8165 14.4097C18.8165 12.9044 18.002 11.701 16.8131 10.8211ZM8.61774 8.30864C8.56684 8.91584 8.50503 9.50122 8.45412 9.93753C8.43231 10.1157 8.41413 10.2684 8.39958 10.3848C8.38868 10.392 8.37413 10.3957 8.36323 10.4029C8.17052 9.86118 7.94873 9.11945 7.79966 8.33046C7.60332 7.30513 7.54151 6.2798 7.73058 5.49808C7.75603 5.44354 7.8142 5.37446 7.88692 5.33446C7.92328 5.31628 7.97055 5.2981 8.03599 5.2981C8.10508 5.2981 8.21415 5.31265 8.37413 5.38173C8.37413 5.38173 8.38141 5.38536 8.38504 5.389C8.40322 5.39991 8.42867 5.42172 8.45412 5.45081C8.50866 5.50898 8.57047 5.59261 8.6141 5.70532C8.62501 5.73441 8.63592 5.75986 8.65046 5.78895C8.65046 5.78895 8.66501 5.83985 8.67955 5.97075C8.69773 6.12709 8.70864 6.33434 8.70864 6.58522C8.70864 7.08697 8.67228 7.70508 8.62138 8.31591L8.61774 8.30864ZM16.1659 8.33046C16.0205 9.11582 15.806 9.85027 15.6169 10.3884C15.6169 10.352 15.6169 10.312 15.6096 10.272V10.2611L15.6023 10.2284C15.5987 10.1993 15.5914 10.1557 15.5842 10.0975C15.5696 9.9848 15.5442 9.81755 15.5187 9.61757C15.4678 9.21762 15.3987 8.67587 15.3478 8.11594C15.2933 7.55237 15.2569 6.98153 15.2533 6.51613C15.2533 6.28344 15.2606 6.09073 15.2787 5.9453C15.2933 5.82531 15.3078 5.77804 15.3078 5.77804C15.3224 5.75259 15.3333 5.7235 15.3442 5.69442C15.3878 5.5817 15.446 5.49808 15.5042 5.4399C15.5333 5.41082 15.5551 5.39264 15.5733 5.37809C15.5769 5.37809 15.5805 5.37082 15.5842 5.37082C15.7441 5.30174 15.8532 5.28719 15.9223 5.28719C15.9914 5.28719 16.035 5.30537 16.0714 5.32355C16.1441 5.36355 16.1986 5.43627 16.2277 5.48717C16.4204 6.27253 16.3586 7.30149 16.1695 8.32319L16.1659 8.33046Z" fill="#FCC9E4"/>
<path d="M10 14.5C10 15.3284 9.77614 16 9.5 16C9.22386 16 9 15.3284 9 14.5C9 13.6716 9.22386 13 9.5 13C9.77614 13 10 13.6716 10 14.5Z" fill="#212529"/>
<path d="M15 14.5C15 15.3284 14.7761 16 14.5 16C14.2239 16 14 15.3284 14 14.5C14 13.6716 14.2239 13 14.5 13C14.7761 13 15 13.6716 15 14.5Z" fill="#212529"/>
</svg>