<svg width="28" height="28" viewBox="0 0 28 28" fill="none" xmlns="http://www.w3.org/2000/svg">
<mask id="path-1-inside-1_5922_38803" fill="white">
<path fill-rule="evenodd" clip-rule="evenodd" d="M18.1076 3.28125H8.14236C5.45764 3.28125 3.28125 5.24 3.28125 7.65625V18.5938C3.28125 21.01 5.45764 22.9688 8.14236 22.9688H15.4783L22.9688 15.4783V7.65625C22.9688 5.24 20.7924 3.28125 18.1076 3.28125ZM18.375 14H14V18.375H18.375V14ZM14 7.875H18.375V12.25H14V7.875ZM12.25 14H7.875V18.375H12.25V14Z"/>
</mask>
<path fill-rule="evenodd" clip-rule="evenodd" d="M18.1076 3.28125H8.14236C5.45764 3.28125 3.28125 5.24 3.28125 7.65625V18.5938C3.28125 21.01 5.45764 22.9688 8.14236 22.9688H15.4783L22.9688 15.4783V7.65625C22.9688 5.24 20.7924 3.28125 18.1076 3.28125ZM18.375 14H14V18.375H18.375V14ZM14 7.875H18.375V12.25H14V7.875ZM12.25 14H7.875V18.375H12.25V14Z" fill="white"/>
<path d="M15.4783 22.9688V24.9688C16.0087 24.9688 16.5174 24.758 16.8925 24.383L15.4783 22.9688ZM22.9688 15.4783L24.383 16.8925C24.758 16.5174 24.9688 16.0087 24.9688 15.4783H22.9688ZM14 14V12C12.8954 12 12 12.8954 12 14H14ZM18.375 14H20.375C20.375 12.8954 19.4796 12 18.375 12V14ZM14 18.375H12C12 19.4796 12.8954 20.375 14 20.375V18.375ZM18.375 18.375V20.375C19.4796 20.375 20.375 19.4796 20.375 18.375H18.375ZM18.375 7.875H20.375C20.375 6.77043 19.4796 5.875 18.375 5.875V7.875ZM14 7.875V5.875C12.8954 5.875 12 6.77043 12 7.875H14ZM18.375 12.25V14.25C19.4796 14.25 20.375 13.3546 20.375 12.25H18.375ZM14 12.25H12C12 13.3546 12.8954 14.25 14 14.25V12.25ZM7.875 14V12C6.77043 12 5.875 12.8954 5.875 14H7.875ZM12.25 14H14.25C14.25 12.8954 13.3546 12 12.25 12V14ZM7.875 18.375H5.875C5.875 19.4796 6.77043 20.375 7.875 20.375V18.375ZM12.25 18.375V20.375C13.3546 20.375 14.25 19.4796 14.25 18.375H12.25ZM8.14236 5.28125H18.1076V1.28125H8.14236V5.28125ZM5.28125 7.65625C5.28125 6.53757 6.35879 5.28125 8.14236 5.28125V1.28125C4.5565 1.28125 1.28125 3.94244 1.28125 7.65625H5.28125ZM5.28125 18.5938V7.65625H1.28125V18.5938H5.28125ZM8.14236 20.9688C6.35879 20.9688 5.28125 19.7124 5.28125 18.5938H1.28125C1.28125 22.3076 4.5565 24.9688 8.14236 24.9688V20.9688ZM15.4783 20.9688H8.14236V24.9688H15.4783V20.9688ZM21.5545 14.0641L14.0641 21.5545L16.8925 24.383L24.383 16.8925L21.5545 14.0641ZM20.9688 7.65625V15.4783H24.9688V7.65625H20.9688ZM18.1076 5.28125C19.8912 5.28125 20.9688 6.53757 20.9688 7.65625H24.9688C24.9688 3.94244 21.6935 1.28125 18.1076 1.28125V5.28125ZM14 16H18.375V12H14V16ZM16 18.375V14H12V18.375H16ZM18.375 16.375H14V20.375H18.375V16.375ZM16.375 14V18.375H20.375V14H16.375ZM18.375 5.875H14V9.875H18.375V5.875ZM20.375 12.25V7.875H16.375V12.25H20.375ZM14 14.25H18.375V10.25H14V14.25ZM12 7.875V12.25H16V7.875H12ZM7.875 16H12.25V12H7.875V16ZM9.875 18.375V14H5.875V18.375H9.875ZM12.25 16.375H7.875V20.375H12.25V16.375ZM10.25 14V18.375H14.25V14H10.25Z" fill="white" mask="url(#path-1-inside-1_5922_38803)"/>
<path d="M19.5358 15.2188C20.3202 15.2188 21.0593 15.4302 21.6916 15.7965C21.6569 15.8388 21.62 15.8796 21.581 15.9186L15.9186 21.581C15.8784 21.6212 15.837 21.6589 15.7946 21.6941C15.4282 21.0592 15.2188 20.3262 15.2188 19.5457V19.5455V19.5452V19.545V19.5448V19.5445V19.5443V19.5441V19.5439V19.5436V19.5434V19.5432V19.5429V19.5427V19.5425V19.5423V19.542V19.5418V19.5416V19.5414V19.5412V19.5409V19.5407V19.5405V19.5403V19.54V19.5398V19.5396V19.5394V19.5392V19.539V19.5387V19.5385V19.5383V19.5381V19.5379V19.5376V19.5374V19.5372V19.537V19.5368V19.5366V19.5364V19.5361V19.5359V19.5357V19.5355V19.5353V19.5351V19.5349V19.5347V19.5344V19.5342V19.534V19.5338V19.5336V19.5334V19.5332V19.533V19.5328V19.5326V19.5324V19.5322V19.5319V19.5317V19.5315V19.5313V19.5311V19.5309V19.5307V19.5305V19.5303V19.5301V19.5299V19.5297V19.5295V19.5293V19.5291V19.5289V19.5287V19.5285V19.5283V19.5281V19.5279V19.5277V19.5275V19.5273V19.5271V19.5269V19.5267V19.5265V19.5263V19.5261V19.5259V19.5257V19.5255V19.5253V19.5251V19.5249V19.5247V19.5245V19.5243V19.5241V19.524V19.5238V19.5236V19.5234V19.5232V19.523V19.5228V19.5226V19.5224V19.5222V19.522V19.5218V19.5216V19.5215V19.5213V19.5211V19.5209V19.5207V19.5205V19.5203V19.5201V19.5199V19.5197V19.5196V19.5194V19.5192V19.519V19.5188V19.5186V19.5184V19.5182V19.5181V19.5179V19.5177V19.5175V19.5173V19.5171V19.5169V19.5168V19.5166V19.5164V19.5162V19.516V19.5158V19.5157V19.5155V19.5153V19.5151V19.5149V19.5147V19.5146V19.5144V19.5142V19.514V19.5138V19.5136V19.5135V19.5133V19.5131V19.5129V19.5127V19.5126V19.5124V19.5122V19.512V19.5118V19.5117V19.5115V19.5113V19.5111V19.5109V19.5108V19.5106V19.5104V19.5102V19.51V19.5099V19.5097V19.5095V19.5093V19.5091V19.509V19.5088V19.5086V19.5084V19.5083V19.5081V19.5079V19.5077V19.5076V19.5074V19.5072V19.507V19.5068V19.5067V19.5065V19.5063V19.5061V19.506V19.5058V19.5056V19.5054V19.5053V19.5051V19.5049V19.5047V19.5046V19.5044V19.5042V19.504V19.5039V19.5037V19.5035V19.5033V19.5032V19.503V19.5028V19.5026V19.5025V19.5023V19.5021V19.5019V19.5018V19.5016V19.5014V19.5012V19.5011V19.5009V19.5007V19.5005V19.5004V19.5002V19.5V19.4998V19.4997V19.4995V19.4993V19.4992V19.499V19.4988V19.4986V19.4985V19.4983V19.4981V19.4979V19.4978V19.4976V19.4974V19.4972V19.4971V19.4969V19.4967V19.4966V19.4964V19.4962V19.496V19.4959V19.4957V19.4955V19.4953V19.4952V19.495V19.4948V19.4946V19.4945V19.4943V19.4941V19.494V19.4938V19.4936V19.4934V19.4933V19.4931V19.4929V19.4927V19.4926V19.4924V19.4922V19.492V19.4919V19.4917V19.4915V19.4913V19.4912V19.491V19.4908V19.4906V19.4905V19.4903V19.4901V19.49V19.4898V19.4896V19.4894V19.4893V19.4891V19.4889V19.4887V19.4886V19.4884V19.4882V19.488V19.4879V19.4877V19.4875V19.4873V19.4871V19.487V19.4868V19.4866V19.4864V19.4863V19.4861V19.4859V19.4857V19.4856V19.4854V19.4852V19.485V19.4849V19.4847V19.4845V19.4843V19.4841V19.484V19.4838V19.4836V19.4834V19.4833V19.4831V19.4829V19.4827V19.4825V19.4824V19.4822V19.482V19.4818V19.4816V19.4815V19.4813V19.4811V19.4809V19.4807V19.4806V19.4804V19.4802V19.48V19.4798V19.4797V19.4795V19.4793V19.4791V19.4789V19.4788V19.4786V19.4784V19.4782V19.478V19.4778V19.4777V19.4775V19.4773V19.4771V19.4769V19.4767V19.4766V19.4764V19.4762V19.476V19.4758V19.4756V19.4754V19.4753V19.4751V19.4749V19.4747V19.4745V19.4743V19.4741V19.474V19.4738V19.4736V19.4734V19.4732V19.473V19.4728V19.4726V19.4724V19.4723V19.4721V19.4719V19.4717V19.4715V19.4713V19.4711V19.4709V19.4707V19.4705V19.4703V19.4702V19.47V19.4698V19.4696V19.4694V19.4692V19.469V19.4688V19.4686V19.4684V19.4682V19.468V19.4678V19.4676V19.4674V19.4672V19.467V19.4669V19.4667V19.4665V19.4663V19.4661V19.4659V19.4657V19.4655V19.4653V19.4651V19.4649V19.4647V19.4645V19.4643V19.4641V19.4639V19.4637V19.4635V19.4633V19.4631V19.4629V19.4627V19.4625V19.4622V19.462V19.4618V19.4616V19.4614V19.4612V19.461V19.4608V19.4606V19.4604V19.4602V19.46V19.4598V19.4596V19.4594V19.4591V19.4589V19.4587V19.4585V19.4583V19.4581V19.4579V19.4577V19.4575V19.4573V19.457V19.4568V19.4566V19.4564V19.4562V19.456V19.4558V19.4555V19.4553V19.4551V19.4549V19.4547V19.4545V19.4542V19.454V19.4538V19.4536V19.4534V19.4532V19.4529V19.4527V19.4525V19.4523V19.452V19.4518V19.4516V19.4514V19.4512V19.4509V19.4507V19.4505V19.4503V19.45V19.4498V19.4496V19.4494V19.4491V19.4489V19.4487V19.4484V19.4482V19.448V19.4478V19.4475V19.4473V19.4471C15.2188 18.5574 15.5183 17.7159 16.0131 17.0375L16.0132 17.0375L16.0186 17.03C16.8057 15.9297 18.0867 15.2188 19.5358 15.2188Z" fill="#E9ECEF" stroke="#E9ECEF" stroke-width="2" stroke-linecap="round" stroke-linejoin="round"/>
<circle cx="10.0625" cy="10.0625" r="2.1875" fill="#F44680"/>
</svg>
