<svg width="16" height="16" viewBox="0 0 16 16" fill="none" xmlns="http://www.w3.org/2000/svg">
<path fill-rule="evenodd" clip-rule="evenodd" d="M2.66675 2.6665H13.3334V4.83317H13.0001L3.00008 4.83317H2.66675V2.6665ZM13.0001 5.83317H13.3334V11.3332C13.3334 12.4377 12.438 13.3332 11.3334 13.3332H4.66675C3.56218 13.3332 2.66675 12.4377 2.66675 11.3332V5.83317H3.00008L13.0001 5.83317ZM5.33341 7.49984C5.05727 7.49984 4.83341 7.72369 4.83341 7.99984C4.83341 8.27598 5.05727 8.49984 5.33341 8.49984H8.00008C8.27622 8.49984 8.50008 8.27598 8.50008 7.99984C8.50008 7.72369 8.27622 7.49984 8.00008 7.49984H5.33341Z" fill="#6C757D"/>
<path d="M10.6667 2V3.33333" stroke="white" stroke-linecap="round" stroke-linejoin="round"/>
<path d="M5.33325 2V3.33333" stroke="white" stroke-linecap="round" stroke-linejoin="round"/>
</svg>