<svg width="18" height="16" viewBox="0 0 18 16" fill="none" xmlns="http://www.w3.org/2000/svg">
<path d="M8.19557 14.248L8.19471 14.2472C6.0368 12.2904 4.29439 10.709 3.08422 9.2295C1.88094 7.75838 1.26666 6.46124 1.26666 5.08333C1.26666 2.84804 3.0147 1.1 5.25 1.1C6.51833 1.1 7.74501 1.69336 8.54319 2.63067L9 3.16711L9.45681 2.63067C10.255 1.69336 11.4817 1.1 12.75 1.1C14.9853 1.1 16.7333 2.84804 16.7333 5.08333C16.7333 6.46125 16.1191 7.75842 14.9156 9.2307C13.7055 10.7113 11.9633 12.2945 9.80556 14.2553C9.80544 14.2554 9.80533 14.2555 9.80522 14.2556L9.80481 14.256L9.00153 14.9817L8.19557 14.248Z" stroke="#ADB5BD" stroke-width="1.2"/>
</svg>
