<svg width="24" height="24" viewBox="0 0 24 24" fill="none" xmlns="http://www.w3.org/2000/svg">
<g clip-path="url(#clip0_6109_21512)">
<g clip-path="url(#clip1_6109_21512)">
<path d="M4 4H20V18C20 19.1046 19.1046 20 18 20H6C4.89543 20 4 19.1046 4 18V4Z" stroke="#6C757D" stroke-width="2" stroke-linecap="round" stroke-linejoin="round"/>
<path d="M4 8H20" stroke="#6C757D" stroke-width="2" stroke-linecap="round" stroke-linejoin="round"/>
<path d="M16 3V5" stroke="#6C757D" stroke-width="2" stroke-linecap="round" stroke-linejoin="round"/>
<path d="M8 3V5" stroke="#6C757D" stroke-width="2" stroke-linecap="round" stroke-linejoin="round"/>
<path d="M7.2002 12.0996C7.2002 11.5473 7.64791 11.0996 8.2002 11.0996H8.4502C9.00248 11.0996 9.4502 11.5473 9.4502 12.0996V12.3496C9.4502 12.9019 9.00248 13.3496 8.4502 13.3496H8.2002C7.64791 13.3496 7.2002 12.9019 7.2002 12.3496V12.0996Z" fill="#6C757D"/>
<path d="M10.8252 12.0996C10.8252 11.5473 11.2729 11.0996 11.8252 11.0996H12.0752C12.6275 11.0996 13.0752 11.5473 13.0752 12.0996V12.3496C13.0752 12.9019 12.6275 13.3496 12.0752 13.3496H11.8252C11.2729 13.3496 10.8252 12.9019 10.8252 12.3496V12.0996Z" fill="#6C757D"/>
<path d="M14.5502 12.0996C14.5502 11.5473 14.9979 11.0996 15.5502 11.0996H15.8002C16.3525 11.0996 16.8002 11.5473 16.8002 12.0996V12.3496C16.8002 12.9019 16.3525 13.3496 15.8002 13.3496H15.5502C14.9979 13.3496 14.5502 12.9019 14.5502 12.3496V12.0996Z" fill="#6C757D"/>
<path d="M7.2002 15.5996C7.2002 15.0473 7.64791 14.5996 8.2002 14.5996H8.4502C9.00248 14.5996 9.4502 15.0473 9.4502 15.5996V15.8496C9.4502 16.4019 9.00248 16.8496 8.4502 16.8496H8.2002C7.64791 16.8496 7.2002 16.4019 7.2002 15.8496V15.5996Z" fill="#6C757D"/>
<path d="M10.8252 15.5996C10.8252 15.0473 11.2729 14.5996 11.8252 14.5996H12.0752C12.6275 14.5996 13.0752 15.0473 13.0752 15.5996V15.8496C13.0752 16.4019 12.6275 16.8496 12.0752 16.8496H11.8252C11.2729 16.8496 10.8252 16.4019 10.8252 15.8496V15.5996Z" fill="#6C757D"/>
<path d="M14.5498 15.5996C14.5498 15.0473 14.9975 14.5996 15.5498 14.5996H15.7998C16.3521 14.5996 16.7998 15.0473 16.7998 15.5996V15.8496C16.7998 16.4019 16.3521 16.8496 15.7998 16.8496H15.5498C14.9975 16.8496 14.5498 16.4019 14.5498 15.8496V15.5996Z" fill="#6C757D"/>
</g>
</g>
<defs>
<clipPath id="clip0_6109_21512">
<rect width="24" height="24" fill="white"/>
</clipPath>
<clipPath id="clip1_6109_21512">
<rect width="24" height="24" fill="white"/>
</clipPath>
</defs>
</svg>
