<svg width="25" height="24" viewBox="0 0 25 24" fill="none" xmlns="http://www.w3.org/2000/svg">
<g clip-path="url(#clip0_1127_10245)">
<path fill-rule="evenodd" clip-rule="evenodd" d="M4.12029 12C4.12029 9.87827 4.96115 7.84344 6.45791 6.34315C7.95466 4.84285 9.9847 4 12.1014 4C17.4558 4 20.5265 8.445 20.0886 12.39C19.9688 13.476 19.6516 14.113 19.3702 14.485C19.0899 14.858 18.8006 15.025 18.639 15.105C17.8878 15.482 17.5086 15.317 17.359 15.198C17.1695 15.048 16.9879 14.695 17.0757 14.164L17.0817 14.132L17.5835 9.1C17.6065 8.87135 17.5503 8.6417 17.4243 8.44971C17.2983 8.25772 17.1101 8.1151 16.8915 8.04585C16.6729 7.9766 16.4371 7.98494 16.2239 8.06948C16.0107 8.15401 15.8331 8.30958 15.7209 8.51C15.2532 8.03112 14.6948 7.65082 14.0783 7.3915C13.4619 7.13218 12.7999 6.99907 12.1314 7C9.38684 7 7.11321 9.229 7.11321 12C7.11321 14.774 9.39582 17 12.1393 17C13.3485 17 14.4838 16.564 15.3687 15.824C15.5433 16.184 15.7927 16.506 16.1199 16.766C17.0348 17.492 18.2868 17.518 19.5319 16.894C19.8681 16.726 20.4397 16.384 20.9625 15.691C21.4853 14.997 21.9162 14.009 22.0719 12.611C22.6325 7.554 18.7188 2 12.1014 2C6.59145 2 2.125 6.477 2.125 12C2.125 17.523 6.59145 22 12.1014 22C13.64 22.002 15.158 21.646 16.5359 20.96C16.7709 20.8408 16.9493 20.6333 17.0322 20.3828C17.1152 20.1324 17.096 19.8591 16.9788 19.6228C16.8616 19.3864 16.656 19.2061 16.4067 19.1211C16.1574 19.0361 15.8847 19.0533 15.648 19.169C14.4311 19.7741 13.0801 20.0578 11.7232 19.9933C10.3662 19.9287 9.04813 19.5181 7.89377 18.8002C6.73941 18.0823 5.78696 17.081 5.12662 15.891C4.46628 14.701 4.1199 13.3617 4.12029 12ZM9.1085 12C9.1085 10.353 10.4693 9 12.1314 9C14.0468 9 15.4874 10.767 15.0983 12.62C14.808 13.998 13.563 15 12.1393 15C10.4733 15 9.1085 13.645 9.1085 12Z" fill="#6C757D"/>
</g>
<defs>
<clipPath id="clip0_1127_10245">
<rect width="24" height="24" fill="white" transform="translate(0.125)"/>
</clipPath>
</defs>
</svg>
