<svg width="25" height="25" viewBox="0 0 25 25" fill="none" xmlns="http://www.w3.org/2000/svg">
<g clip-path="url(#clip0_3172_44048)">
<path d="M12.5 20.5L15.5 22.5V14.9584C14.9488 14.9828 14.4277 15.2345 14.0653 15.6604L14.0232 15.7099C13.2246 16.6484 11.7754 16.6484 10.9768 15.7099L10.9347 15.6604C10.5723 15.2345 10.0512 14.9828 9.5 14.9584V22.5L12.5 20.5Z" fill="#D38C00"/>
<path d="M15.5 22.5L14.9453 23.3321C15.2522 23.5366 15.6467 23.5557 15.9719 23.3817C16.297 23.2077 16.5 22.8688 16.5 22.5H15.5ZM12.5 20.5L13.0547 19.668C12.7188 19.444 12.2812 19.444 11.9453 19.668L12.5 20.5ZM9.5 22.5H8.5C8.5 22.8688 8.70298 23.2077 9.02814 23.3817C9.3533 23.5557 9.74784 23.5366 10.0547 23.3321L9.5 22.5ZM14.0653 15.6604L13.3037 15.0123L13.3037 15.0123L14.0653 15.6604ZM14.0232 15.7099L14.7848 16.3579L14.7848 16.3579L14.0232 15.7099ZM10.9768 15.7099L10.2152 16.3579L10.2152 16.3579L10.9768 15.7099ZM10.9347 15.6604L11.6963 15.0123L11.6963 15.0123L10.9347 15.6604ZM9.5 14.9584L9.5442 13.9594L8.5 13.9132V14.9584H9.5ZM15.5 14.9584H16.5V13.9132L15.4558 13.9594L15.5 14.9584ZM16.0547 21.668L13.0547 19.668L11.9453 21.3321L14.9453 23.3321L16.0547 21.668ZM11.9453 19.668L8.9453 21.668L10.0547 23.3321L13.0547 21.3321L11.9453 19.668ZM13.3037 15.0123L13.2616 15.0618L14.7848 16.3579L14.8269 16.3084L13.3037 15.0123ZM11.7384 15.0618L11.6963 15.0123L10.173 16.3084L10.2152 16.3579L11.7384 15.0618ZM13.2616 15.0618C12.8623 15.5311 12.1377 15.5311 11.7384 15.0618L10.2152 16.3579C11.4131 17.7657 13.5869 17.7657 14.7848 16.3579L13.2616 15.0618ZM11.6963 15.0123C11.1527 14.3735 10.371 13.9959 9.5442 13.9594L9.4558 15.9574C9.73135 15.9696 9.99194 16.0955 10.1731 16.3084L11.6963 15.0123ZM10.5 22.5V14.9584H8.5V22.5H10.5ZM15.4558 13.9594C14.629 13.9959 13.8473 14.3735 13.3037 15.0123L14.8269 16.3084C15.0081 16.0955 15.2686 15.9696 15.5442 15.9574L15.4558 13.9594ZM14.5 14.9584V22.5H16.5V14.9584H14.5Z" fill="#D38C00"/>
<path d="M10.977 3.2901C11.7756 2.35154 13.2248 2.35154 14.0234 3.2901L14.0655 3.33961C14.4821 3.82919 15.1086 4.08869 15.7494 4.03707L15.8142 4.03185C17.0425 3.93289 18.0673 4.95764 17.9683 6.186L17.9631 6.2508C17.9115 6.89154 18.171 7.51804 18.6605 7.93461L18.7101 7.97674C19.6486 8.77535 19.6486 10.2246 18.7101 11.0232L18.6605 11.0653C18.171 11.4819 17.9115 12.1084 17.9631 12.7491L17.9683 12.8139C18.0673 14.0423 17.0425 15.067 15.8142 14.9681L15.7494 14.9628C15.6659 14.9561 15.5827 14.9547 15.5002 14.9583C14.949 14.9827 14.4279 15.2345 14.0655 15.6603L14.0234 15.7098C13.2248 16.6484 11.7756 16.6484 10.977 15.7098L10.9349 15.6603C10.5725 15.2345 10.0514 14.9827 9.5002 14.9583C9.41768 14.9547 9.33448 14.9561 9.25104 14.9628L9.18624 14.9681C7.95788 15.067 6.93313 14.0423 7.0321 12.8139L7.03732 12.7491C7.08894 12.1084 6.82943 11.4819 6.33986 11.0653L6.29034 11.0232C5.35179 10.2246 5.35179 8.77535 6.29035 7.97674L6.33986 7.93461C6.82943 7.51804 7.08894 6.89154 7.03732 6.2508L7.0321 6.186C6.93313 4.95763 7.95788 3.93289 9.18624 4.03185L9.25104 4.03707C9.89178 4.08869 10.5183 3.82919 10.9349 3.33961L10.977 3.2901Z" fill="#FFB800"/>
<path d="M9.25104 4.03707L9.17074 5.03384L9.25104 4.03707ZM10.9349 3.33961L10.1733 2.69157L10.1733 2.69157L10.9349 3.33961ZM7.0321 6.186L6.03533 6.2663L7.0321 6.186ZM9.18624 4.03185L9.26655 3.03508L9.18624 4.03185ZM6.33986 7.93461L6.98789 8.69622L6.9879 8.69622L6.33986 7.93461ZM7.03732 6.2508L8.03409 6.17049L7.03732 6.2508ZM6.29034 11.0232L5.6423 11.7848L5.64231 11.7848L6.29034 11.0232ZM6.29035 7.97674L5.64231 7.21513L5.64231 7.21514L6.29035 7.97674ZM7.03732 12.7491L6.04055 12.6688L6.04055 12.6688L7.03732 12.7491ZM6.33986 11.0653L6.9879 10.3037L6.98789 10.3037L6.33986 11.0653ZM9.18624 14.9681L9.26655 15.9648H9.26655L9.18624 14.9681ZM7.0321 12.8139L8.02887 12.8942L8.02887 12.8942L7.0321 12.8139ZM10.9349 15.6603L11.6965 15.0123L11.6965 15.0123L10.9349 15.6603ZM9.25104 14.9628L9.17074 13.9661H9.17074L9.25104 14.9628ZM14.0234 15.7098L14.785 16.3578L14.785 16.3578L14.0234 15.7098ZM10.977 15.7098L10.2154 16.3578L10.2154 16.3578L10.977 15.7098ZM15.7494 14.9628L15.8297 13.9661L15.8297 13.9661L15.7494 14.9628ZM14.0655 15.6603L13.3039 15.0123L13.3039 15.0123L14.0655 15.6603ZM17.9683 12.8139L18.9651 12.7336L18.9651 12.7336L17.9683 12.8139ZM15.8142 14.9681L15.7338 15.9648L15.7338 15.9648L15.8142 14.9681ZM18.6605 11.0653L19.3086 11.8269L19.3086 11.8269L18.6605 11.0653ZM17.9631 12.7491L16.9663 12.8294L16.9663 12.8294L17.9631 12.7491ZM18.7101 7.97674L19.3581 7.21514L19.3581 7.21514L18.7101 7.97674ZM18.7101 11.0232L18.062 10.2616L18.062 10.2616L18.7101 11.0232ZM17.9631 6.2508L16.9663 6.17049V6.17049L17.9631 6.2508ZM18.6605 7.93461L18.0125 8.69622L18.0125 8.69622L18.6605 7.93461ZM15.8142 4.03185L15.7339 3.03508L15.7339 3.03508L15.8142 4.03185ZM17.9683 6.186L18.9651 6.2663V6.2663L17.9683 6.186ZM14.0655 3.33961L14.8271 2.69157L14.8271 2.69157L14.0655 3.33961ZM15.7494 4.03707L15.8297 5.03384H15.8297L15.7494 4.03707ZM14.0234 3.2901L13.2618 3.93814L13.2618 3.93815L14.0234 3.2901ZM10.977 3.2901L11.7386 3.93814L11.7386 3.93814L10.977 3.2901ZM9.5002 14.9583L9.54439 13.9593L9.5002 14.9583ZM15.5002 14.9583L15.5444 15.9573L15.5002 14.9583ZM13.2618 3.93815L13.3039 3.98766L14.8271 2.69157L14.785 2.64206L13.2618 3.93815ZM15.8297 5.03384L15.8945 5.02862L15.7339 3.03508L15.6691 3.0403L15.8297 5.03384ZM16.9715 6.10569L16.9663 6.17049L18.9599 6.3311L18.9651 6.2663L16.9715 6.10569ZM18.0125 8.69622L18.062 8.73835L19.3581 7.21514L19.3086 7.17301L18.0125 8.69622ZM18.062 10.2616L18.0125 10.3037L19.3086 11.8269L19.3581 11.7848L18.062 10.2616ZM16.9663 12.8294L16.9715 12.8942L18.9651 12.7336L18.9599 12.6688L16.9663 12.8294ZM15.8945 13.9713L15.8297 13.9661L15.6691 15.9596L15.7338 15.9648L15.8945 13.9713ZM13.3039 15.0123L13.2618 15.0618L14.785 16.3578L14.8271 16.3083L13.3039 15.0123ZM11.7386 15.0618L11.6965 15.0123L10.1732 16.3083L10.2154 16.3578L11.7386 15.0618ZM9.17074 13.9661L9.10594 13.9713L9.26655 15.9648L9.33134 15.9596L9.17074 13.9661ZM8.02887 12.8942L8.03409 12.8294L6.04055 12.6688L6.03533 12.7336L8.02887 12.8942ZM6.98789 10.3037L6.93838 10.2616L5.64231 11.7848L5.69182 11.8269L6.98789 10.3037ZM6.93838 8.73835L6.98789 8.69622L5.69182 7.17301L5.64231 7.21513L6.93838 8.73835ZM8.03409 6.17049L8.02887 6.10569L6.03533 6.2663L6.04055 6.3311L8.03409 6.17049ZM9.10594 5.02862L9.17074 5.03384L9.33134 3.0403L9.26655 3.03508L9.10594 5.02862ZM11.6965 3.98765L11.7386 3.93814L10.2154 2.64206L10.1733 2.69157L11.6965 3.98765ZM9.17074 5.03384C10.1319 5.11127 11.0716 4.72201 11.6965 3.98765L10.1733 2.69157C9.96497 2.93636 9.65172 3.06611 9.33134 3.0403L9.17074 5.03384ZM8.02887 6.10569C7.97939 5.49151 8.49176 4.97914 9.10594 5.02862L9.26655 3.03508C7.424 2.88664 5.88688 4.42376 6.03533 6.2663L8.02887 6.10569ZM6.9879 8.69622C7.72226 8.07136 8.11152 7.13161 8.03409 6.17049L6.04055 6.3311C6.06636 6.65147 5.9366 6.96472 5.69182 7.17301L6.9879 8.69622ZM6.93839 10.2616C6.46911 9.86226 6.46911 9.13765 6.93839 8.73835L5.64231 7.21514C4.23447 8.41305 4.23446 10.5869 5.6423 11.7848L6.93839 10.2616ZM8.03409 12.8294C8.11152 11.8683 7.72226 10.9285 6.9879 10.3037L5.69182 11.8269C5.9366 12.0352 6.06636 12.3484 6.04055 12.6688L8.03409 12.8294ZM9.10594 13.9713C8.49176 14.0208 7.97939 13.5084 8.02887 12.8942L6.03533 12.7336C5.88688 14.5761 7.424 16.1133 9.26655 15.9648L9.10594 13.9713ZM13.2618 15.0618C12.8625 15.531 12.1379 15.531 11.7386 15.0618L10.2154 16.3578C11.4133 17.7657 13.5871 17.7657 14.785 16.3578L13.2618 15.0618ZM16.9715 12.8942C17.021 13.5084 16.5086 14.0208 15.8945 13.9713L15.7338 15.9648C17.5764 16.1133 19.1135 14.5762 18.9651 12.7336L16.9715 12.8942ZM18.0125 10.3037C17.2781 10.9285 16.8889 11.8683 16.9663 12.8294L18.9599 12.6688C18.934 12.3484 19.0638 12.0352 19.3086 11.8269L18.0125 10.3037ZM18.062 8.73835C18.5313 9.13765 18.5313 9.86226 18.062 10.2616L19.3581 11.7848C20.7659 10.5869 20.7659 8.41305 19.3581 7.21514L18.062 8.73835ZM16.9663 6.17049C16.8889 7.13161 17.2781 8.07136 18.0125 8.69622L19.3086 7.17301C19.0638 6.96472 18.934 6.65147 18.9599 6.3311L16.9663 6.17049ZM15.8945 5.02862C16.5086 4.97914 17.021 5.49151 16.9715 6.1057L18.9651 6.2663C19.1135 4.42376 17.5764 2.88664 15.7339 3.03508L15.8945 5.02862ZM13.3039 3.98765C13.9288 4.72202 14.8685 5.11127 15.8297 5.03384L15.6691 3.0403C15.3487 3.06611 15.0354 2.93636 14.8271 2.69157L13.3039 3.98765ZM14.785 2.64206C13.5871 1.23422 11.4133 1.23422 10.2154 2.64206L11.7386 3.93814C12.1379 3.46886 12.8625 3.46886 13.2618 3.93814L14.785 2.64206ZM11.6965 15.0123C11.1529 14.3735 10.3712 13.9959 9.54439 13.9593L9.456 15.9573C9.73155 15.9695 9.99214 16.0955 10.1733 16.3083L11.6965 15.0123ZM9.54439 13.9593C9.42056 13.9538 9.29578 13.956 9.17074 13.9661L9.33134 15.9596C9.37317 15.9562 9.41479 15.9555 9.456 15.9573L9.54439 13.9593ZM15.8297 13.9661C15.7046 13.956 15.5798 13.9538 15.456 13.9593L15.5444 15.9573C15.5856 15.9555 15.6272 15.9562 15.6691 15.9596L15.8297 13.9661ZM15.456 13.9593C14.6292 13.9959 13.8475 14.3735 13.3039 15.0123L14.8271 16.3083C15.0083 16.0955 15.2688 15.9695 15.5444 15.9573L15.456 13.9593Z" fill="#FFB800"/>
<path d="M14.5 8.5L11.5 11.5L10.5 10.5" stroke="#FFF5D3" stroke-width="2" stroke-linecap="round" stroke-linejoin="round"/>
</g>
<defs>
<clipPath id="clip0_3172_44048">
<rect width="24" height="24" fill="white" transform="translate(0.5 0.5)"/>
</clipPath>
</defs>
</svg>