<svg width="24" height="24" viewBox="0 0 24 24" fill="none" xmlns="http://www.w3.org/2000/svg">
<path d="M7.58369 7C2.22896 7.19091 1.36878 11.3669 1.60769 13.4315C0.651508 15.1469 0.943326 15.5751 1.66005 16.2896C5.24587 19.6251 11.9381 19.3867 15.0455 18.196C18.2964 16.8618 19.9541 14.35 20.1128 13C22.9819 11.0942 23.0397 7.87327 22.6415 7C22.2161 7.71455 20.9893 8.23927 20.1133 8.63636C19.1571 8.82727 17.7815 8.11164 17.3833 7.47618C17.1095 8.90909 17.3833 10 18.1001 10.5733C19.3481 11.5262 18.7137 12.4889 18.4748 12.7273C17.4406 13.7582 15.4715 13.2673 14.5148 11.764C11.9381 7.71455 9.17642 7 7.58369 7Z" fill="#787DFC"/>
<path d="M4.81818 13.0455C5.11943 13.0455 5.36364 12.557 5.36364 11.9545C5.36364 11.3521 5.11943 10.8636 4.81818 10.8636C4.51694 10.8636 4.27273 11.3521 4.27273 11.9545C4.27273 12.557 4.51694 13.0455 4.81818 13.0455Z" fill="black"/>
</svg>