<svg width="20" height="20" viewBox="0 0 20 20" fill="none" xmlns="http://www.w3.org/2000/svg">
<circle cx="10" cy="10" r="10" fill="#CED4DA"/>
<path fill-rule="evenodd" clip-rule="evenodd" d="M14.2046 7.20711C14.5952 6.81658 14.5952 6.18342 14.2046 5.79289C13.8141 5.40237 13.1809 5.40237 12.7904 5.79289L9.99876 8.58455L7.20711 5.79289C6.81658 5.40237 6.18342 5.40237 5.79289 5.79289C5.40237 6.18342 5.40237 6.81658 5.79289 7.20711L8.58455 9.99876L5.79289 12.7904C5.40237 13.1809 5.40237 13.8141 5.79289 14.2046C6.18342 14.5952 6.81658 14.5952 7.20711 14.2046L9.99876 11.413L12.7904 14.2046C13.1809 14.5952 13.8141 14.5952 14.2046 14.2046C14.5952 13.8141 14.5952 13.1809 14.2046 12.7904L11.413 9.99876L14.2046 7.20711Z" fill="white"/>
</svg>
