<svg width="20" height="20" viewBox="0 0 20 20" fill="none" xmlns="http://www.w3.org/2000/svg">
<path d="M3.18042 13.9415C3.20801 13.807 3.18869 13.6672 3.12567 13.5453C2.57693 12.4838 2.26675 11.2787 2.26675 9.99935C2.26675 5.72835 5.72908 2.26602 10.0001 2.26602C14.2711 2.26602 17.7334 5.72835 17.7334 9.99935C17.7334 14.2704 14.2711 17.7327 10.0001 17.7327C8.72075 17.7327 7.51563 17.4225 6.45413 16.8738C6.33222 16.8107 6.1924 16.7914 6.05798 16.819L2.43741 17.562L3.18042 13.9415Z" stroke="#6C757D" stroke-width="1.2" stroke-linecap="round" stroke-linejoin="round"/>
<rect x="6.25" y="10" width="0.00833333" height="0.00833333" stroke="#6C757D" stroke-width="2" stroke-linejoin="round"/>
<rect x="10" y="10" width="0.00833333" height="0.00833333" stroke="#6C757D" stroke-width="2" stroke-linejoin="round"/>
<rect x="13.75" y="10" width="0.00833333" height="0.00833333" stroke="#6C757D" stroke-width="2" stroke-linejoin="round"/>
</svg>
