<svg width="201" height="120" viewBox="0 0 201 120" fill="none" xmlns="http://www.w3.org/2000/svg">
<g clip-path="url(#clip0_2733_63244)">
<g clip-path="url(#clip1_2733_63244)">
<path d="M144.853 15.3105C144.657 15.5901 144.681 16.3142 145.304 16.6847C145.317 16.6948 145.334 16.6982 145.351 16.7083C145.381 16.6477 145.411 16.5871 145.442 16.5264C145.475 16.4523 145.563 16.422 145.637 16.4557C145.711 16.4894 145.741 16.577 145.708 16.6511C145.681 16.7083 145.654 16.7588 145.627 16.8161C146.266 16.971 146.943 16.5567 147.178 16.1054C146.351 16.1122 145.529 15.836 144.856 15.3139L144.853 15.3105Z" fill="#EAAF44"/>
<path d="M143.766 13.9998C144.042 14.532 144.415 14.9732 144.853 15.31C145.526 15.8321 146.347 16.1083 147.175 16.1015C147.7 16.0982 148.229 15.9803 148.727 15.7378C150.955 14.6566 152.143 12.0564 150.285 9.98505C149.043 8.60076 147.094 8.33805 145.324 9.25417C143.756 10.0659 142.796 12.1204 143.766 13.9965V13.9998Z" fill="#DE959E"/>
<path d="M147.189 13.2441C147.131 13.3923 146.909 13.4462 146.694 13.3619C146.478 13.2777 146.35 13.0891 146.411 12.9409C146.468 12.7927 146.69 12.7388 146.906 12.8231C147.121 12.9073 147.249 13.0959 147.189 13.2441Z" fill="#FDF9F5"/>
<path d="M145.93 11.2745C145.994 11.0724 146.27 10.9815 146.549 11.0724C146.828 11.16 147 11.3957 146.936 11.5945C146.872 11.7932 146.596 11.8875 146.317 11.7965C146.037 11.709 145.866 11.4732 145.93 11.2745Z" fill="#FDF9F5"/>
<path d="M146.054 13.9257C146.132 13.7303 146.435 13.6697 146.737 13.7842C147.04 13.9021 147.222 14.1547 147.145 14.3501C147.067 14.5454 146.764 14.606 146.461 14.4915C146.159 14.3736 145.977 14.121 146.054 13.9257Z" fill="#FDF9F5"/>
<path d="M144.644 13.2105C144.701 13.0623 144.923 13.0084 145.139 13.0926C145.354 13.1768 145.482 13.3654 145.421 13.5136C145.364 13.6618 145.142 13.7157 144.927 13.6315C144.711 13.5473 144.583 13.3587 144.644 13.2105Z" fill="#FDF9F5"/>
<path d="M145.637 16.4546C145.563 16.4209 145.475 16.4546 145.442 16.5253C145.411 16.5893 145.381 16.6465 145.351 16.7072C144.422 18.5798 143.17 19.7014 141.218 21.0722C141.15 21.1194 141.137 21.2103 141.181 21.2777C141.218 21.3282 141.282 21.3518 141.339 21.3349C141.356 21.3316 141.372 21.3248 141.386 21.3147C143.389 19.9102 144.671 18.7617 145.627 16.8183C145.654 16.7644 145.681 16.7105 145.708 16.6533C145.741 16.5792 145.708 16.4916 145.637 16.4579V16.4546Z" fill="#EAAF44"/>
<path d="M155.024 45.1349L154.964 45.0811C155.058 44.98 155.401 44.7476 155.448 44.7139C155.596 44.6163 155.748 44.5287 155.899 44.4411C156.098 44.3232 156.303 44.2053 156.495 44.0673L156.653 43.9494C157.01 43.6867 157.38 43.4172 157.751 43.168L157.794 43.2353C157.424 43.4846 157.057 43.754 156.7 44.0167L156.542 44.1312C156.347 44.2727 156.138 44.394 155.94 44.5118C155.792 44.5994 155.64 44.687 155.492 44.7813C155.415 44.8352 155.102 45.0507 155.021 45.1349H155.024Z" fill="#58CC02"/>
<path d="M157.606 43.2677C157.731 43.042 158.013 42.5637 158.333 42.6412C158.488 42.6783 158.501 42.8332 158.434 42.9578C158.353 43.0993 158.182 43.1633 158.033 43.2104C157.879 43.2609 157.717 43.3014 157.562 43.3451L157.606 43.2677Z" fill="#58CC02"/>
<path d="M155.038 45.0059C155.038 44.696 155.055 44.2346 155.119 43.7934C155.139 43.6519 155.149 43.5037 155.156 43.3656C155.166 43.2006 155.176 43.0254 155.206 42.857C155.22 42.7863 155.226 42.7021 155.236 42.6112C155.253 42.4225 155.273 42.207 155.341 42.0723L155.411 42.1093C155.351 42.2306 155.334 42.436 155.317 42.6179C155.307 42.7122 155.3 42.7998 155.287 42.8705C155.26 43.0389 155.25 43.2073 155.24 43.3724C155.23 43.5138 155.22 43.662 155.199 43.8068C155.135 44.2413 155.122 44.7028 155.119 45.0059H155.038Z" fill="#58CC02"/>
<path d="M155.408 41.1967C155.583 41.0788 155.748 41.19 155.755 41.3887C155.755 41.5605 155.637 41.7053 155.553 41.8434C155.465 41.9949 155.415 42.1734 155.31 42.3149C155.31 42.3149 155.065 41.4325 155.408 41.1967Z" fill="#58CC02"/>
<path d="M155.041 44.9893C155.115 44.8647 155.193 44.74 155.27 44.6188C155.374 44.4504 155.482 44.2786 155.58 44.1068C155.637 44.0092 155.687 43.9048 155.741 43.8037C155.809 43.6724 155.879 43.5343 155.957 43.4029C155.984 43.3625 156.041 43.2412 156.095 43.12C156.196 42.9044 156.226 42.8371 156.25 42.8135C156.26 42.8034 156.303 42.8741 156.303 42.8741C156.287 42.891 156.219 43.0425 156.165 43.157C156.105 43.285 156.051 43.4029 156.024 43.4467C155.947 43.5747 155.876 43.7128 155.809 43.8408C155.758 43.9418 155.704 44.0462 155.647 44.1473C155.546 44.3224 155.438 44.4975 155.334 44.6626C155.257 44.7838 155.183 44.9085 155.105 45.0331L155.034 44.9927L155.041 44.9893Z" fill="#58CC02"/>
<path d="M156.175 43.0062C156.172 42.7334 156.26 42.2653 156.539 42.1305C156.674 42.0665 156.785 42.1406 156.785 42.2888C156.785 42.4404 156.663 42.5515 156.559 42.6459C156.435 42.7637 156.313 42.8884 156.196 43.0062H156.179H156.175Z" fill="#58CC02"/>
<path d="M155.061 45.0335C155.021 44.9392 154.967 44.8584 154.913 44.7675C154.89 44.7338 154.863 44.6934 154.842 44.6563C154.678 44.3835 154.506 44.0736 154.317 43.7166C154.24 43.5684 154.176 43.4101 154.115 43.2552C154.031 43.0497 153.947 42.8409 153.829 42.659L153.897 42.6152C154.018 42.8038 154.105 43.0194 154.189 43.2249C154.25 43.3764 154.314 43.5347 154.388 43.6762C154.58 44.0332 154.748 44.3431 154.913 44.6125C154.937 44.6496 154.957 44.6866 154.98 44.7237C155.038 44.8112 155.092 44.8988 155.135 44.9999L155.061 45.0302V45.0335Z" fill="#58CC02"/>
<path d="M153.951 42.8397C153.833 42.6376 153.425 42.1998 153.51 41.9539C153.563 41.7956 153.749 41.836 153.846 41.9337C153.957 42.0482 153.944 42.2233 153.961 42.3715C153.977 42.5433 154.008 42.7084 153.991 42.8768L153.951 42.8397Z" fill="#58CC02"/>
<path d="M152.456 44.5386L152.463 44.5049L152.453 44.4611C152.453 44.4611 152.466 44.4577 152.54 44.4813C152.584 44.4948 152.641 44.5184 152.672 44.5251C152.789 44.5554 152.911 44.5689 153.028 44.5824L153.086 44.5891C153.23 44.6093 153.372 44.6362 153.51 44.6598C153.638 44.6834 153.772 44.707 153.904 44.7238C154.297 44.7777 154.647 44.8552 155.041 44.9764L155.018 45.0539C154.631 44.936 154.281 44.8585 153.893 44.8047C153.759 44.7878 153.624 44.7609 153.496 44.7407C153.358 44.7137 153.214 44.6901 153.076 44.6699L153.018 44.6632C152.897 44.6463 152.773 44.6295 152.655 44.5992C152.621 44.5925 152.564 44.5723 152.517 44.5554C152.487 44.5453 152.463 44.5352 152.456 44.5352V44.5386Z" fill="#58CC02"/>
<path d="M152.628 44.5513C152.486 44.4199 152.21 44.1909 152.005 44.2582C151.884 44.2986 151.84 44.43 151.924 44.5277C152.009 44.6254 152.16 44.6186 152.274 44.6152C152.412 44.6152 152.547 44.5984 152.682 44.5816L152.631 44.5513H152.628Z" fill="#58CC02"/>
<path d="M152.517 45.8556L152.524 45.7748C152.641 45.7849 152.796 45.7411 152.921 45.7007L153.045 45.667C153.288 45.5963 153.537 45.5289 153.779 45.4548C154.062 45.3706 154.321 45.2629 154.58 45.1483C154.681 45.1046 154.792 45.0742 154.893 45.0473L154.913 45.0406C154.937 45.0338 154.967 45.0305 154.991 45.0203C155.045 45.0102 155.098 44.9968 155.139 44.9766L155.176 45.0473C155.125 45.0742 155.065 45.0877 155.008 45.1012C154.984 45.1079 154.957 45.1113 154.933 45.118L154.91 45.1248C154.806 45.1551 154.708 45.182 154.61 45.2258C154.348 45.3403 154.085 45.4481 153.799 45.5357C153.557 45.6098 153.308 45.6805 153.065 45.7479L152.944 45.7849C152.81 45.822 152.645 45.8725 152.513 45.859L152.517 45.8556Z" fill="#58CC02"/>
<path d="M152.998 45.7344C152.907 45.8153 152.81 45.886 152.705 45.9466C152.611 46.0005 152.497 46.0679 152.382 46.0645C152.288 46.0645 152.204 45.9971 152.251 45.8961C152.359 45.6738 152.759 45.7109 152.964 45.7075L152.998 45.7344Z" fill="#58CC02"/>
<path d="M153.56 46.6392L153.496 46.5887C153.621 46.4405 153.762 46.2889 153.897 46.1474C154.011 46.0262 154.126 45.9049 154.233 45.777C154.281 45.7264 154.331 45.6624 154.382 45.5984C154.577 45.3593 154.819 45.0629 155.031 44.9922L155.058 45.0697C154.866 45.137 154.634 45.4199 154.442 45.6523C154.388 45.7197 154.338 45.7803 154.291 45.8308C154.18 45.9588 154.065 46.0835 153.951 46.2013C153.816 46.3462 153.678 46.491 153.554 46.6392H153.56Z" fill="#58CC02"/>
<path d="M153.624 46.4741C153.446 46.5515 152.927 46.8614 153.052 47.1207C153.197 47.4272 153.503 46.9254 153.56 46.8041C153.607 46.7031 153.634 46.6021 153.634 46.4842L153.624 46.4707V46.4741Z" fill="#58CC02"/>
<path d="M154.041 48.1249C154.102 47.741 154.213 47.3705 154.324 47.0134C154.385 46.808 154.452 46.5958 154.506 46.3802C154.58 46.0872 154.705 45.8077 154.822 45.5382L154.846 45.481C154.866 45.4405 154.893 45.3867 154.92 45.3294C154.974 45.2182 155.044 45.0802 155.048 45.0195H155.129C155.125 45.1004 155.058 45.2351 154.991 45.3631C154.964 45.417 154.937 45.4675 154.92 45.5113L154.896 45.5685C154.779 45.8346 154.657 46.1108 154.583 46.4005C154.529 46.616 154.462 46.8316 154.398 47.037C154.291 47.3907 154.176 47.7578 154.119 48.135L154.038 48.1249H154.041Z" fill="#58CC02"/>
<path d="M154.102 47.8755C153.951 48.027 153.594 48.5053 153.772 48.7242C154.031 49.0476 154.176 48.4851 154.203 48.3133C154.227 48.1517 154.149 48.0001 154.126 47.8418L154.102 47.8755Z" fill="#58CC02"/>
<path d="M155.499 47.6813C155.482 47.3074 155.415 46.9336 155.351 46.5698C155.317 46.3879 155.287 46.2027 155.26 46.0242C155.213 45.6941 155.132 45.3775 155.058 45.0744L155.135 45.0508L155.095 45.0609L155.135 45.0542C155.213 45.3606 155.29 45.6772 155.337 46.0107C155.364 46.1926 155.398 46.3778 155.428 46.553C155.492 46.9201 155.563 47.2973 155.576 47.6745H155.499V47.6813Z" fill="#58CC02"/>
<path d="M155.502 47.4472C155.405 47.6122 155.324 47.9625 155.459 48.1377C155.543 48.2488 155.66 48.2185 155.728 48.104C155.795 47.9962 155.758 47.8716 155.728 47.7604C155.691 47.6358 155.647 47.5112 155.563 47.4102L155.506 47.4472H155.502Z" fill="#58CC02"/>
<path d="M156.428 47.768C156.327 47.6939 156.256 47.5087 156.192 47.347C156.165 47.283 156.142 47.219 156.122 47.1753C156.071 47.0776 156.021 46.9799 155.974 46.8789C155.866 46.6599 155.755 46.4343 155.637 46.2153C155.58 46.1109 155.523 46.0065 155.455 45.8987C155.29 45.6158 155.119 45.3194 155.041 45.0163L155.119 44.9961C155.196 45.2925 155.364 45.5821 155.526 45.8617C155.59 45.9661 155.65 46.0773 155.708 46.1817C155.825 46.4006 155.937 46.6263 156.044 46.8452C156.095 46.9429 156.142 47.0405 156.192 47.1382C156.216 47.1854 156.24 47.2494 156.27 47.3167C156.327 47.4615 156.398 47.6401 156.482 47.704L156.431 47.768H156.428Z" fill="#58CC02"/>
<path d="M156.731 48.3295C156.448 48.5788 156.3 48.0466 156.266 47.8647C156.243 47.7266 156.266 47.6054 156.293 47.4336C156.428 47.6188 157.003 48.0904 156.731 48.3295Z" fill="#58CC02"/>
<path d="M154.93 45.0574L154.937 44.9766C155.94 45.0608 156.758 45.0776 157.444 45.0305L157.451 45.1113C156.761 45.1584 155.937 45.1416 154.93 45.0574Z" fill="#58CC02"/>
<path d="M157.35 45.0459C157.485 44.9482 158.269 44.6822 158.05 45.0762C157.922 45.3154 157.427 45.1705 157.236 45.0998L157.35 45.0459Z" fill="#58CC02"/>
<path d="M156.502 46.1782C156.475 46.1579 156.448 46.1377 156.421 46.1175L156.239 45.9761C155.849 45.6729 155.448 45.3563 155.044 45.0903L155.088 45.0195C155.495 45.2923 155.896 45.6056 156.29 45.9121L156.468 46.0502C156.63 46.1748 156.811 46.2893 156.993 46.3971C157.242 46.552 157.501 46.7103 157.71 46.9124L157.656 46.9697C157.451 46.7743 157.199 46.6194 156.953 46.4678C156.801 46.3769 156.647 46.2792 156.502 46.1748V46.1782Z" fill="#58CC02"/>
<path d="M157.542 46.7871C157.821 46.8376 158.276 46.8747 158.319 47.2452C158.363 47.5887 157.845 47.2789 157.751 47.1677C157.66 47.0566 157.582 46.9319 157.505 46.8141L157.542 46.7871Z" fill="#58CC02"/>
<path d="M43.615 60.2912L43.5544 60.2373C43.6487 60.1363 43.992 59.9039 44.0391 59.8702C44.1872 59.7725 44.3387 59.6849 44.4901 59.5974C44.6887 59.4795 44.894 59.3616 45.0859 59.2235L45.2441 59.1056C45.6009 58.8429 45.9711 58.5735 46.3414 58.3242L46.3851 58.3916C46.0149 58.6408 45.648 58.9103 45.2912 59.173L45.133 59.2875C44.9378 59.429 44.7291 59.5502 44.5305 59.6681C44.3824 59.7557 44.231 59.8432 44.0829 59.9375C44.0055 59.9914 43.6924 60.207 43.6117 60.2912H43.615Z" fill="#58CC02"/>
<path d="M46.1968 58.4239C46.3214 58.1983 46.6041 57.72 46.9238 57.7975C47.0787 57.8345 47.0921 57.9894 47.0248 58.1141C46.944 58.2555 46.7724 58.3195 46.6243 58.3667C46.4695 58.4172 46.3079 58.4576 46.1531 58.5014L46.1968 58.4239Z" fill="#58CC02"/>
<path d="M43.6287 60.1621C43.6287 59.8523 43.6455 59.3908 43.7094 58.9496C43.7296 58.8082 43.7397 58.66 43.7465 58.5219C43.7566 58.3568 43.7667 58.1817 43.797 58.0133C43.8104 57.9426 43.8171 57.8584 43.8272 57.7674C43.8441 57.5788 43.8643 57.3632 43.9316 57.2285L44.0023 57.2656C43.9417 57.3868 43.9249 57.5923 43.908 57.7742C43.8979 57.8685 43.8912 57.956 43.8777 58.0268C43.8508 58.1952 43.8407 58.3636 43.8306 58.5286C43.8205 58.6701 43.8104 58.8183 43.7902 58.9631C43.7263 59.3976 43.7128 59.859 43.7094 60.1621H43.6287Z" fill="#58CC02"/>
<path d="M43.9989 56.3529C44.174 56.2351 44.3389 56.3462 44.3456 56.5449C44.3456 56.7167 44.2278 56.8615 44.1437 56.9996C44.0561 57.1512 44.0057 57.3297 43.9013 57.4712C43.9013 57.4712 43.6556 56.5887 43.9989 56.3529Z" fill="#58CC02"/>
<path d="M43.632 60.1455C43.706 60.0209 43.7834 59.8963 43.8609 59.775C43.9652 59.6066 44.0729 59.4349 44.1705 59.2631C44.2277 59.1654 44.2782 59.061 44.3321 58.96C44.3994 58.8286 44.4701 58.6905 44.5475 58.5592C44.5744 58.5187 44.6316 58.3975 44.6855 58.2762C44.7865 58.0607 44.8167 57.9933 44.8403 57.9697C44.8504 57.9596 44.8942 58.0304 44.8942 58.0304C44.8773 58.0472 44.81 58.1988 44.7562 58.3133C44.6956 58.4413 44.6417 58.5592 44.6148 58.6029C44.5374 58.7309 44.4667 58.869 44.3994 58.997C44.3489 59.098 44.295 59.2025 44.2378 59.3035C44.1368 59.4786 44.0291 59.6538 43.9248 59.8188C43.8474 59.9401 43.7733 60.0647 43.6959 60.1893L43.6252 60.1489L43.632 60.1455Z" fill="#58CC02"/>
<path d="M44.7662 58.1625C44.7628 57.8897 44.8504 57.4215 45.1297 57.2868C45.2644 57.2228 45.3754 57.2969 45.3754 57.4451C45.3754 57.5966 45.2543 57.7078 45.1499 57.8021C45.0254 57.92 44.9042 58.0446 44.7864 58.1625H44.7696H44.7662Z" fill="#58CC02"/>
<path d="M43.6521 60.1898C43.6117 60.0955 43.5578 60.0146 43.504 59.9237C43.4804 59.89 43.4535 59.8496 43.4333 59.8126C43.2684 59.5397 43.0967 59.2299 42.9082 58.8729C42.8308 58.7247 42.7668 58.5664 42.7063 58.4114C42.6221 58.206 42.538 57.9971 42.4202 57.8153L42.4875 57.7715C42.6087 57.9601 42.6962 58.1757 42.7803 58.3811C42.8409 58.5327 42.9048 58.691 42.9789 58.8324C43.1707 59.1895 43.339 59.4993 43.504 59.7688C43.5275 59.8058 43.5477 59.8429 43.5713 59.8799C43.6285 59.9675 43.6824 60.0551 43.7261 60.1561L43.6521 60.1864V60.1898Z" fill="#58CC02"/>
<path d="M42.5414 57.996C42.4236 57.7939 42.0163 57.356 42.1005 57.1101C42.1543 56.9518 42.3394 56.9923 42.437 57.0899C42.5481 57.2045 42.5347 57.3796 42.5515 57.5278C42.5683 57.6996 42.5986 57.8646 42.5818 58.033L42.5414 57.996Z" fill="#58CC02"/>
<path d="M41.0471 59.6948L41.0538 59.6611L41.0437 59.6174C41.0437 59.6174 41.0572 59.614 41.1312 59.6376C41.175 59.651 41.2322 59.6746 41.2625 59.6813C41.3803 59.7117 41.5015 59.7251 41.6193 59.7386L41.6765 59.7453C41.8212 59.7655 41.9626 59.7925 42.1006 59.8161C42.2285 59.8396 42.3631 59.8632 42.4944 59.8801C42.8882 59.934 43.2382 60.0114 43.632 60.1327L43.6085 60.2101C43.2214 60.0923 42.8713 60.0148 42.4843 59.9609C42.3496 59.9441 42.215 59.9171 42.0871 59.8969C41.9491 59.87 41.8044 59.8464 41.6664 59.8262L41.6092 59.8194C41.488 59.8026 41.3635 59.7858 41.2456 59.7554C41.212 59.7487 41.1548 59.7285 41.1076 59.7117C41.0774 59.7016 41.0538 59.6915 41.0471 59.6915V59.6948Z" fill="#58CC02"/>
<path d="M41.2187 59.7075C41.0773 59.5761 40.8013 59.3471 40.596 59.4145C40.4748 59.4549 40.4311 59.5863 40.5152 59.6839C40.5993 59.7816 40.7508 59.7749 40.8652 59.7715C41.0032 59.7715 41.1379 59.7547 41.2725 59.7378L41.222 59.7075H41.2187Z" fill="#58CC02"/>
<path d="M41.1076 61.0119L41.1143 60.9311C41.2321 60.9412 41.387 60.8974 41.5115 60.857L41.6361 60.8233C41.8784 60.7525 42.1275 60.6852 42.3698 60.6111C42.6525 60.5269 42.9117 60.4191 43.1709 60.3046C43.2718 60.2608 43.3829 60.2305 43.4839 60.2035L43.5041 60.1968C43.5276 60.1901 43.5579 60.1867 43.5815 60.1766C43.6354 60.1665 43.6892 60.153 43.7296 60.1328L43.7666 60.2035C43.7161 60.2305 43.6556 60.244 43.5983 60.2574C43.5748 60.2642 43.5478 60.2675 43.5243 60.2743L43.5007 60.281C43.3964 60.3113 43.2988 60.3383 43.2012 60.382C42.9386 60.4966 42.6761 60.6043 42.39 60.6919C42.1477 60.766 41.8986 60.8367 41.6562 60.9041L41.5351 60.9412C41.4004 60.9782 41.2355 61.0287 41.1042 61.0153L41.1076 61.0119Z" fill="#58CC02"/>
<path d="M41.5888 60.8907C41.498 60.9715 41.4003 61.0422 41.296 61.1029C41.2018 61.1568 41.0873 61.2241 40.9729 61.2208C40.8786 61.2208 40.7945 61.1534 40.8416 61.0523C40.9493 60.8301 41.3499 60.8671 41.5552 60.8637L41.5888 60.8907Z" fill="#58CC02"/>
<path d="M42.1511 61.7954L42.0872 61.7449C42.2117 61.5967 42.3531 61.4452 42.4877 61.3037C42.6021 61.1824 42.7166 61.0612 42.8243 60.9332C42.8714 60.8827 42.9219 60.8187 42.9724 60.7547C43.1676 60.5156 43.4099 60.2192 43.622 60.1484L43.6489 60.2259C43.4571 60.2933 43.2248 60.5762 43.033 60.8086C42.9791 60.876 42.9286 60.9366 42.8815 60.9871C42.7704 61.1151 42.656 61.2397 42.5415 61.3576C42.4069 61.5024 42.2689 61.6472 42.1444 61.7954H42.1511Z" fill="#58CC02"/>
<path d="M42.2148 61.6303C42.0364 61.7078 41.5181 62.0177 41.6426 62.277C41.7874 62.5835 42.0937 62.0816 42.1509 61.9604C42.198 61.8593 42.2249 61.7583 42.2249 61.6404L42.2148 61.627V61.6303Z" fill="#58CC02"/>
<path d="M42.6323 63.2812C42.6929 62.8972 42.8039 62.5267 42.915 62.1697C42.9756 61.9642 43.0429 61.7521 43.0968 61.5365C43.1708 61.2435 43.2953 60.9639 43.4131 60.6945L43.4367 60.6372C43.4569 60.5968 43.4838 60.5429 43.5108 60.4856C43.5646 60.3745 43.6353 60.2364 43.6387 60.1758H43.7194C43.7161 60.2566 43.6488 60.3913 43.5814 60.5193C43.5545 60.5732 43.5276 60.6237 43.5108 60.6675L43.4872 60.7248C43.3694 60.9909 43.2482 61.267 43.1742 61.5567C43.1203 61.7723 43.053 61.9878 42.9891 62.1933C42.8813 62.5469 42.7669 62.914 42.7097 63.2913L42.6289 63.2812H42.6323Z" fill="#58CC02"/>
<path d="M42.6929 63.0317C42.5414 63.1833 42.1846 63.6616 42.363 63.8805C42.6222 64.2038 42.7669 63.6414 42.7938 63.4696C42.8174 63.3079 42.74 63.1563 42.7164 62.998L42.6929 63.0317Z" fill="#58CC02"/>
<path d="M44.0896 62.8375C44.0728 62.4637 44.0055 62.0898 43.9415 61.726C43.9079 61.5442 43.8776 61.3589 43.8506 61.1804C43.8035 60.8503 43.7227 60.5337 43.6487 60.2306L43.7261 60.207L43.6857 60.2171L43.7261 60.2104C43.8035 60.5169 43.8809 60.8335 43.928 61.1669C43.955 61.3488 43.9886 61.5341 44.0189 61.7092C44.0829 62.0763 44.1536 62.4536 44.167 62.8308H44.0896V62.8375Z" fill="#58CC02"/>
<path d="M44.0931 62.6035C43.9955 62.7685 43.9147 63.1188 44.0493 63.2939C44.1335 63.4051 44.2513 63.3748 44.3186 63.2602C44.3859 63.1525 44.3489 63.0278 44.3186 62.9167C44.2816 62.7921 44.2378 62.6674 44.1537 62.5664L44.0965 62.6035H44.0931Z" fill="#58CC02"/>
<path d="M45.0186 62.9243C44.9176 62.8502 44.8469 62.6649 44.783 62.5033C44.756 62.4393 44.7325 62.3753 44.7123 62.3315C44.6618 62.2338 44.6113 62.1362 44.5642 62.0351C44.4565 61.8162 44.3454 61.5905 44.2276 61.3716C44.1704 61.2672 44.1132 61.1628 44.0458 61.055C43.8809 60.7721 43.7093 60.4757 43.6318 60.1726L43.7093 60.1523C43.7867 60.4487 43.955 60.7384 44.1165 61.0179C44.1805 61.1224 44.2411 61.2335 44.2983 61.3379C44.4161 61.5568 44.5272 61.7825 44.6349 62.0014C44.6853 62.0991 44.7325 62.1968 44.783 62.2945C44.8065 62.3416 44.8301 62.4056 44.8604 62.473C44.9176 62.6178 44.9883 62.7963 45.0724 62.8603L45.0219 62.9243H45.0186Z" fill="#58CC02"/>
<path d="M45.3216 63.4858C45.0388 63.735 44.8907 63.2028 44.8571 63.021C44.8335 62.8829 44.8571 62.7616 44.884 62.5898C45.0186 62.7751 45.5942 63.2466 45.3216 63.4858Z" fill="#58CC02"/>
<path d="M43.521 60.2136L43.5277 60.1328C44.5307 60.217 45.3486 60.2339 46.0353 60.1867L46.042 60.2675C45.352 60.3147 44.5274 60.2978 43.521 60.2136Z" fill="#58CC02"/>
<path d="M45.9409 60.2022C46.0755 60.1045 46.8597 59.8384 46.6409 60.2325C46.513 60.4716 46.0183 60.3268 45.8264 60.2561L45.9409 60.2022Z" fill="#58CC02"/>
<path d="M45.0927 61.3344C45.0657 61.3142 45.0388 61.294 45.0119 61.2738L44.8301 61.1323C44.4397 60.8292 44.0392 60.5126 43.6353 60.2465L43.679 60.1758C44.0863 60.4486 44.4868 60.7618 44.8806 61.0683L45.059 61.2064C45.2206 61.331 45.4023 61.4456 45.5841 61.5533C45.8331 61.7083 46.0923 61.8666 46.301 62.0687L46.2471 62.1259C46.0418 61.9306 45.7894 61.7756 45.5437 61.6241C45.3922 61.5331 45.2374 61.4355 45.0927 61.331V61.3344Z" fill="#58CC02"/>
<path d="M46.1327 61.9434C46.4121 61.9939 46.8665 62.0309 46.9102 62.4014C46.954 62.745 46.4357 62.4351 46.3414 62.324C46.2505 62.2128 46.1731 62.0882 46.0957 61.9703L46.1327 61.9434Z" fill="#58CC02"/>
<path d="M148.936 72.6813C149.235 73.9174 147.189 72.4927 146.788 72.3074C146.303 72.6544 145.822 73.008 145.341 73.3617C144.402 73.914 145.196 71.7551 145.267 71.4115C144.93 71.1589 144.361 70.9872 144.176 70.5998C144.2 70.1283 145.388 70.0946 145.762 69.9868C145.997 69.3873 146.287 68.8147 146.59 68.2489C146.643 68.1478 146.701 68.0266 146.822 67.9963C147.108 67.8279 147.616 69.0572 147.522 69.229C147.576 69.3671 147.63 69.5052 147.683 69.6433C148.299 69.5321 148.912 69.4142 149.525 69.2964C150.773 69.2155 148.555 70.9434 148.306 71.1724C148.515 71.6776 148.74 72.1761 148.932 72.688L148.936 72.6813Z" fill="#FF9600"/>
<path d="M175.824 60.8032C178.21 60.7089 174.834 63.9558 174.349 64.6227C174.81 65.6466 175.282 66.6637 175.756 67.6809C176.429 69.6176 172.747 67.3576 172.138 67.1016C171.549 67.6304 171.02 68.6139 170.24 68.8126C169.378 68.5937 169.755 66.3909 169.694 65.6634C168.681 65.01 167.729 64.2656 166.796 63.4977C166.631 63.3596 166.426 63.2114 166.416 62.9757C166.211 62.3896 168.661 61.9012 168.94 62.1336C169.213 62.0865 169.489 62.0393 169.762 61.9888C169.785 60.8133 169.792 59.6379 169.802 58.4658C170.108 56.1317 172.478 60.8571 172.808 61.3994C173.814 61.2007 174.814 60.9716 175.827 60.8032H175.824Z" fill="#FF9600"/>
<path d="M176.394 13.0736C174.304 12.2316 171.827 11.2246 169.565 12.0295C168.572 12.3832 167.714 13.1107 167.488 14.1784C167.252 15.2831 167.613 16.5057 168.232 17.4219C169.508 19.3181 172.008 20.0894 174.122 19.1766C174.583 18.9779 175.162 18.7119 175.401 18.2403C175.664 17.725 175.438 17.1389 175.152 16.6843C174.603 15.8153 173.715 15.2393 172.752 14.9261C170.787 14.2862 168.437 14.8621 167.034 16.3946C165.368 18.2134 165.835 20.8034 166.778 22.858C167.734 24.9428 169.602 26.7886 172.042 26.7279C173.048 26.7044 174.243 26.2968 174.654 25.2898C175.095 24.1985 174.408 23.0702 173.459 22.5346C171.443 21.3962 168.515 21.8913 166.798 23.3531C166.007 24.0267 165.411 24.9462 165.307 25.9937C165.193 27.149 165.687 28.2335 166.418 29.1025C166.801 29.5605 167.242 29.958 167.72 30.315C168.235 30.6989 168.922 29.958 168.4 29.5673C167.044 28.5568 165.681 26.8829 166.606 25.1382C167.458 23.5383 169.467 22.8614 171.18 22.959C172.005 23.0062 173.129 23.2184 173.594 23.9863C174.109 24.8317 173.425 25.4582 172.624 25.6434C170.824 26.0644 169.127 24.8384 168.205 23.3901C167.289 21.9486 166.461 19.7256 167.155 18.045C167.754 16.5967 169.366 15.7513 170.877 15.6839C171.668 15.6502 172.473 15.8119 173.17 16.1959C173.489 16.371 173.786 16.5967 174.031 16.8695C174.226 17.0884 174.647 17.5802 174.428 17.8564C174.2 18.146 173.6 18.3144 173.26 18.4087C172.84 18.5266 172.402 18.5704 171.968 18.5468C171.1 18.4963 170.282 18.1393 169.649 17.5499C168.956 16.9032 168.481 15.9871 168.427 15.0305C168.37 14.0066 168.972 13.2959 169.918 12.976C171.897 12.3091 174.095 13.2353 175.919 13.9696C176.519 14.2087 176.99 13.3161 176.387 13.0736H176.394Z" fill="#8481EF"/>
<path d="M128.071 77.1089C130.171 76.2904 132.665 75.3271 133.762 73.1918C134.244 72.2554 134.371 71.1372 133.809 70.2043C133.227 69.2376 132.126 68.5943 131.049 68.3484C128.821 67.8399 126.472 68.9917 125.556 71.1035C125.358 71.565 125.115 72.1544 125.264 72.663C125.425 73.2187 125.991 73.4915 126.509 73.6263C127.502 73.8856 128.545 73.697 129.461 73.2659C131.332 72.3868 132.652 70.3558 132.628 68.2777C132.598 65.8089 130.484 64.2427 128.394 63.3906C126.27 62.525 123.648 62.461 121.911 64.1754C121.194 64.8827 120.602 65.9975 120.992 67.0113C121.416 68.1093 122.692 68.4596 123.749 68.2002C125.997 67.6479 127.795 65.2835 128.044 63.0403C128.158 62.0097 127.963 60.9319 127.323 60.0932C126.617 59.1704 125.513 58.719 124.385 58.5877C123.793 58.5169 123.2 58.527 122.608 58.5944C121.968 58.6685 121.975 59.6789 122.625 59.6048C124.304 59.4129 126.445 59.6958 126.96 61.6055C127.434 63.3535 126.431 65.2228 125.119 66.3276C124.486 66.8564 123.52 67.4727 122.658 67.2336C121.706 66.9709 121.773 66.048 122.231 65.3609C123.254 63.8217 125.334 63.5523 126.994 63.9766C128.65 64.401 130.77 65.4519 131.416 67.1561C131.972 68.6246 131.373 70.3424 130.316 71.4269C129.76 71.9927 129.064 72.4238 128.296 72.6226C127.943 72.7135 127.572 72.7539 127.206 72.7202C126.913 72.6933 126.273 72.6259 126.24 72.2756C126.206 71.9085 126.529 71.3764 126.711 71.0732C126.936 70.6994 127.226 70.3693 127.559 70.0897C128.225 69.5306 129.067 69.2309 129.932 69.2275C130.881 69.2241 131.854 69.5677 132.544 70.2278C133.288 70.9351 133.331 71.8681 132.864 72.7472C131.877 74.5895 129.639 75.4181 127.808 76.1321C127.209 76.3679 127.472 77.3413 128.077 77.1055L128.071 77.1089Z" fill="#8481EF"/>
<path d="M48.5783 73.6039C46.3265 73.6814 43.6541 73.7656 41.9139 75.4193C41.1499 76.1435 40.6618 77.1573 40.884 78.225C41.1162 79.3297 41.9409 80.2997 42.8766 80.8891C44.8119 82.105 47.4103 81.7951 48.9721 80.1044C49.312 79.7372 49.7361 79.259 49.763 78.7302C49.7933 78.1509 49.3524 77.7063 48.9081 77.4099C48.0566 76.8373 47.0098 76.6689 46.0034 76.7733C43.9469 76.9855 42.0317 78.4641 41.3687 80.4344C40.5811 82.7719 42.0587 84.9511 43.7517 86.4465C45.4716 87.9655 47.9219 88.8951 50.1299 87.851C51.0387 87.4199 51.9677 86.5644 51.934 85.4799C51.897 84.3044 50.8098 83.5499 49.726 83.4455C47.4238 83.2232 44.9465 84.8635 43.9671 86.8945C43.5161 87.8308 43.3444 88.912 43.6743 89.9123C44.0378 91.017 44.9297 91.8052 45.9496 92.3036C46.4881 92.5663 47.0468 92.7516 47.6291 92.883C48.2552 93.0244 48.585 92.0679 47.9489 91.923C46.2996 91.5492 44.3744 90.5724 44.5157 88.6021C44.6436 86.7968 46.2087 85.362 47.8142 84.7557C48.585 84.4627 49.6991 84.2033 50.4362 84.7153C51.2474 85.2778 50.8771 86.1265 50.2208 86.625C48.7466 87.7399 46.6968 87.3054 45.2697 86.3556C43.8493 85.4091 42.1899 83.715 42.1462 81.8928C42.1058 80.3233 43.2401 78.8986 44.5965 78.225C45.3067 77.8713 46.1078 77.6962 46.8987 77.7635C47.2622 77.7938 47.6257 77.878 47.959 78.0296C48.2249 78.1509 48.8072 78.4304 48.723 78.7706C48.6321 79.1276 48.1508 79.5251 47.8815 79.7507C47.545 80.0269 47.1646 80.2458 46.7574 80.4008C45.9462 80.7073 45.0509 80.714 44.233 80.4277C43.3377 80.1178 42.5332 79.4712 42.0957 78.619C41.6278 77.7029 41.8937 76.8104 42.6275 76.1367C44.1657 74.7255 46.552 74.6817 48.5177 74.611C49.1606 74.5874 49.2346 73.5803 48.585 73.6039H48.5783Z" fill="#8481EF"/>
<path d="M28.7888 92.669C26.6548 93.1203 25.5441 95.4309 26.1129 97.445C26.7255 99.6107 28.9335 101.029 31.1348 101.052C32.02 101.062 33.0398 100.763 33.4673 99.9172C33.9486 98.9707 33.4504 97.8458 32.6393 97.2698C31.7608 96.6434 30.5592 96.64 29.6807 97.2698C28.7517 97.9334 28.4387 99.0785 28.6508 100.17C28.8965 101.443 29.8726 102.487 30.8688 103.248C31.9123 104.046 33.1711 104.542 34.4905 104.269C35.1266 104.137 34.8574 103.164 34.2212 103.295C32.5922 103.632 30.8318 102.228 30.0274 100.917C29.6235 100.261 29.4114 99.4052 29.7615 98.6777C30.0947 97.9872 30.9126 97.6437 31.6396 97.8828C32.2387 98.0816 32.9355 98.8394 32.5484 99.4995C32.2421 100.022 31.4545 100.072 30.9193 100.035C29.3576 99.9205 27.7689 98.9977 27.1934 97.4888C26.5909 95.9125 27.3145 94.0129 29.0614 93.6424C29.6975 93.5077 29.4283 92.5343 28.7921 92.669H28.7888Z" fill="#1CB0F6"/>
<path d="M118.175 96.1054C119.622 95.3038 121.046 93.8656 122.793 93.8387C124.331 93.8151 125.836 95.0849 126.004 96.6308C126.166 98.1465 125.055 99.6891 123.584 100.046C123.163 100.151 122.759 100.154 122.487 99.78C122.234 99.4331 122.16 98.975 122.174 98.554C122.204 97.6547 122.689 96.8329 123.328 96.2233C123.995 95.5867 124.846 95.1455 125.698 94.8053C126.64 94.4281 127.593 94.2395 128.481 94.8424C129.929 95.8259 130.804 97.7693 130.888 99.4803C130.932 100.329 130.77 101.36 129.922 101.771C129.158 102.141 128.501 101.595 128.387 100.821C128.252 99.9046 128.845 98.9717 129.319 98.234C129.777 97.5234 130.329 96.8363 131.012 96.3311C131.733 95.8023 132.628 95.4857 133.516 95.7181C134.368 95.9404 135.038 96.5904 135.455 97.3482C136.532 99.2984 135.691 101.602 134.695 103.397C134.378 103.967 135.25 104.475 135.566 103.906C136.714 101.841 137.535 99.3118 136.438 97.0518C135.489 95.1017 133.328 94.0778 131.292 95.0007C130.309 95.4453 129.528 96.2435 128.888 97.0923C128.198 98.005 127.512 99.1064 127.384 100.268C127.27 101.306 127.761 102.464 128.804 102.818C129.811 103.162 130.921 102.559 131.44 101.686C132.042 100.669 131.975 99.3792 131.733 98.2677C131.487 97.1394 130.969 96.0785 130.252 95.1758C129.538 94.2732 128.589 93.5019 127.397 93.4311C126.186 93.3604 124.89 93.9801 123.87 94.5797C122.066 95.644 120.285 98.0724 121.558 100.198C122.847 102.357 125.782 100.38 126.573 98.7864C127.525 96.8632 126.842 94.6538 125.055 93.4985C124.176 92.9293 123.133 92.7238 122.106 92.9023C121.009 93.0943 120.043 93.7174 119.131 94.3203C118.653 94.6369 118.175 94.9569 117.67 95.2364C117.101 95.5497 117.61 96.4254 118.178 96.1088L118.175 96.1054Z" fill="#1CB0F6"/>
<path d="M37.4692 32.6128C37.8226 33.9567 39.041 34.9267 40.3941 35.1389C41.8616 35.3679 43.3156 34.6977 44.3052 33.6266C45.4159 32.4276 45.8972 30.8244 46.0352 29.2245C46.1732 27.6247 46.0722 25.7924 45.0962 24.4485C44.2446 23.2697 42.831 22.5051 41.3668 22.5051C39.7378 22.5051 38.8492 24.0477 38.7852 25.5331C38.6472 28.7395 42.077 30.0564 44.7629 29.9251C48.7178 29.7331 49.7376 24.8224 49.842 21.6496C49.8622 20.9996 48.8524 20.9996 48.8322 21.6496C48.7918 22.9059 48.6505 24.1589 48.2701 25.3613C47.9066 26.5098 47.2671 27.7493 46.2607 28.4599C45.3048 29.1369 43.8272 29.0022 42.7401 28.7462C41.6899 28.5004 40.66 27.9783 40.1215 27.0016C39.5897 26.0315 39.6738 24.4789 40.5826 23.7379C41.0269 23.3741 41.7606 23.4987 42.2722 23.6402C42.8242 23.7918 43.3426 24.0747 43.7667 24.462C44.7663 25.3748 45.0423 26.6984 45.0659 28.0019C45.0894 29.3323 44.9245 30.7199 44.2917 31.9089C43.6825 33.054 42.5651 34.0611 41.2254 34.1689C40.0238 34.2666 38.7617 33.5424 38.4453 32.3434C38.2803 31.7135 37.3043 31.983 37.4725 32.6128H37.4692Z" fill="#1CB0F6"/>
<path d="M106.331 27.712C104.961 27.4695 103.574 28.17 102.813 29.3118C101.992 30.5513 101.992 32.1511 102.548 33.4984C103.17 35.0106 104.422 36.1187 105.816 36.9136C107.209 37.7085 108.916 38.3855 110.545 38.0621C111.972 37.7792 113.258 36.8159 113.87 35.4855C114.55 34.0069 113.527 32.5519 112.204 31.8716C109.353 30.4031 106.721 32.9696 105.715 35.462C104.234 39.1366 108.263 42.1173 111.097 43.542C111.679 43.8351 112.1 42.9156 111.521 42.6259C110.4 42.0634 109.32 41.41 108.387 40.5613C107.499 39.7496 106.64 38.6482 106.418 37.4357C106.206 36.2838 106.947 34.9972 107.633 34.1147C108.296 33.266 109.202 32.5452 110.313 32.4677C111.417 32.3903 112.79 33.1178 113.083 34.2528C113.227 34.8086 112.807 35.4249 112.463 35.8291C112.093 36.2669 111.622 36.6206 111.093 36.8429C109.848 37.3683 108.529 37.0652 107.337 36.5398C106.122 36.0042 104.931 35.2733 104.116 34.2023C103.332 33.1717 102.888 31.7301 103.349 30.4671C103.763 29.332 104.947 28.49 106.169 28.7055C106.809 28.8201 106.974 27.8231 106.334 27.7086L106.331 27.712Z" fill="#1CB0F6"/>
</g>
<g clip-path="url(#clip2_2733_63244)">
<path d="M87.613 33.8795C88.0618 35.1762 87.3771 36.5827 86.6307 37.7358C83.8928 41.9704 80.0019 45.4368 75.5187 47.7373C73.5662 48.7362 71.5087 49.5124 69.3812 50.0347C68.7732 50.1832 68.1023 50.3082 67.5511 50.0199C67.4665 49.9753 67.3823 49.9224 67.3088 49.8586C67.2833 49.8439 67.2602 49.8178 67.2384 49.7966C67.1898 49.7558 67.1431 49.7117 67.1032 49.6631C67.0769 49.6351 67.0538 49.6089 67.0339 49.5846C66.9727 49.5066 66.9134 49.4254 66.8597 49.3346C66.7025 49.0774 66.5752 48.7904 66.4606 48.5107C66.3397 48.2274 66.2238 47.9428 66.1047 47.6563C65.8023 46.9223 65.4981 46.1916 65.1975 45.4545C65.1139 45.261 65.0353 45.0662 64.9599 44.8732C64.8107 44.5138 64.6615 44.1545 64.5141 43.7919C64.0998 42.7884 63.6861 41.7767 63.2787 40.7687C63.1044 40.335 62.9283 39.9046 62.7554 39.476C62.6727 39.266 62.5851 39.0574 62.5006 38.8507C61.9917 37.5919 61.4815 36.3281 60.9744 35.0661C60.8878 34.8411 60.7961 34.6173 60.7063 34.3904C60.1507 33.0065 59.602 31.6181 59.0616 30.23C58.9718 30.0031 58.8851 29.7781 58.7985 29.553C58.5579 28.9401 58.3223 28.3259 58.0867 27.7117C58.0275 27.5494 57.9619 27.3835 57.8995 27.2194C57.6855 26.656 57.4701 26.0876 57.2611 25.5229C57.1764 25.2946 57.0898 25.0696 57.0082 24.8432C56.788 24.2464 56.5678 23.6496 56.3513 23.0464C56.1329 22.4464 55.9209 21.85 55.7095 21.2455C55.6476 21.0731 55.5858 20.9008 55.5257 20.7252C55.4948 20.6391 55.4607 20.5511 55.4348 20.4635C55.4066 20.3874 55.3788 20.3031 55.3556 20.2256C55.158 19.6632 54.9636 19.1027 54.7742 18.5408C54.7638 18.522 54.7585 18.5018 54.755 18.4784C54.5347 17.8303 54.3162 17.179 54.106 16.5282C53.9355 16.0071 53.448 13.9537 53.8931 13.2415C54.0548 12.9762 54.3436 12.8953 54.8265 13.1399C56.3677 13.9273 57.8978 14.7338 59.4174 15.5513C59.6695 15.6884 59.9266 15.824 60.1769 15.9642C61.219 16.5275 62.2542 17.0953 63.2821 17.6759L64.001 18.0782C65.0084 18.6427 66.0084 19.2201 67.0066 19.8006C67.2518 19.9422 67.4938 20.0819 67.7322 20.2281C68.9005 20.9111 70.0632 21.6038 71.2186 22.3093C71.4556 22.4504 71.6939 22.5965 71.9304 22.7459C72.9443 23.3654 73.9595 23.9899 74.9623 24.6287C75.1988 24.778 75.4353 24.9274 75.6699 25.0799C76.9856 25.9121 78.2921 26.7604 79.588 27.6196C79.8226 27.7721 80.0541 27.9228 80.285 28.0818C81.7105 29.0328 83.1317 29.9986 84.5373 30.9766C84.7778 31.1411 85.0165 31.3088 85.2551 31.4764C85.3674 31.5541 85.4779 31.6349 85.5933 31.7144C86.4152 32.2914 87.2778 32.9303 87.6079 33.8809L87.613 33.8795Z" fill="#6F6CE8"/>
<path d="M60.1786 15.9597C59.3832 17.3962 58.4368 18.7412 57.2673 19.9063C57.2094 19.9625 57.1515 20.0187 57.0904 20.0731C56.6637 20.4885 56.2019 20.8838 55.7094 21.2441C55.6475 21.0718 55.5857 20.8994 55.5257 20.7239C55.4947 20.6377 55.4606 20.5497 55.4347 20.4622C55.8926 20.1031 56.3214 19.706 56.7253 19.2859C57.654 18.332 58.448 17.2362 59.1181 16.0903C59.2216 15.911 59.3251 15.7316 59.4205 15.5518C59.6726 15.6888 59.9297 15.8245 60.18 15.9647L60.1786 15.9597Z" fill="white"/>
<path d="M64.0028 18.075C63.8012 18.424 63.5838 18.7639 63.365 19.0987C63.0096 19.6407 62.6287 20.168 62.2338 20.6829C61.3421 21.8375 60.3482 22.9118 59.2677 23.8934C59.1767 23.9774 59.0862 24.0533 58.9952 24.1374C58.4401 24.6281 57.8605 25.0877 57.2629 25.5197C57.1781 25.2914 57.0915 25.0664 57.0099 24.84C57.5789 24.3914 58.1279 23.9185 58.6602 23.4231C59.7404 22.42 60.734 21.3242 61.6254 20.148C61.6272 20.1448 61.6291 20.1416 61.6328 20.1352C62.001 19.6519 62.3539 19.1511 62.6876 18.6392C62.8971 18.3204 63.0971 17.9961 63.2857 17.6695L64.0046 18.0718L64.0028 18.075Z" fill="white"/>
<path d="M67.7373 20.2264C67.6744 20.3353 67.6052 20.4405 67.5391 20.5475C67.3235 20.8842 67.1093 21.2259 66.8854 21.562C66.4336 22.249 65.969 22.9287 65.479 23.5936C64.1677 25.3941 62.7168 27.1054 61.082 28.591C60.4386 29.1759 59.768 29.7196 59.0634 30.2265C58.9736 29.9996 58.887 29.7745 58.8004 29.5495C58.8385 29.5202 58.8803 29.4846 58.9184 29.4554C59.5536 28.951 60.1573 28.4201 60.7394 27.868C62.2528 26.4234 63.5989 24.8053 64.8219 23.099C64.8311 23.0829 64.8454 23.0656 64.8565 23.0464C65.319 22.3997 65.7693 21.7374 66.2018 21.0692C66.4756 20.6465 66.7443 20.2252 67.0085 19.7971C67.2537 19.9387 67.4957 20.0784 67.7341 20.2246L67.7373 20.2264Z" fill="white"/>
<path d="M71.9355 22.7435C71.8602 22.8665 71.7799 22.991 71.6996 23.1154C71.4069 23.5783 71.1046 24.0357 70.7991 24.4912C70.2915 25.2527 69.7666 26.0001 69.2226 26.7363C68.0226 28.3662 66.7307 29.9345 65.3496 31.4C64.7031 32.0857 64.0227 32.7347 63.3051 33.3451C62.6799 33.8765 62.0288 34.3716 61.3438 34.83C61.2199 34.9122 61.0978 34.9912 60.9758 35.0702C60.8892 34.8451 60.7975 34.6214 60.7077 34.3945C61.0243 34.1845 61.3351 33.9625 61.6362 33.735C62.0967 33.3861 62.5418 33.0197 62.9715 32.6358C65.0908 30.7596 66.8902 28.5109 68.5541 26.2394C68.5597 26.2298 68.5684 26.222 68.5739 26.2124C69.1111 25.4807 69.6322 24.7398 70.1361 23.9846C70.5085 23.4353 70.8713 22.8805 71.2264 22.317C71.4634 22.4581 71.7017 22.6042 71.9382 22.7536L71.9355 22.7435Z" fill="white"/>
<path d="M75.68 25.0759C75.4547 25.4881 75.2295 25.9003 74.9997 26.3056C74.7995 26.6597 74.5994 27.0138 74.3896 27.3624C73.9327 28.1318 73.4515 28.8916 72.9537 29.6289C71.6298 31.6057 70.1418 33.4621 68.4414 35.1276C67.5103 36.0417 66.5077 36.9103 65.439 37.7022C64.5791 38.3458 63.6812 38.9375 62.7508 39.4678C62.6682 39.2578 62.5806 39.0493 62.4961 38.8425C63.0653 38.4965 63.626 38.1285 64.1699 37.7381C64.4825 37.5129 64.7937 37.2827 65.0922 37.0452C67.6857 35.0243 69.9012 32.5845 71.7913 29.8843C71.9634 29.6378 72.1322 29.3894 72.2947 29.1374C72.8 28.3873 73.2789 27.6092 73.7383 26.8284C74.0359 26.3128 74.3354 25.794 74.6204 25.2711C74.736 25.0561 74.8535 24.8379 74.966 24.621C75.2025 24.7703 75.439 24.9197 75.6736 25.0722L75.68 25.0759Z" fill="white"/>
<path d="M80.2918 28.0766C79.8662 28.8727 79.4214 29.6577 78.9526 30.4331C78.8416 30.6252 78.7243 30.8137 78.607 31.0021C78.2237 31.6219 77.8276 32.2344 77.4156 32.8376C75.5986 35.5288 73.5379 38.0537 71.2817 40.3803C70.49 41.1999 69.6536 42.0235 68.7736 42.8049C67.661 43.7978 66.469 44.715 65.1924 45.4553C65.1088 45.2618 65.0301 45.067 64.9547 44.874C65.6237 44.4362 66.2705 43.9557 66.8892 43.4504C67.3705 43.058 67.846 42.6536 68.3093 42.2337C70.9278 39.8899 73.2712 37.1696 75.3385 34.3539C75.8161 33.7032 76.2797 33.04 76.7305 32.3695C77.1559 31.7356 77.5687 31.0943 77.9673 30.4406C78.2019 30.0637 78.4301 29.6831 78.652 29.2988C78.9718 28.7448 79.2871 28.184 79.5911 27.6208C79.8257 27.7733 80.0572 27.9241 80.2881 28.083L80.2918 28.0766Z" fill="white"/>
<path d="M85.2621 31.4703C84.9091 32.1333 84.5319 32.7865 84.1439 33.4292C81.642 37.5567 78.4964 41.2912 74.8519 44.4558C74.1232 45.0855 73.3759 45.6958 72.6137 46.2805C71.4792 47.1497 70.3002 47.9635 69.0851 48.7222C68.4778 49.0974 67.8665 49.4575 67.2385 49.7951C67.1899 49.7542 67.1431 49.7102 67.1033 49.6615C67.077 49.6335 67.0539 49.6074 67.0339 49.5831C66.9728 49.5051 66.9135 49.4239 66.8598 49.3331C67.7509 48.7972 68.6221 48.2371 69.4696 47.659C70.3204 47.0827 71.1568 46.4726 71.97 45.8363C74.8927 43.5614 77.5446 40.9466 79.8641 38.0545C81.3539 36.1949 82.7024 34.2195 83.8886 32.1504C84.1141 31.7597 84.3315 31.3685 84.5443 30.9705C84.7848 31.135 85.0234 31.3027 85.2621 31.4703Z" fill="white"/>
<path d="M48.4871 13.8303C46.7479 15.5631 51.2732 15.0504 52.0585 15.1024C52.4163 16.086 52.7571 17.077 53.0998 18.0647C53.9121 19.7762 55.0016 15.6018 55.2593 14.9863C56.0251 14.8734 57.0477 15.088 57.7264 14.6259C58.1875 13.8419 56.4607 12.7509 56.0183 12.2521C56.2958 11.0802 56.4746 9.90255 56.6156 8.72437C56.6403 8.51236 56.6867 8.27017 56.5398 8.11276C56.2948 7.59561 54.2477 9.13348 54.2092 9.48699C53.9837 9.66423 53.7633 9.84011 53.5397 10.0141C52.7411 9.30118 51.96 8.57268 51.1739 7.84554C49.4091 6.6217 50.8801 11.3478 51.0085 11.9344C50.1706 12.5693 49.3146 13.1766 48.4903 13.8322L48.4871 13.8303Z" fill="#F9E000"/>
<path d="M69.5119 46.5578C68.5136 47.0659 67.5204 47.5727 66.5221 48.0809C66.2512 48.2191 65.9735 48.3619 65.7714 48.5868C65.3269 49.0773 65.342 49.8674 65.6812 50.4347C66.0222 50.9988 66.618 51.3641 67.2396 51.5821C69.0599 52.2317 71.0958 51.8017 72.9003 51.0887C77.0487 49.4489 80.4836 46.4195 83.6988 43.3144C84.5641 42.4776 85.4272 41.6224 86.1077 40.6276C86.8395 39.5515 87.3406 38.3378 87.8311 37.1352C88.2882 36.02 88.7452 34.9047 89.2022 33.7895C89.2682 33.6312 89.3328 33.4678 89.3499 33.2983C89.3997 32.7635 88.9479 32.3105 88.4768 32.0599C87.0924 31.3246 85.2024 31.715 84.2139 32.9418C83.4202 33.9267 83.2257 35.2491 82.9054 36.4732C82.4773 38.1046 81.7715 39.6655 80.8252 41.0618C80.4201 41.6605 79.9566 42.2426 79.3352 42.6054C78.1351 43.3087 76.5856 43.0802 75.3413 43.6982C73.8605 44.4316 72.9605 46.2773 71.3238 46.4938L69.5188 46.5532L69.5119 46.5578Z" fill="#FF9600"/>
</g>
<ellipse cx="100.5" cy="58.5" rx="44" ry="43.5" fill="white"/>
<path d="M114.238 38.2773C114.438 39.0914 114.545 39.9469 114.545 40.844C114.545 41.0434 114.545 41.2427 114.529 41.4421C104.835 40.2626 100.134 41.4421 100.134 41.4421C100.134 41.2427 100.117 41.0434 100.117 40.844C100.117 39.9469 100.225 39.0997 100.425 38.2773H114.238Z" fill="white"/>
<path d="M107.327 45.3887C109.42 45.3887 111.215 46.2525 112.054 47.5234C110.783 48.8608 109.13 49.6748 107.327 49.6748C105.525 49.6748 103.863 48.8691 102.601 47.5234C103.44 46.2525 105.242 45.3887 107.327 45.3887Z" fill="#FF7C5F"/>
<path d="M114.529 41.4422C114.396 43.8677 113.457 46.0274 112.054 47.5225C111.215 46.2516 109.42 45.3878 107.327 45.3878C105.234 45.3878 103.44 46.2516 102.601 47.5225C101.189 46.0274 100.258 43.8677 100.125 41.4422C100.125 41.4422 104.835 40.2627 114.521 41.4422H114.529Z" fill="#495057"/>
<path d="M96.3211 37.572C95.9805 37.572 95.6981 37.2895 95.6981 36.949C95.6981 35.8608 94.8924 34.9803 93.8956 34.9803C92.8989 34.9803 92.1014 35.8608 92.1014 36.949C92.1014 37.2895 91.819 37.572 91.4785 37.572C91.1379 37.572 90.8555 37.2895 90.8555 36.949C90.8555 35.1714 92.2177 33.7344 93.9039 33.7344C95.5901 33.7344 96.9524 35.1714 96.9524 36.949C96.9524 37.2895 96.67 37.572 96.3294 37.572H96.3211Z" fill="#495057"/>
<path d="M122.777 37.572C122.437 37.572 122.154 37.2895 122.154 36.949C122.154 35.8608 121.348 34.9803 120.352 34.9803C119.355 34.9803 118.549 35.8608 118.549 36.949C118.549 37.2895 118.267 37.572 117.926 37.572C117.586 37.572 117.303 37.2895 117.303 36.949C117.303 35.1797 118.665 33.7344 120.352 33.7344C122.038 33.7344 123.4 35.1714 123.4 36.949C123.4 37.2895 123.118 37.572 122.777 37.572Z" fill="#495057"/>
</g>
<defs>
<clipPath id="clip0_2733_63244">
<rect width="200" height="120" fill="white" transform="translate(0.5)"/>
</clipPath>
<clipPath id="clip1_2733_63244">
<rect width="242" height="103" fill="white" transform="translate(-41.5 3)"/>
</clipPath>
<clipPath id="clip2_2733_63244">
<rect width="32.3952" height="47.3468" fill="white" transform="translate(35.6328 33.4102) rotate(-60)"/>
</clipPath>
</defs>
</svg>
