<svg width="343" height="133" viewBox="0 0 343 133" fill="none" xmlns="http://www.w3.org/2000/svg">
<path fill-rule="evenodd" clip-rule="evenodd" d="M148.501 11.5C147.396 11.5 146.501 12.3954 146.501 13.5V14.5H146.5C146.5 15.0523 146.052 15.5 145.5 15.5H144.623C142.919 15.5 141.557 16.9174 141.625 18.6199L142.385 37.6199C142.45 39.2288 143.773 40.5 145.383 40.5H197.618C199.229 40.5 200.552 39.2288 200.616 37.6199L201.376 18.6199C201.444 16.9174 200.082 15.5 198.378 15.5H164.5C163.948 15.5 163.5 15.0523 163.5 14.5C163.5 14.4874 163.5 14.4748 163.501 14.4623V13.5C163.501 12.3954 162.605 11.5 161.501 11.5H148.501Z" fill="#C9CEFF"/>
<path d="M138.675 24.6682C138.58 22.3951 140.397 20.5 142.672 20.5H200.328C202.603 20.5 204.42 22.3951 204.325 24.6682L202.599 65.6682C202.509 67.81 200.746 69.5 198.602 69.5H144.398C142.254 69.5 140.491 67.81 140.401 65.6682L138.675 24.6682Z" fill="#FAFAFF"/>
<circle cx="162" cy="38" r="1.5" fill="#C9CEFF"/>
<circle cx="181" cy="38" r="1.5" fill="#C9CEFF"/>
<path d="M169.5 45.5C169.5 44.3954 170.395 43.5 171.5 43.5C172.605 43.5 173.5 44.3954 173.5 45.5V48.2425C173.5 48.8727 172.897 49.3254 172.281 49.1913C171.97 49.1235 171.674 49.0714 171.5 49.0714C171.326 49.0714 171.03 49.1235 170.719 49.1913C170.103 49.3254 169.5 48.8727 169.5 48.2425V45.5Z" fill="#C9CEFF"/>
<circle cx="200.051" cy="49.9487" r="16.5808" transform="rotate(45 200.051 49.9487)" fill="#C9CEFF"/>
<circle cx="200.051" cy="49.947" r="14.0936" transform="rotate(45 200.051 49.947)" fill="#FAFAFF"/>
<rect x="188.325" y="59.3262" width="3.31615" height="4.97423" transform="rotate(45 188.325 59.3262)" fill="#C9CEFF"/>
<rect x="185.396" y="61.0859" width="4.97423" height="18.2388" rx="2.48711" transform="rotate(45 185.396 61.0859)" fill="#C9CEFF"/>
<path d="M132.152 103.773H131.1V105.51H126.096V106.398H137.17V105.51H132.152V103.773ZM126.711 103.527L127.107 104.375C129.11 104.129 130.963 103.261 131.633 101.914C132.303 103.261 134.169 104.129 136.158 104.375L136.555 103.527C134.436 103.302 132.405 102.256 132.33 100.902H136.186V100.027H127.107V100.902H130.936C130.86 102.263 128.83 103.302 126.711 103.527ZM127.436 109.488C127.429 110.842 128.994 111.58 131.633 111.58C134.244 111.58 135.803 110.842 135.816 109.488C135.803 108.142 134.244 107.396 131.633 107.396C128.994 107.396 127.429 108.142 127.436 109.488ZM128.529 109.488C128.516 108.695 129.664 108.237 131.633 108.244C133.581 108.237 134.729 108.695 134.736 109.488C134.729 110.288 133.581 110.753 131.633 110.746C129.664 110.753 128.516 110.288 128.529 109.488ZM147.861 99.9727H139.631V104.074H143.199V105.633H138.195V106.508H149.27V105.633H144.266V104.074H147.861V99.9727ZM139.426 108.641H146.822V111.607H147.902V107.779H139.426V108.641ZM140.684 103.213V100.834H146.795V103.213H140.684ZM160.371 99.4531H159.291V101.436H156.447V100.383H150.869V105.783H156.447V104.744H159.291V106.658H160.371V99.4531ZM151.936 104.908V101.258H155.395V104.908H151.936ZM152.264 109.311C152.257 110.76 153.809 111.58 156.338 111.58C158.86 111.58 160.412 110.76 160.412 109.311C160.412 107.848 158.86 107.007 156.338 107.014C153.809 107.007 152.257 107.848 152.264 109.311ZM153.33 109.311C153.323 108.395 154.472 107.861 156.338 107.848C158.197 107.861 159.346 108.395 159.346 109.311C159.346 110.192 158.197 110.732 156.338 110.732C154.472 110.732 153.323 110.192 153.33 109.311ZM156.447 103.842V102.324H159.291V103.842H156.447ZM164.391 109.584H163.064L162.312 113.303H163.324L164.391 109.584ZM175.547 103.773H174.494V105.51H169.49V106.398H180.564V105.51H175.547V103.773ZM170.105 103.527L170.502 104.375C172.505 104.129 174.357 103.261 175.027 101.914C175.697 103.261 177.563 104.129 179.553 104.375L179.949 103.527C177.83 103.302 175.8 102.256 175.725 100.902H179.58V100.027H170.502V100.902H174.33C174.255 102.263 172.225 103.302 170.105 103.527ZM170.83 109.488C170.823 110.842 172.389 111.58 175.027 111.58C177.639 111.58 179.197 110.842 179.211 109.488C179.197 108.142 177.639 107.396 175.027 107.396C172.389 107.396 170.823 108.142 170.83 109.488ZM171.924 109.488C171.91 108.695 173.059 108.237 175.027 108.244C176.976 108.237 178.124 108.695 178.131 109.488C178.124 110.288 176.976 110.753 175.027 110.746C173.059 110.753 171.91 110.288 171.924 109.488ZM191.256 99.9727H183.025V104.074H186.594V105.633H181.59V106.508H192.664V105.633H187.66V104.074H191.256V99.9727ZM182.82 108.641H190.217V111.607H191.297V107.779H182.82V108.641ZM184.078 103.213V100.834H190.189V103.213H184.078ZM203.41 100.643H195.029V101.531H202.357V101.818C202.357 102.365 202.351 102.939 202.323 103.582L194.674 103.896L194.852 104.84L202.275 104.396C202.207 105.25 202.084 106.214 201.852 107.314L202.904 107.438C203.41 104.963 203.396 103.295 203.41 101.818V100.643ZM193.689 109.953H204.764V109.037H199.09V105.893H198.037V109.037H193.689V109.953ZM215.605 105.305H208.277V101.477H215.482V100.588H207.211V106.193H215.605V105.305ZM205.789 109.953H216.918V109.051H205.789V109.953ZM110.394 123.1H107.071V119.49H110.243V118.615H105.991V123.975H110.394V123.1ZM100.153 128.049H111.282V127.16H106.196V124.59H105.144V127.16H100.153V128.049ZM101.124 123.975H101.794C103.004 123.981 104.125 123.947 105.458 123.646L105.362 122.744C104.234 123.004 103.216 123.079 102.19 123.086V119.504H105.253V118.615H101.124V123.975ZM122.083 121.145H114.823V117.904H113.757V122.006H122.083V121.145ZM112.239 124.535H123.368V123.66H112.239V124.535ZM113.688 129.307H122.151V128.418H114.755V125.779H113.688V129.307ZM134.388 118.725H128.782V119.613H133.314C133.26 120.365 133.13 121.083 132.911 121.76L128.167 122.074L128.345 123.031L132.569 122.621C131.804 124.269 130.396 125.67 128.112 126.764L128.714 127.625C133.109 125.472 134.374 122.231 134.388 118.725ZM136.835 129.607H137.915V117.453H136.835V129.607ZM150.028 117.467H148.935V125.779H146.132V126.6H148.935V129.621H150.028V117.467ZM139.911 123.865L140.062 124.781C141.039 124.781 142.153 124.768 143.315 124.727V129.238H144.396V124.672C145.605 124.597 146.856 124.48 148.06 124.275L147.991 123.469C145.312 123.852 142.229 123.858 139.911 123.865ZM140.841 120.461C140.834 121.903 142.092 122.833 143.917 122.84C145.722 122.833 146.986 121.903 146.979 120.461C146.986 119.032 145.722 118.068 143.917 118.068C142.092 118.068 140.834 119.032 140.841 120.461ZM141.853 120.461C141.846 119.545 142.693 118.909 143.917 118.902C145.113 118.909 145.961 119.545 145.968 120.461C145.961 121.384 145.113 122.013 143.917 122.006C142.693 122.013 141.846 121.384 141.853 120.461ZM161.882 123.305H154.554V119.477H161.759V118.588H153.487V124.193H161.882V123.305ZM152.065 127.953H163.194V127.051H152.065V127.953ZM175.294 127.201H170.222V124.904H174.173V124.016H166.626V122.033H173.886V118.355H165.532V119.244H172.833V121.158H165.56V124.904H169.169V127.201H164.165V128.104H175.294V127.201ZM183.921 119.996V119.764H186.669V118.875H183.948V117.398H182.868V118.875H180.12V119.764H182.868V119.996C182.861 121.596 181.59 122.99 179.778 123.537L180.312 124.385C181.754 123.913 182.882 122.929 183.408 121.657C183.948 122.812 185.035 123.715 186.437 124.139L186.942 123.318C185.145 122.785 183.928 121.452 183.921 119.996ZM181.009 128.732L181.419 129.553C183.183 129.252 184.789 128.384 185.479 127.174C186.177 128.391 187.79 129.272 189.567 129.566L189.964 128.732C188.016 128.418 186.225 127.324 186.054 126.053H189.499V125.178H181.487V126.053H184.919C184.741 127.352 182.964 128.418 181.009 128.732ZM188.214 124.521H189.28V121.363H191.112V120.461H189.28V117.453H188.214V124.521ZM195.132 118.396C193.327 118.403 192.062 120.051 192.069 122.635C192.062 125.226 193.327 126.866 195.132 126.859C196.923 126.866 198.194 125.226 198.208 122.635C198.194 120.051 196.923 118.403 195.132 118.396ZM193.081 122.635C193.088 120.659 193.929 119.36 195.132 119.354C196.349 119.36 197.169 120.659 197.169 122.635C197.169 124.61 196.349 125.909 195.132 125.902C193.929 125.909 193.088 124.61 193.081 122.635ZM200.218 129.607H201.284V123.236H203.321V122.307H201.284V117.453H200.218V129.607ZM215.106 127.16H210.034V124.535H213.739V118.314H212.687V120.516H206.37V118.314H205.29V124.535H208.981V127.16H203.978V128.049H215.106V127.16ZM206.37 123.66V121.391H212.687V123.66H206.37ZM219.687 120.912V118.602H218.647V120.953C218.647 123.038 217.622 125.191 215.94 126.176L216.624 126.982C217.841 126.244 218.743 124.85 219.188 123.229C219.611 124.713 220.452 126.012 221.628 126.723L222.243 125.889C220.63 124.932 219.687 122.847 219.687 120.912ZM220.903 122.73H222.968V128.992H223.979V117.713H222.968V121.814H220.903V122.73ZM225.456 129.607H226.495V117.453H225.456V129.607ZM239.306 127.146H236.544V123.838C237.549 123.298 238.157 122.437 238.157 121.35C238.157 119.47 236.312 118.232 233.714 118.219C231.116 118.232 229.271 119.47 229.271 121.35C229.271 122.457 229.899 123.332 230.938 123.872V127.146H228.177V128.049H239.306V127.146ZM230.31 121.35C230.303 119.989 231.718 119.094 233.714 119.107C235.689 119.094 237.118 119.989 237.118 121.35C237.118 122.71 235.689 123.619 233.714 123.619C231.718 123.619 230.303 122.71 230.31 121.35ZM231.991 127.146V124.262C232.511 124.398 233.092 124.467 233.714 124.467C234.35 124.467 234.938 124.392 235.464 124.255V127.146H231.991ZM241.562 128.582C242.047 128.575 242.443 128.179 242.437 127.693C242.443 127.215 242.047 126.818 241.562 126.818C241.083 126.818 240.673 127.215 240.687 127.693C240.673 128.179 241.083 128.575 241.562 128.582Z" fill="#6C757D"/>
</svg>
