<svg width="35" height="27" viewBox="0 0 35 27" fill="none" xmlns="http://www.w3.org/2000/svg">
<path fill-rule="evenodd" clip-rule="evenodd" d="M28.655 0L30.0713 1.4121L23.9091 7.55587C24.3336 7.49987 24.7666 7.47096 25.2065 7.47096C30.6154 7.47096 35.0001 11.8427 35.0001 17.2355C35.0001 22.6283 30.6154 27 25.2065 27C19.7975 27 15.4128 22.6283 15.4128 17.2355C15.4128 14.6943 16.3864 12.3799 17.9819 10.6428L17.9811 10.642L17.9994 10.6238C18.1833 10.4247 18.3753 10.2332 18.575 10.0499L28.655 0ZM14.6584 1.41215L13.242 5.23031e-05L3.16364 10.0484C2.96287 10.2326 2.76983 10.4251 2.58508 10.6253L2.56822 10.6421L2.56894 10.6428C0.973412 12.3799 -0.000152588 14.6943 -0.000152588 17.2354C-0.000152588 22.6282 4.38463 26.9999 9.79354 26.9999C12.5695 26.9999 15.0757 25.8484 16.8578 23.9984C15.3524 22.1532 14.45 19.7994 14.45 17.2355C14.45 14.6715 15.3525 12.3176 16.8579 10.4724C15.0757 8.62239 12.5695 7.47089 9.79354 7.47089C9.35377 7.47089 8.92078 7.49979 8.49637 7.55579L14.6584 1.41215Z" fill="white"/>
</svg>
