<svg width="16" height="16" viewBox="0 0 16 16" fill="none" xmlns="http://www.w3.org/2000/svg">
<circle cx="8" cy="8" r="8" fill="#ACDEF6"/>
<path fill-rule="evenodd" clip-rule="evenodd" d="M11.2828 5.77838C11.5757 5.48548 11.5757 5.01061 11.2828 4.71772C10.9899 4.42482 10.515 4.42482 10.2221 4.71772L8.00026 6.9396L5.77838 4.71772C5.48548 4.42482 5.01061 4.42482 4.71772 4.71772C4.42482 5.01061 4.42482 5.48548 4.71772 5.77838L6.9396 8.00026L4.71772 10.2221C4.42482 10.515 4.42482 10.9899 4.71772 11.2828C5.01061 11.5757 5.48548 11.5757 5.77838 11.2828L8.00026 9.06092L10.2221 11.2828C10.515 11.5757 10.9899 11.5757 11.2828 11.2828C11.5757 10.9899 11.5757 10.515 11.2828 10.2221L9.06092 8.00026L11.2828 5.77838Z" fill="white"/>
</svg>
