<svg width="60" height="60" viewBox="0 0 60 60" fill="none" xmlns="http://www.w3.org/2000/svg">
<circle cx="30" cy="30" r="30" fill="#212529"/>
<path d="M37.1525 30.9813C37.1227 27.6475 39.86 26.0469 39.9808 25.9727C38.4427 23.7075 36.0444 23.3918 35.1937 23.3539C33.1517 23.1471 31.2086 24.5646 30.1759 24.5646C29.1431 24.5646 27.5422 23.3886 25.8533 23.4218C23.6246 23.4518 21.5779 24.7241 20.4305 26.7209C18.1202 30.7524 19.8372 36.7287 22.0927 39.9978C23.1914 41.5984 24.5019 43.3963 26.2237 43.3316C27.8859 43.2669 28.5137 42.2535 30.5196 42.2535C32.5255 42.2535 33.0889 43.3316 34.8453 43.3048C36.6298 43.2669 37.7615 41.6663 38.8507 40.0657C40.1127 38.2078 40.6369 36.4098 40.6667 36.3151C40.6275 36.3009 37.1854 34.9718 37.1509 30.9813H37.1525Z" fill="white"/>
<path d="M32.9515 21.2746C33.6419 20.0552 34.1066 18.3566 33.9789 16.6667C32.9869 16.722 31.7845 17.6371 31.074 18.8513C30.4343 19.9358 29.8727 21.669 30.0253 23.3226C31.1307 23.4454 32.2645 22.4976 32.9515 21.2746Z" fill="white"/>
</svg>
