<svg width="20" height="20" viewBox="0 0 20 20" fill="none" xmlns="http://www.w3.org/2000/svg">
<g clip-path="url(#clip0_716_21149)">
<path d="M13.5601 5.00659C13.8492 5.50112 14.3857 5.83333 14.9999 5.83333C15.9204 5.83333 16.6666 5.08714 16.6666 4.16667C16.6666 3.24619 15.9204 2.5 14.9999 2.5C14.0794 2.5 13.3333 3.24619 13.3333 4.16667C13.3333 4.47296 13.4159 4.75996 13.5601 5.00659ZM13.5601 5.00659L6.43978 9.16008M6.43978 9.16008C6.15068 8.66555 5.6141 8.33333 4.99992 8.33333C4.07944 8.33333 3.33325 9.07953 3.33325 10C3.33325 10.9205 4.07944 11.6667 4.99992 11.6667C5.6141 11.6667 6.15068 11.3345 6.43978 10.8399M6.43978 9.16008C6.58396 9.40671 6.66659 9.6937 6.66659 10C6.66659 10.3063 6.58396 10.5933 6.43978 10.8399M6.43978 10.8399L13.5601 14.9934M13.5601 14.9934C13.8492 14.4989 14.3857 14.1667 14.9999 14.1667C15.9204 14.1667 16.6666 14.9129 16.6666 15.8333C16.6666 16.7538 15.9204 17.5 14.9999 17.5C14.0794 17.5 13.3333 16.7538 13.3333 15.8333C13.3333 15.527 13.4159 15.24 13.5601 14.9934Z" stroke="#6C757D" stroke-width="1.2" stroke-linecap="round" stroke-linejoin="round"/>
</g>
<defs>
<clipPath id="clip0_716_21149">
<rect width="20" height="20" fill="white"/>
</clipPath>
</defs>
</svg>
