<svg width="24" height="24" viewBox="0 0 24 24" fill="none" xmlns="http://www.w3.org/2000/svg">
<g clip-path="url(#clip0_75_2171)">
<path d="M23 11.0768C23 9.82263 21.9311 8.79823 20.5847 8.73168C20.7459 8.43079 20.8367 8.09179 20.8367 7.73345C20.8367 6.48324 19.7343 5.46964 18.3745 5.46964C17.9277 5.46964 17.5091 5.57942 17.1478 5.77111C17.1524 5.72048 17.1547 5.66929 17.1547 5.6181C17.1547 4.55502 16.217 3.69273 15.0608 3.69273C14.5261 3.69273 14.0381 3.87759 13.6681 4.18076C13.2143 2.91462 11.9182 2 10.3891 2C8.48249 2 6.9372 3.42085 6.9372 5.17387C6.9372 5.39456 6.96206 5.61014 7.0083 5.81832C6.58281 5.49467 6.0365 5.30071 5.44105 5.30071C4.08133 5.30071 2.97887 6.3143 2.97887 7.56451C2.97887 7.96438 3.09218 8.33978 3.2899 8.66627C1.99724 8.8261 1 9.84424 1 11.0768C1 12.3094 1.92902 13.2564 3.15635 13.4675C2.71005 13.8207 2.42678 14.3434 2.42678 14.9276C2.42678 15.9912 3.36447 16.8529 4.52069 16.8529C4.74731 16.8529 4.96468 16.8194 5.16933 16.7585C5.15141 16.8654 5.14216 16.9746 5.14216 17.0856C5.14216 18.2658 6.18276 19.2225 7.46617 19.2225C8.14718 19.2225 8.75998 18.9535 9.18489 18.524C9.53118 19.9409 10.9065 20.9994 12.5518 20.9994C14.1971 20.9994 15.4551 20.0285 15.869 18.7026C16.313 19.1025 16.9206 19.3494 17.5912 19.3494C18.9509 19.3494 20.0534 18.3358 20.0534 17.0856C20.0534 16.7722 19.984 16.4735 19.8591 16.2022C19.9453 16.2125 20.0331 16.2181 20.1227 16.2181C21.2795 16.2181 22.2167 15.3559 22.2167 14.2928C22.2167 13.8383 22.045 13.4208 21.7582 13.0909C22.5017 12.6802 23 11.9317 23 11.0768Z" fill="#D86A0B"/>
<path d="M18.2693 8.32442L17.5888 6.06062C17.4663 5.65222 17.0899 5.41219 16.7234 5.50832L15.1255 5.96502C15.1255 5.96502 16.5 6.5 18.2693 8.32442Z" fill="#FFC04B"/>
<path d="M5.06899 9L5.37437 6.62882C5.4316 6.20677 5.76575 5.91213 6.14268 5.95138L8.37072 6.18402C8.37072 6.18402 6.15411 7.46154 5.06899 9Z" fill="#FFC04B"/>
<path d="M11.9332 18.6008C10.3174 18.6276 8.5524 18.1498 7.20541 17.3933C5.44506 16.4053 4.32295 14.6397 4.0443 12.8628C3.71709 10.7771 4.73572 9.04224 6.38333 7.58043C6.76084 7.24541 7.16378 6.92973 7.59332 6.64534C8.25872 6.20452 8.99408 5.84561 9.77279 5.57657C11.5303 4.9691 13.1201 5.06978 14.7983 5.81319C17.8935 7.18398 20.4973 10.1753 19.9793 13.3093C19.7215 14.8678 18.7324 16.3564 17.2582 17.2784C15.7256 18.2368 13.7964 18.5701 11.9344 18.6008H11.9332Z" fill="#FFC04B"/>
<path d="M9.15998 11.0006C9.24521 10.6473 9.02317 10.2929 8.66406 10.209C8.30494 10.1252 7.94473 10.3436 7.85951 10.697C7.77429 11.0503 7.99632 11.4047 8.35544 11.4886C8.71455 11.5724 9.07476 11.3539 9.15998 11.0006Z" fill="black"/>
<path d="M16.1779 11.3501C16.5106 11.1928 16.6507 10.8 16.4909 10.4727C16.331 10.1454 15.9318 10.0075 15.5991 10.1647C15.2664 10.322 15.1263 10.7148 15.2861 11.0421C15.4459 11.3695 15.8452 11.5073 16.1779 11.3501Z" fill="black"/>
</g>
<defs>
<clipPath id="clip0_75_2171">
<rect width="24" height="24" fill="white"/>
</clipPath>
</defs>
</svg>
