<svg width="180" height="137" viewBox="0 0 180 137" fill="none" xmlns="http://www.w3.org/2000/svg">
<path d="M135.97 8.00682C138.445 0.807913 148.626 0.807884 151.101 8.00679L169.8 62.3992C171.585 67.5929 167.726 73 162.234 73H124.837C119.345 73 115.486 67.5929 117.271 62.3992L135.97 8.00682Z" fill="#FF9600"/>
<path fill-rule="evenodd" clip-rule="evenodd" d="M128.615 29.4064L134.276 12.9419H152.799L158.46 29.4064H128.615ZM116.781 63.8322L122.441 47.3677H164.634L170.294 63.8322H116.781Z" fill="white"/>
<rect x="112" y="63" width="63" height="10" rx="2" fill="#FF9600"/>
<ellipse cx="82.5" cy="115" rx="63.5" ry="17" fill="#CED4DA"/>
<path fill-rule="evenodd" clip-rule="evenodd" d="M82 29C62.67 29 47 44.67 47 64V100.903V121V129.097C57.134 130.93 69.3502 132 82.5 132C95.2201 132 107.067 130.999 117 129.274V121V100.726V64C117 44.67 101.33 29 82 29Z" fill="white"/>
<path d="M47 64C47 44.67 62.67 29 82 29C101.33 29 117 44.67 117 64V71H47V64Z" fill="#FFD600"/>
<circle cx="39" cy="125" r="10" fill="white"/>
<circle cx="125" cy="125" r="10" fill="white"/>
<circle cx="70" cy="95" r="2" fill="#495057"/>
<circle cx="94" cy="95" r="2" fill="#495057"/>
<path d="M82.33 103.999C84.36 103.999 86 105.739 86 107.869C86 108.279 85.66 108.619 85.25 108.619C84.84 108.619 84.5 108.279 84.5 107.869C84.5 106.559 83.53 105.499 82.33 105.499C81.13 105.499 80.16 106.559 80.16 107.869C80.16 108.279 79.82 108.619 79.41 108.619C79 108.619 78.66 108.279 78.66 107.869C78.66 105.739 80.3 103.999 82.33 103.999Z" fill="#495057"/>
<rect x="43" y="71" width="78" height="8" rx="4" fill="#FF9600"/>
<circle cx="82" cy="57" r="10" fill="#F44680"/>
<circle cx="82" cy="57" r="8" fill="#D8F2FF"/>
<path d="M29.0213 29.2194L32.4666 64.6566C32.4815 64.8095 32.6561 64.8893 32.7814 64.8004L35.9112 62.5802C35.9666 62.541 35.9982 62.4763 35.9953 62.4084L34.55 29.1913C34.5453 29.0843 34.4573 29 34.3502 29H29.2204C29.1023 29 29.0099 29.1018 29.0213 29.2194Z" fill="#CED4DA"/>
<path d="M33.0803 67.4587L35.6712 65.2769C35.8012 65.1674 36 65.2598 36 65.4299V68.4134C36 68.4686 35.9771 68.5215 35.9368 68.5593L33.6303 70.7216C33.5091 70.8352 33.3103 70.7601 33.2944 70.5948L33.01 67.6308C33.0037 67.5654 33.03 67.501 33.0803 67.4587Z" fill="#CED4DA"/>
</svg>
