<svg width="20" height="20" viewBox="0 0 20 20" fill="none" xmlns="http://www.w3.org/2000/svg">
<path d="M3.18018 13.9419C3.20777 13.8075 3.18844 13.6677 3.12542 13.5458C2.57669 12.4843 2.2665 11.2792 2.2665 9.99984C2.2665 5.72884 5.72884 2.2665 9.99984 2.2665C14.2708 2.2665 17.7332 5.72884 17.7332 9.99984C17.7332 14.2708 14.2708 17.7332 9.99984 17.7332C8.72051 17.7332 7.51538 17.423 6.45388 16.8742C6.33198 16.8112 6.19216 16.7919 6.05773 16.8195L2.43716 17.5625L3.18018 13.9419Z" stroke="#6C757D" stroke-width="1.2" stroke-linecap="round" stroke-linejoin="round"/>
<rect x="6.25" y="10" width="0.00833333" height="0.00833333" stroke="#6C757D" stroke-width="2" stroke-linejoin="round"/>
<rect x="10" y="10" width="0.00833333" height="0.00833333" stroke="#6C757D" stroke-width="2" stroke-linejoin="round"/>
<rect x="13.75" y="10" width="0.00833333" height="0.00833333" stroke="#6C757D" stroke-width="2" stroke-linejoin="round"/>
</svg>
