<svg width="60" height="60" viewBox="0 0 60 60" fill="none" xmlns="http://www.w3.org/2000/svg">
<circle cx="30" cy="30" r="30" fill="#F9E000"/>
<path d="M30 16.6667C21.8996 16.6667 15.3334 21.8024 15.3334 28.1411C15.3334 32.2655 18.1138 35.8802 22.2901 37.9027C21.9827 39.0345 21.1795 42.008 21.0189 42.6437C20.8195 43.433 21.3097 43.422 21.6337 43.211C21.8857 43.0439 25.6521 40.5089 27.2777 39.4155C28.1612 39.5443 29.0695 39.6128 30 39.6128C38.1005 39.6128 44.6667 34.4771 44.6667 28.1411C44.6667 21.8051 38.1005 16.6667 30 16.6667Z" fill="#371C1D"/>
<path d="M19.8115 26.0097H21.3361C21.3361 26.0097 21.3445 30.141 21.3361 31.1041C21.3361 31.8078 22.9222 31.8161 22.9194 31.1152L22.925 26.0649C22.925 26.0649 23.4369 26.0677 24.4412 26.0677C25.3895 26.0677 25.3895 24.5968 24.4412 24.5968C23.3726 24.5968 19.8031 24.5664 19.8031 24.5664C18.908 24.5664 18.9108 26.0097 19.8031 26.0097" fill="#F9E000"/>
<path d="M27.1097 26.2773L27.9573 28.899H26.1893L27.1097 26.2773ZM26.1586 25.0493C25.7837 25.8634 24.427 29.7132 23.9794 30.7342C23.6549 31.4711 25.0564 32.0727 25.3809 31.3359L25.6858 30.2844H28.4748C28.4748 30.2844 28.3797 30.3286 28.7489 31.2917C29.0482 32.0727 30.4973 31.5318 30.198 30.7508C29.77 29.6359 28.2874 25.6178 28.016 25.0493C27.8929 24.7871 27.4454 24.5967 27.0118 24.5967C26.6537 24.5967 26.304 24.7264 26.1558 25.0493" fill="#F9E000"/>
<path d="M30.7351 25.2894C30.7351 26.5975 30.7435 30.8143 30.7435 30.8143C30.7435 30.8143 30.6204 31.6532 31.3505 31.6532C32.0807 31.6532 33.6947 31.6449 34.4109 31.6449C35.127 31.6449 35.1242 30.1409 34.4081 30.1409C33.6919 30.1409 32.3828 30.1326 32.3828 30.1326C32.3828 30.1326 32.3884 26.2332 32.3856 25.2838C32.3856 24.8257 31.9716 24.5967 31.5603 24.5967C31.1491 24.5967 30.7323 24.8285 30.7351 25.2866" fill="#F9E000"/>
<path d="M35.3174 25.0796C35.3342 25.6536 35.2979 30.8419 35.2979 31.2255C35.2979 31.8326 36.8644 31.8298 36.8644 31.2255C36.8644 30.5217 36.8644 29.1833 36.8644 29.1833L37.3231 28.819L39.3344 31.5235C39.7401 32.0534 41.0185 31.0958 40.6128 30.5687L38.4784 27.7952C38.4784 27.7952 39.9275 26.2497 40.4981 25.6895C40.831 25.3639 39.7988 24.3373 39.4659 24.6657C39.1442 24.9803 36.8728 27.2239 36.8728 27.2239C36.8728 27.2239 36.8923 25.8165 36.8728 25.0382C36.8644 24.7429 36.4979 24.5994 36.1203 24.5994C35.7175 24.5994 35.3062 24.7622 35.3146 25.0796" fill="#F9E000"/>
</svg>
