<svg width="40" height="40" viewBox="0 0 40 40" fill="none" xmlns="http://www.w3.org/2000/svg">
<path d="M5.15332 5.15344H21.8264C31.0347 5.15344 38.4995 12.6182 38.4995 21.8265C38.4995 31.0348 31.0347 38.4996 21.8264 38.4996C12.6181 38.4996 5.15332 31.0348 5.15332 21.8265V5.15344Z" fill="white" stroke="#495057"/>
<circle cx="5.38462" cy="5.38462" r="3.88462" fill="#FFB800" stroke="#495057"/>
<circle cx="18.5392" cy="17.8081" r="0.961538" fill="#495057" stroke="#495057"/>
<circle cx="27.3082" cy="17.8081" r="0.961538" fill="#495057" stroke="#495057"/>
<circle cx="29.1336" cy="21.8269" r="1.82692" fill="#FBC1D4"/>
<circle cx="16.7112" cy="21.8269" r="1.82692" fill="#FBC1D4"/>
<path d="M23.6629 21.629C23.8568 21.5326 24.0734 21.4764 24.2961 21.4645C24.5188 21.4527 24.7416 21.4856 24.9475 21.5607C25.1534 21.6358 25.3369 21.7511 25.4839 21.8978C25.6308 22.0445 25.7374 22.2187 25.7954 22.407C25.8534 22.5953 25.8613 22.7927 25.8185 22.9841C25.7756 23.1754 25.6832 23.3557 25.5483 23.511C25.4134 23.6663 25.2396 23.7925 25.0402 23.88C24.8408 23.9675 24.6211 24.0139 24.398 24.0157C24.7663 24.0417 25.1099 24.1879 25.3604 24.4252C25.6109 24.6626 25.75 24.9737 25.75 25.2966C25.75 25.6195 25.6109 25.9306 25.3604 26.168C25.1099 26.4053 24.7663 26.5515 24.398 26.5775C24.1366 26.5769 23.8798 26.5165 23.6533 26.4023" stroke="#495057" stroke-linecap="round" stroke-linejoin="round"/>
</svg>
