<svg width="180" height="137" viewBox="0 0 180 137" fill="none" xmlns="http://www.w3.org/2000/svg">
<path d="M127.34 91.5104C126.04 91.5104 124.78 91.6404 123.57 91.9004C119.3 81.3304 108.98 73.8504 96.8702 73.7904C92.7802 73.7704 88.8802 74.6104 85.3402 76.1204C82.5802 61.3204 69.6402 50.0804 54.0302 50.0004C36.3502 49.9104 21.9502 64.1804 21.8602 81.8604C21.8602 82.3404 21.8702 82.8104 21.8902 83.2904C21.5002 83.2604 21.1202 83.2304 20.7202 83.2304C10.4302 83.1704 2.05022 91.4704 2.00022 101.76C1.95022 112.05 10.2502 120.43 20.5402 120.48C21.4802 120.48 22.4002 120.4 23.3102 120.27C24.3102 129.2 31.8602 136.16 41.0602 136.2C47.3402 136.23 52.8702 133.03 56.1102 128.16C58.6102 129.96 61.6602 131.04 64.9702 131.05C70.2202 131.08 74.8602 128.46 77.6402 124.45C82.7002 128.9 89.3202 131.61 96.5802 131.64C104.28 131.68 111.28 128.7 116.49 123.82C119.47 126.05 123.15 127.4 127.15 127.42C137.07 127.47 145.15 119.47 145.2 109.55C145.25 99.6304 137.25 91.5504 127.33 91.5004L127.34 91.5104Z" fill="#F8F9FA"/>
<path d="M62.5351 89.6854C59.8678 90.4001 57.1261 88.8172 56.4114 86.1499L47.3527 52.3425C41.6351 31.0038 54.2984 9.07034 75.637 3.35267C96.9757 -2.36501 118.909 10.2983 124.627 31.6369C130.344 52.9756 117.681 74.9091 96.3425 80.6267L62.5351 89.6854Z" fill="#FF4B4B"/>
<rect x="52.9907" y="8.98926" width="65" height="65" rx="32.5" fill="white"/>
<path d="M89.0444 53.2709C92.7922 54.3159 93.7739 58.4125 91.6282 59.2662C89.7599 60.0118 89.6395 58.117 87.848 57.6175C86.0565 57.118 84.792 58.4954 83.7385 57.0663C82.3573 55.2061 85.5474 52.2959 89.0444 53.2709Z" fill="#495057"/>
<circle cx="83.0004" cy="42.999" r="2" fill="#495057"/>
<circle cx="100" cy="47.999" r="2" fill="#495057"/>
<path d="M64.5154 43.3467C65.3577 41.2847 69.7036 37.1251 71.9609 34.8391C71.8301 37.9938 71.9938 44.4768 71.3199 46.1264C70.4609 48.2292 68.9531 49.4905 66.4014 48.4481C63.8145 47.3913 63.673 45.4087 64.5154 43.3467Z" fill="#D8F2FF"/>
<path d="M65.603 31.8485C66.1008 30.6301 68.7719 28.2142 70.1573 26.8845C70.1251 28.767 70.3314 32.6427 69.9332 33.6174C69.4256 34.86 68.4959 35.5895 66.8721 34.9262C65.2259 34.2537 65.1053 33.067 65.603 31.8485Z" fill="#D8F2FF"/>
<path d="M140.09 61.9905C140.038 61.8632 139.967 61.7305 139.888 61.5963C139.758 61.363 139.459 61.2067 139.085 61.0915C138.31 60.8509 137.183 60.8034 136.405 60.6977C137.72 59.7948 139.438 59.3168 139.468 57.4451C139.477 56.6099 138.454 56.1391 137.42 55.4351C138.282 55.3488 139.801 54.9417 140.487 54.6627C141.926 54.076 142.398 53.173 142.546 52.5154C142.762 51.5222 141.716 50.0555 140.712 48.7857C140.847 48.9577 141.821 48.9966 142.057 49.0359C143.367 49.2494 144.725 49.1857 145.697 48.071C146.797 46.8197 146.169 45.795 145.725 44.5904C147.191 45.5317 149.031 46.9482 151.008 45.8363C151.591 45.5071 152.079 45.0093 152.358 44.451C152.488 44.1903 153.147 43.0676 153.067 42.8598C153.411 43.7452 154.005 45.5626 154.742 45.9686C156.432 46.9031 158.512 46.0986 160.038 45.0931C160.472 44.8073 160.867 44.4686 161.32 44.1991C159.425 47.4281 158.973 49.4198 159.636 50.1211C159.716 50.2056 159.8 50.2784 159.888 50.3429C160.671 50.9169 161.823 50.848 162.811 50.6293C163.697 50.4308 164.864 50.1779 165.677 49.6531C165.908 49.517 166.109 49.3467 166.269 49.159C165.949 49.5344 165.631 49.9196 165.331 50.307C164.008 52.0311 163.023 53.7948 163.569 54.9652C164.024 55.9444 165.613 55.9564 166.382 56.5902C166.349 56.557 164.61 57.0792 164.448 57.1511C163.869 57.4189 163.486 57.9205 163.355 58.4957C163.114 59.5415 163.858 61.082 165.808 62.681C162.986 61.5451 159.476 60.2903 157.558 61.0478C156.653 61.3998 155.895 62.0229 155.58 62.9154C154.755 65.3108 155.349 67.4071 156.492 70.0199C155.388 68.925 154.021 67.2758 152.49 66.7719C151.07 66.2981 149.123 66.5868 148.11 67.7479C146.981 69.0386 146.281 70.9028 145.724 72.4886C145.703 72.5436 145.685 72.5977 145.668 72.6519C145.66 72.5833 145.651 72.5082 145.642 72.4364C145.271 69.4121 145.058 66.6455 143.763 65.902C142.842 65.3721 141.704 65.3877 140.284 65.9517C139.984 66.0709 139.122 66.6654 138.494 67.0807C138.263 67.2309 138.062 67.3589 137.932 67.436C138.045 67.3104 138.152 67.19 138.258 67.0663C138.633 66.641 138.984 66.2295 139.284 65.8313C140.247 64.5463 140.719 63.3644 140.095 61.9962L140.09 61.9905Z" fill="#FFD600"/>
<path d="M148.875 57.9993L152 60.9993L150.75 63.9993L147 63.2493L150.125 61.7493L148.875 57.9993Z" fill="#495057"/>
<path fill-rule="evenodd" clip-rule="evenodd" d="M174.007 50.5805C172.798 49.1757 170.68 49.0167 169.275 50.2254L159.948 58.2501C159.83 58.3518 159.721 58.4599 159.62 58.5735C159.442 58.6988 159.269 58.8339 159.1 58.9788C156.291 61.3962 155.973 65.6335 158.39 68.4431C160.808 71.2527 165.045 71.5707 167.855 69.1532C167.87 69.1402 167.885 69.1272 167.9 69.1141C167.908 69.1077 167.915 69.1011 167.923 69.0945L174.636 63.3186C175.104 62.9157 175.157 62.2095 174.755 61.7412C174.352 61.2729 173.645 61.2199 173.177 61.6228L170.188 64.1951C170.188 64.1948 170.188 64.1945 170.188 64.1943L174.874 60.1622C175.81 59.3564 175.916 57.9439 175.11 57.0074C174.321 56.0895 172.948 55.9694 172.012 56.7236L173.652 55.3127C175.057 54.104 175.216 51.9853 174.007 50.5805Z" fill="#ACDEF6"/>
<path fill-rule="evenodd" clip-rule="evenodd" d="M172.591 67.9235C172.876 66.9368 173.029 65.894 173.029 64.8156C173.029 58.6382 168.021 53.6304 161.844 53.6304C155.666 53.6304 150.658 58.6382 150.658 64.8156C150.658 70.993 155.666 76.0008 161.844 76.0008C163.537 76.0008 165.143 75.6244 166.582 74.9506C167.691 75.2624 168.861 75.4292 170.07 75.4292C172.891 75.4292 175.5 74.5212 177.62 72.9816H177.618C177.882 72.7726 178.051 72.4495 178.051 72.0869C178.051 71.5769 177.716 71.145 177.254 70.9989C177.352 70.9328 177.45 70.8654 177.546 70.7966C177.566 70.783 177.586 70.7688 177.605 70.754L177.62 70.7431H177.619C177.882 70.5341 178.051 70.2113 178.051 69.8491C178.051 69.219 177.54 68.7082 176.91 68.7082C176.895 68.7082 176.881 68.7085 176.866 68.7091C175.373 68.6612 173.938 68.3884 172.591 67.9235Z" fill="#1CB0F6"/>
<path fill-rule="evenodd" clip-rule="evenodd" d="M177.258 54.3182C176.351 52.7023 174.305 52.128 172.689 53.0354L161.961 59.0598C161.825 59.1362 161.696 59.2206 161.575 59.3122C161.376 59.3999 161.179 59.4981 160.986 59.6069C157.754 61.4217 156.605 65.5128 158.42 68.7445C160.235 71.9763 164.326 73.1249 167.558 71.3101C167.568 71.3045 167.578 71.2989 167.588 71.2932C167.604 71.2848 167.621 71.276 167.638 71.2667L175.359 66.9306C175.898 66.6281 176.089 65.9462 175.787 65.4076C175.487 64.8739 174.815 64.6811 174.279 64.9718L176.216 63.8842C177.293 63.2793 177.676 61.9156 177.071 60.8383C176.466 59.7611 175.102 59.3782 174.025 59.9831L170.124 62.1738L170.124 62.1731L175.975 58.887C177.591 57.9796 178.165 55.9341 177.258 54.3182Z" fill="#74CCF6"/>
<circle cx="156.5" cy="58.4993" r="1.5" fill="white"/>
<path d="M113 101.381C113 94.9083 107.707 89.6611 101.178 89.6611C100.944 89.6611 100.709 89.6708 100.475 89.6853C98.6226 84.065 93.291 80 87.0015 80C82.2416 80 78.0291 82.3305 75.4585 85.9013C74.3688 85.1212 73.0346 84.661 71.5881 84.661C67.9229 84.661 64.9516 87.6068 64.9516 91.2406C64.9516 91.2503 64.9516 91.2648 64.9516 91.2745C58.8283 91.7154 54 96.7736 54 102.956C54 109.138 59.2926 114.676 65.8215 114.676C67.9913 114.676 70.0194 114.095 71.764 113.087C72.7512 118.717 77.7016 123 83.6637 123C87.8567 123 91.5463 120.883 93.7113 117.67C94.7277 118.3 95.925 118.669 97.2103 118.669C100.631 118.669 103.446 116.101 103.808 112.801C109.066 111.614 112.995 106.948 112.995 101.376L113 101.381Z" fill="#F8F9FA"/>
</svg>
