<svg width="40" height="40" viewBox="0 0 40 40" fill="none" xmlns="http://www.w3.org/2000/svg">
<path d="M1.5 21.8265C1.5 12.6182 8.96479 5.15344 18.1731 5.15344H34.8462V21.8265C34.8462 31.0348 27.3814 38.4996 18.1731 38.4996C8.96479 38.4996 1.5 31.0348 1.5 21.8265Z" fill="white" stroke="#495057"/>
<circle cx="34.6156" cy="5.38462" r="3.88462" fill="#FFB800" stroke="#495057"/>
<g clip-path="url(#clip0_5710_79789)">
<path d="M21.8732 19.5886C21.8732 22.5117 23.3347 23.9732 26.2578 23.9732M26.2578 23.9732C23.3347 23.9732 21.8732 25.4348 21.8732 28.3579M17.4886 23.9732C20.4117 23.9732 21.8732 22.5117 21.8732 19.5886M21.8732 28.3579C21.8732 25.4348 20.4117 23.9732 17.4886 23.9732" stroke="#495057"/>
</g>
<g clip-path="url(#clip1_5710_79789)">
<path d="M9.44888 19.5886C9.44888 22.5117 10.9104 23.9732 13.8335 23.9732M13.8335 23.9732C10.9104 23.9732 9.44888 25.4348 9.44888 28.3579M5.06426 23.9732C7.98734 23.9732 9.44888 22.5117 9.44888 19.5886M9.44888 28.3579C9.44888 25.4348 7.98734 23.9732 5.06426 23.9732" stroke="#495057"/>
</g>
<rect x="13.9224" y="29.2689" width="2.65385" height="4.11538" rx="1.32692" stroke="#495057"/>
<circle cx="23.2888" cy="30.5958" r="1.82692" fill="#FBC1D4"/>
<circle cx="7.94265" cy="30.5958" r="1.82692" fill="#FBC1D4"/>
<defs>
<clipPath id="clip0_5710_79789">
<rect width="10.2308" height="10.2308" fill="white" transform="translate(16.3467 19.2689)"/>
</clipPath>
<clipPath id="clip1_5710_79789">
<rect width="10.2308" height="10.2308" fill="white" transform="translate(3.92236 19.2689)"/>
</clipPath>
</defs>
</svg>
