<svg width="24" height="24" viewBox="0 0 24 24" fill="none" xmlns="http://www.w3.org/2000/svg">
<g clip-path="url(#clip0_118_4426)">
<path d="M20.7203 14.2226C22.5316 12.3392 22.5316 9.28549 20.7203 7.40203C18.9089 5.51858 15.9722 5.51858 14.1608 7.40203C12.3495 9.28549 12.3495 12.3392 14.1608 14.2226C15.9722 16.1061 18.9089 16.1061 20.7203 14.2226Z" fill="#C9DFEA"/>
<path d="M19.758 13.9553C21.3747 12.2743 21.4125 9.58824 19.8426 7.9558C18.2727 6.32336 15.6894 6.36273 14.0728 8.04372C12.4562 9.72471 12.4183 12.4108 13.9883 14.0432C15.5582 15.6756 18.1414 15.6363 19.758 13.9553Z" fill="#FEDCD1"/>
<path d="M10.6547 12.9593C12.466 11.0758 12.466 8.02212 10.6547 6.13867C8.84337 4.25521 5.9066 4.25521 4.09526 6.13867C2.28392 8.02212 2.28392 11.0758 4.09526 12.9593C5.9066 14.8427 8.84337 14.8427 10.6547 12.9593Z" fill="#C9DFEA"/>
<path d="M10.5262 12.4552C12.0958 10.8231 12.0958 8.17692 10.5262 6.54481C8.95653 4.91269 6.41167 4.91269 4.84204 6.54481C3.27242 8.17692 3.27242 10.8231 4.84204 12.4552C6.41167 14.0873 8.95653 14.0873 10.5262 12.4552Z" fill="#FEDCD1"/>
<path d="M11.8099 15.9332C10.5015 15.7987 9.12226 15.2402 8.10834 14.4959C6.7837 13.5229 6.05161 11.9802 6.00238 10.5094C5.94457 8.78265 6.93997 7.47183 8.41636 6.44292C8.75463 6.20703 9.11142 5.98945 9.48673 5.79957C10.068 5.5056 10.698 5.28489 11.3538 5.14148C12.8347 4.81757 14.1092 5.05257 15.3923 5.81878C17.7579 7.23147 19.5654 9.91342 18.8364 12.4095C18.4738 13.6511 17.5267 14.7653 16.2436 15.372C14.9099 16.0029 13.3184 16.0878 11.8099 15.9332Z" fill="#C9DFEA"/>
<path d="M19.676 17.6977C19.754 17.5969 19.8069 17.47 19.8222 17.3273C19.8634 16.947 19.6207 16.6014 19.2807 16.5553C18.9407 16.5093 18.6318 16.7807 18.5906 17.1611C18.5858 17.2058 18.5854 17.25 18.5878 17.2934C16.0334 18.1015 14.5879 15.8788 14.5879 15.8788C14.5879 15.8788 13.9435 15.9988 13.0473 16C12.533 16.0007 11.9565 15.9474 11.3283 15.8654C12.3092 20.5463 17.6461 18.8436 18.8083 18.5748C18.8919 18.7971 19.0764 18.9642 19.3053 18.9949C19.6453 19.041 19.9542 18.7695 19.9954 18.3892C20.0269 18.0983 19.8929 17.8296 19.676 17.6977Z" fill="#C9DFEA"/>
<path d="M10.9963 11.5598C10.9631 11.8341 10.714 12.0296 10.4402 11.9963C10.1659 11.9631 9.97045 11.714 10.0037 11.4402C10.0369 11.1664 10.286 10.9705 10.5598 11.0037C10.8341 11.0369 11.0295 11.286 10.9963 11.5598Z" fill="black"/>
<path d="M15.9963 11.5598C15.9631 11.8341 15.714 12.0296 15.4402 11.9963C15.1659 11.9631 14.9704 11.714 15.0037 11.4402C15.0369 11.1659 15.286 10.9705 15.5598 11.0037C15.8341 11.0369 16.0295 11.286 15.9963 11.5598Z" fill="black"/>
</g>
<defs>
<clipPath id="clip0_118_4426">
<rect width="24" height="24" fill="white"/>
</clipPath>
</defs>
</svg>
