<svg width="40" height="40" viewBox="0 0 40 40" fill="none" xmlns="http://www.w3.org/2000/svg">
<path d="M1.5 21.8265C1.5 12.6182 8.96479 5.15344 18.1731 5.15344H34.8462V21.8265C34.8462 31.0348 27.3814 38.4996 18.1731 38.4996C8.96479 38.4996 1.5 31.0348 1.5 21.8265Z" fill="white" stroke="#495057"/>
<path d="M29.5 24.6504C29.5 22.7682 31.6923 18.1252 32.7885 15.6155C33.7476 18.1252 36.0769 23.1446 36.0769 24.6504C36.0769 26.57 35.2548 28.0386 32.7885 28.0386C30.2881 28.0386 29.5 26.5327 29.5 24.6504Z" fill="#ACDEF6"/>
<circle cx="34.6156" cy="5.38462" r="3.88462" fill="#FFB800" stroke="#495057"/>
<rect x="10.5" y="21.4622" width="2.19231" height="4.38462" rx="1.09615" fill="#495057"/>
<rect x="19.269" y="21.4622" width="2.19231" height="4.38462" rx="1.09615" fill="#495057"/>
<path d="M9.98779 30.2311C10.542 30.8401 11.5838 32.058 13.9778 32.058C16.9703 32.058 16.9703 30.2311 19.6303 30.2311C21.7583 30.2311 22.8445 30.9618 23.2878 31.3272" stroke="#495057" stroke-linecap="round"/>
<ellipse cx="22.9233" cy="27.6738" rx="2.19231" ry="1.09615" fill="#FBC1D4"/>
<ellipse cx="9.03899" cy="27.6738" rx="2.19231" ry="1.09615" fill="#FBC1D4"/>
</svg>
