<svg width="181" height="137" viewBox="0 0 181 137" fill="none" xmlns="http://www.w3.org/2000/svg">
<rect x="0.5" width="180" height="137" fill="#E9ECEF"/>
<path d="M143.527 51.9074C143.856 60.4591 135.027 67.4074 131.027 70.4074L145.527 77.907C146.527 76.5736 148.8 74.8074 152 70.4074C156 64.9074 157.5 60.4078 156 51.9074C154.87 45.5063 164.285 39.3032 167 41.0002C171 43.5006 174.055 36.7711 169 33.5001C160.5 28.0003 143.027 38.9068 143.527 51.9074Z" fill="white"/>
<path d="M61.2864 27.8818C67.1231 17.1813 78.3385 10.5234 90.5273 10.5234C102.716 10.5234 113.932 17.1813 119.768 27.8818L138.695 62.5809C156.869 95.8996 132.753 136.523 94.8002 136.523H86.2545C48.3015 136.523 24.1858 95.8996 42.3597 62.5808L61.2864 27.8818Z" fill="white"/>
<path d="M62.8067 12.1714C62.6797 11.3923 63.4632 10.7801 64.1885 11.0918L76.6797 16.46C77.3781 16.7601 77.4995 17.6988 76.9006 18.1668L66.5962 26.2174C65.9972 26.6854 65.1158 26.3404 64.9935 25.5902L62.8067 12.1714Z" fill="white"/>
<path d="M119.151 10.0921C119.876 9.78041 120.66 10.3926 120.533 11.1717L118.346 24.5905C118.224 25.3407 117.342 25.6857 116.743 25.2177L106.439 17.1671C105.84 16.6991 105.961 15.7604 106.66 15.4603L119.151 10.0921Z" fill="white"/>
<path d="M64.4309 13.7228C64.2274 12.8867 65.105 12.201 65.8671 12.6008L74.4609 17.1087C75.1041 17.4461 75.1844 18.3351 74.612 18.7822L68.3132 23.7034C67.7408 24.1506 66.8977 23.8577 66.7259 23.1519L64.4309 13.7228Z" fill="#FBC1D4"/>
<path d="M117.617 11.6143C118.362 11.2577 119.194 11.9075 119.028 12.7169L117.079 22.238C116.93 22.9653 116.069 23.2825 115.484 22.8254L108.666 17.499C108.081 17.0419 108.181 16.1293 108.85 15.8089L117.617 11.6143Z" fill="#FBC1D4"/>
<line x1="80.2299" y1="35.4119" x2="76.5533" y2="33.8363" stroke="#495057" stroke-width="2" stroke-linecap="round"/>
<line x1="102.357" y1="35.5115" x2="105.767" y2="33.4204" stroke="#495057" stroke-width="2" stroke-linecap="round"/>
<path d="M85.4277 45.5234C85.7611 46.1901 86.8277 47.5234 88.4277 47.5234C90.0277 47.5234 91.0944 46.1901 91.4277 45.5234C91.9277 46.0234 92.3277 47.5234 93.9277 47.5234C95.5277 47.5234 96.5944 46.1901 96.9277 45.5234" stroke="#495057" stroke-linecap="round"/>
<path d="M92.3051 45.5613C91.9048 46.0564 91.1499 46.0564 90.7496 45.5613L89.8127 44.4021C89.2841 43.7481 89.7495 42.7734 90.5904 42.7734L92.4643 42.7734C93.3052 42.7734 93.7706 43.7481 93.242 44.4021L92.3051 45.5613Z" fill="#495057"/>
<path d="M113.215 43.1316L120.692 41.3177M114.13 46.6904L121.573 48.3883" stroke="#495057" stroke-linecap="round" stroke-linejoin="round"/>
<path d="M68.7434 47.9232L61.0611 48.3293M68.8679 44.291L61.8652 41.2515" stroke="#495057" stroke-linecap="round" stroke-linejoin="round"/>
<rect x="25.0273" y="66.5234" width="133" height="70" fill="#B8BFFF"/>
<path d="M25.0273 66.5234H158.027L166.027 92.5234H17.0273L25.0273 66.5234Z" fill="#DADBFF"/>
<path d="M44.0273 111.523C44.0273 112.628 43.1319 113.523 42.0273 113.523C40.9228 113.523 40.0273 112.628 40.0273 111.523C40.0273 110.419 40.9228 109.523 42.0273 109.523C43.1319 109.523 44.0273 110.419 44.0273 111.523Z" fill="#DADBFF"/>
<path d="M36.0273 115.523C36.0273 116.628 35.1319 117.523 34.0273 117.523C32.9228 117.523 32.0273 116.628 32.0273 115.523C32.0273 114.419 32.9228 113.523 34.0273 113.523C35.1319 113.523 36.0273 114.419 36.0273 115.523Z" fill="#DADBFF"/>
<path d="M37.0273 120.523C37.0273 121.628 36.1319 122.523 35.0273 122.523C33.9228 122.523 33.0273 121.628 33.0273 120.523C33.0273 119.419 33.9228 118.523 35.0273 118.523C36.1319 118.523 37.0273 119.419 37.0273 120.523Z" fill="#DADBFF"/>
<path d="M39.0273 111.523C39.0273 112.628 38.1319 113.523 37.0273 113.523C35.9228 113.523 35.0273 112.628 35.0273 111.523C35.0273 110.419 35.9228 109.523 37.0273 109.523C38.1319 109.523 39.0273 110.419 39.0273 111.523Z" fill="#DADBFF"/>
<path d="M38.1933 119.062C37.3128 116.927 39.0737 114.64 41.3629 114.945L45.6551 115.517C47.9443 115.822 49.0449 118.49 47.6361 120.32L44.9948 123.752C43.5861 125.582 40.7246 125.2 39.8442 123.065L38.1933 119.062Z" fill="#DADBFF"/>
<path d="M21.2142 19.8374C21.2625 19.924 21.3638 19.9464 21.4382 20.0004C21.639 20.1271 21.8473 20.2397 22.0602 20.3431C22.5845 20.6132 22.8541 20.7193 23.3152 20.9792C23.5579 21.1356 23.5969 21.1608 23.7159 21.2837C23.7438 21.3163 23.7736 21.347 23.7987 21.3815C23.7113 21.6367 23.3533 22.6127 23.2223 23.1314C23.107 23.5225 22.988 23.9137 22.9517 24.3207C22.8625 24.8711 22.8216 25.4242 22.8504 25.9746C22.8643 26.471 22.9415 26.9935 23.2604 27.3464C23.5216 27.6519 23.9288 27.7562 24.1594 27.7385C24.4485 27.732 24.772 27.6333 24.9422 27.338C25.1643 26.9069 25.5334 26.2298 25.6217 25.9979C25.8625 25.5015 25.988 25.3302 26.2139 24.9092C26.5217 24.3831 27.099 23.5942 27.2505 23.4303C27.2505 23.4303 27.2515 23.4294 27.2524 23.4285C27.3407 23.4397 27.4597 23.4862 27.5127 23.5523C27.5155 23.557 27.5183 23.5626 27.5211 23.5672C27.5369 23.5961 27.5861 23.6846 27.5954 23.72C27.6168 23.7731 27.6438 23.8746 27.6401 23.9072C27.6094 24.2946 27.3946 25.0098 27.3063 25.6021C27.2208 26.0817 27.1659 26.5651 27.1427 27.0484C27.1287 27.4889 27.1055 27.6295 27.204 28.0374C27.3305 28.5664 27.813 28.8831 28.2825 28.5422C28.5158 28.3727 28.672 28.1045 28.8217 27.8503C29.0494 27.4545 29.2679 27.0521 29.5338 26.6843C29.7625 26.3444 30.1362 25.9225 30.5527 25.5202C30.7331 25.3609 30.9804 25.1858 31.1961 25.2855C31.5744 25.4987 31.6525 25.6319 31.5995 26.064C31.5986 26.0715 31.5967 26.0799 31.5958 26.0901C31.5726 26.2652 31.4015 27.027 31.3011 27.4163C31.0817 28.2721 30.7758 30.3843 31.5763 30.6786C32.2884 30.8825 32.7198 29.9615 33.0256 29.3785C33.2395 29.0833 33.5611 28.436 33.6876 28.1324C33.8187 27.8475 33.9776 27.5793 34.1515 27.3222C34.3597 27.0195 34.4834 26.8398 34.8274 26.5716C34.9603 26.4459 34.8803 26.1972 34.7139 26.2037C34.6275 26.2 34.5643 26.2782 34.4955 26.3285C34.052 26.6759 33.7666 27.2002 33.4477 27.6733C33.1428 28.138 32.902 28.6782 32.7691 29.0349C32.7458 29.0861 32.7207 29.1615 32.7068 29.209C32.4911 29.7054 32.1945 30.1953 31.9147 30.2949C31.3495 30.5575 31.4396 29.0814 31.5763 28.2265C31.6321 27.7897 31.8524 27.0736 31.9509 26.4477C32.0077 26.1013 32.095 25.7278 31.9575 25.4065C31.8357 25.1253 31.594 24.9307 31.3336 24.8226C30.6429 24.5609 29.8564 25.4447 29.3274 26.119C29.1145 26.4114 28.9146 26.7169 28.7361 27.0354C28.5102 27.4563 28.1653 28.0682 28.0621 28.112C27.905 28.2302 27.7107 28.2312 27.5954 27.7758C27.5369 27.4675 27.5555 27.4098 27.5731 27.0512C27.6047 26.4831 27.7005 25.8517 27.7804 25.4764C27.8613 25.0834 27.9524 24.6913 28.0324 24.2974C28.1142 23.9575 28.1179 23.6259 27.9041 23.3661C27.7814 23.2152 27.7247 23.1351 27.4755 23.0364C27.3798 23.0057 27.2821 22.9647 27.178 22.9889C26.9065 23.0839 26.8052 23.3223 26.5598 23.6175C26.1108 24.235 25.6608 24.8552 25.3103 25.5453C25.116 25.9625 25.0453 26.1516 24.7915 26.6228C24.7097 26.7793 24.6502 26.9488 24.5591 27.0996C24.5535 27.1089 24.547 27.1173 24.5415 27.1257C24.5284 27.1397 24.5136 27.1537 24.5033 27.163C24.5006 27.1648 24.4978 27.1676 24.495 27.1695C24.3964 27.2244 24.4401 27.2058 24.2635 27.2477C23.9279 27.2608 23.9586 27.2645 23.6648 27.0745C23.4101 26.8798 23.3031 26.3872 23.2985 25.9318C23.265 25.2901 23.3468 24.6448 23.4528 24.005C23.4909 23.8643 23.7717 22.9051 23.9186 22.5195C24.0208 22.2495 24.125 21.9794 24.2207 21.7065C24.3713 21.3787 24.362 21.1133 24.1064 20.8851C23.807 20.5787 23.4138 20.4176 23.0373 20.2509C22.7463 20.114 21.9979 19.735 21.5358 19.4658C21.3304 19.3205 21.0766 19.6288 21.2151 19.8356L21.2142 19.8374Z" fill="#ADB5BD"/>
<path d="M27.2693 23.411C27.2693 23.411 27.2734 23.408 27.2754 23.408C27.2734 23.41 27.2693 23.412 27.2662 23.4151C27.2683 23.4131 27.2693 23.412 27.2703 23.411H27.2693Z" fill="#ADB5BD"/>
<path d="M15.1621 18.9441C15.1696 18.9385 15.177 18.9329 15.1836 18.9272C15.177 18.9319 15.177 18.9328 15.1808 18.93C15.1752 18.9347 15.1649 18.9441 15.15 18.9543C15.15 18.9543 15.15 18.9543 15.151 18.9534C15.1556 18.9497 15.1584 18.9469 15.1612 18.9441H15.1621Z" fill="#ADB5BD"/>
<path d="M32.1445 16.6302C32.1445 16.6302 32.1388 16.6169 32.136 16.5989C32.136 16.5989 32.136 16.6008 32.1369 16.6008C32.1398 16.6103 32.1417 16.6207 32.1445 16.6302Z" fill="#ADB5BD"/>
<path d="M35.5095 23.4932C35.5095 23.4932 35.516 23.5062 35.5198 23.5259C35.5188 23.524 35.5179 23.5221 35.517 23.5203C35.5142 23.5109 35.5123 23.5025 35.5095 23.4932Z" fill="#ADB5BD"/>
<path d="M32.0536 16.4336C32.0536 16.4336 32.0516 16.4317 32.0507 16.4307C32.0507 16.4307 32.0516 16.4316 32.0526 16.4326L32.0536 16.4336Z" fill="#ADB5BD"/>
<path d="M24.511 19.1608C24.4958 19.1532 24.4958 19.1513 24.5291 19.1693C24.5272 19.1693 24.5253 19.1674 24.5234 19.1665C24.5196 19.1646 24.5148 19.1627 24.511 19.1608Z" fill="#ADB5BD"/>
<path d="M14.5625 19.2066C14.569 19.2178 14.5774 19.2281 14.5858 19.2383C14.5867 19.242 14.5886 19.2457 14.5904 19.2513C14.6257 19.3463 14.7578 19.5866 14.9019 19.7822C15.0748 20.0141 15.2933 20.2013 15.5164 20.3726C15.8036 20.5924 16.1207 20.7759 16.4693 20.8597C16.8458 20.9537 17.2418 20.9109 17.6304 20.8997C18.0804 20.869 18.5387 20.8327 18.9738 20.6613C19.4396 20.4583 19.818 20.3046 20.3693 19.9889C20.4446 19.9433 20.5227 19.907 20.5942 19.8557C20.7541 19.7626 20.8694 19.5708 20.7058 19.4329C20.6407 19.3882 20.5701 19.3994 20.5161 19.4385C20.5152 19.4385 20.5124 19.4404 20.5087 19.4422C20.4957 19.4469 20.4883 19.4506 20.4855 19.4534C20.4715 19.4562 20.4566 19.4599 20.4436 19.4674C20.2893 19.54 20.3739 19.5028 20.2094 19.5736C19.9453 19.6928 19.6748 19.7878 19.4071 19.8921C19.1319 20.0047 18.8613 20.1379 18.5759 20.2078C18.1139 20.3233 17.4371 20.3558 16.7947 20.3298C16.4981 20.3121 15.8269 19.9833 15.349 19.5698C15.3472 19.568 15.3435 19.5642 15.3369 19.5587C15.2774 19.4991 15.2217 19.4339 15.1696 19.3659C15.0497 19.2085 15.0469 19.2048 14.9892 19.1061C14.9976 19.1191 14.9967 19.1163 14.992 19.1033C15.0413 19.0492 15.0952 19.0017 15.1501 18.9552C15.1464 18.958 15.1426 18.9608 15.1389 18.9636C15.1464 18.958 15.1538 18.9515 15.1622 18.9449C15.178 18.931 15.1845 18.9263 15.1836 18.9282C15.1919 18.9217 15.2003 18.9151 15.2096 18.9077C15.1966 18.9179 15.1882 18.9245 15.1836 18.9282C15.1836 18.9282 15.1817 18.93 15.1808 18.931C15.204 18.9133 15.3769 18.7782 15.4253 18.7456C15.7953 18.4718 16.1848 18.2325 16.5901 18.0379C17.5096 17.6113 18.7405 17.304 19.7045 17.318C19.8552 17.3226 19.9407 17.3347 20.0169 17.3431C20.0931 17.4949 20.3321 17.4586 20.3786 17.2779C20.412 17.1829 20.3655 17.0973 20.3284 17.02C20.2056 16.7564 20.1201 16.4724 20.0299 16.192C19.884 15.7562 19.8273 15.6035 19.752 15.3343C19.6004 14.7783 19.567 14.3574 19.5632 13.8489C19.5604 13.4037 19.5614 12.9549 19.6181 12.5088C19.7315 11.842 20.1536 10.7831 20.5505 10.4674C20.6082 10.527 20.6863 10.6313 20.7541 10.7337C21.7786 12.1512 22.1514 13.1206 22.2128 15.163C22.2221 15.5709 22.1979 15.9816 22.184 16.3913C22.1728 16.7042 22.1468 17.0237 22.2091 17.3264C22.4954 18.4802 23.5134 19.12 24.4449 19.5633C24.709 19.6704 24.9869 19.8073 24.9804 19.3333C25.0018 19.0045 25.2463 18.6125 25.5038 18.1561C25.8497 17.4754 26.1369 16.9492 26.6111 16.464C26.9569 16.071 27.6123 15.7562 27.9043 15.8018C27.9582 15.7851 28.0344 16.0011 28.0047 16.383C27.961 16.8654 27.7183 17.5145 27.5166 18.0975C27.3223 18.7391 26.4874 19.9805 26.942 20.6967C27.0629 20.8867 27.2033 21.0739 27.3846 21.1949C27.5231 21.2769 27.6848 21.2965 27.8429 21.3048C28.3012 21.3356 28.6192 21.1605 28.793 20.6604C28.9771 20.2189 29.058 20.0001 29.3043 19.5661C29.4912 19.2672 29.6465 18.9477 29.8287 18.646C30.1094 18.2111 30.4041 17.7855 30.7119 17.3729C31.0224 16.9957 31.2715 16.4994 31.8089 16.4314C31.9307 16.4109 31.8721 16.4053 32.0162 16.4137C32.0218 16.4155 32.0283 16.4165 32.0348 16.4193C32.0385 16.4221 32.0441 16.4249 32.0506 16.4295C32.0478 16.4267 32.0487 16.4267 32.0506 16.4295C32.058 16.4351 32.0673 16.4426 32.0748 16.4519C32.0692 16.4472 32.0655 16.4444 32.0617 16.4407C32.0608 16.4388 32.0608 16.4388 32.0617 16.4407C32.058 16.437 32.0552 16.4342 32.0524 16.4323C32.0562 16.436 32.0608 16.4426 32.0664 16.45C32.0822 16.4798 32.1278 16.5646 32.1324 16.5934C32.1324 16.5953 32.1333 16.5962 32.1343 16.5981C32.1343 16.5962 32.1343 16.5953 32.1343 16.5934C32.1343 16.5953 32.1352 16.5981 32.1361 16.6009C32.1463 16.6232 32.1463 16.6335 32.1436 16.6297C32.1463 16.64 32.1491 16.6493 32.151 16.6595C32.2086 16.9296 32.1947 17.1084 32.1631 17.4623C32.0859 18.1384 31.6666 19.1033 31.3626 19.8846C31.1971 20.3158 31.0791 20.7647 31.0094 21.221C30.974 21.4827 30.922 21.7556 30.9787 22.0108C31.1349 22.5909 31.8303 22.902 32.2839 22.9812C32.7618 23.0911 33.0147 22.6906 33.1485 22.2315C33.2359 21.9074 33.2898 21.5321 33.4488 21.1149C33.5594 20.801 33.9322 20.056 34.3088 19.5577C34.6592 19.0995 35.1399 18.4523 35.6958 18.1934C35.8093 18.1422 35.8083 18.1319 35.9747 18.0891C35.9943 18.0891 36.024 18.0891 36.038 18.0891C36.0426 18.09 36.0482 18.0919 36.0528 18.0937C36.0575 18.0965 36.0612 18.0984 36.0658 18.1021C36.0677 18.1049 36.0714 18.1068 36.0733 18.1096C36.2694 18.4188 36.2369 19.3119 36.0194 19.9479C35.7572 20.8289 35.3444 21.4678 35.1603 22.4438C35.0599 22.9225 35.02 23.4394 35.2524 23.8547C35.3351 24.0428 35.6066 23.9367 35.5898 23.7309C35.588 23.6564 35.5359 23.5986 35.5192 23.5288C35.5192 23.5316 35.5201 23.5343 35.5211 23.5371C35.5192 23.5325 35.5183 23.5278 35.5173 23.5222C35.509 23.5027 35.5071 23.4934 35.5099 23.4952C35.4941 23.4412 35.4792 23.3872 35.4699 23.3313C35.4448 23.1823 35.4625 23.2484 35.4513 23.1572C35.4365 22.7362 35.6428 21.9186 35.9115 21.2806C36.183 20.6315 36.4228 19.9535 36.4944 19.2513C36.6339 17.9792 36.3996 17.1792 35.1715 18.0705C34.8731 18.2949 34.6193 18.5817 34.3822 18.8816C34.1238 19.1992 33.87 19.5251 33.6636 19.8855C33.4814 20.2208 33.3019 20.5607 33.1653 20.9202C33.0333 21.2853 32.9412 21.6624 32.8324 22.034C32.7562 22.2417 32.7292 22.2855 32.5824 22.5081C32.5749 22.5155 32.5647 22.5258 32.5526 22.5369C32.5498 22.5388 32.5489 22.5397 32.548 22.5407C32.5424 22.5435 32.5377 22.5462 32.5331 22.549C32.5182 22.5537 32.5033 22.5584 32.4885 22.5621C32.4894 22.5602 32.4829 22.5602 32.4624 22.5658C32.2839 22.5807 31.9632 22.4652 31.8656 22.4177C31.7633 22.373 31.5049 22.2259 31.398 22.0806C31.2483 21.8608 31.2687 21.8552 31.3096 21.4008C31.3691 20.8913 31.5132 20.3447 31.7457 19.7645C32.0478 18.9785 32.4159 18.1999 32.5126 17.3552C32.5759 16.776 32.5182 15.853 31.7949 16.0356C31.5792 16.07 31.358 16.1241 31.172 16.2675C30.9452 16.4342 30.7602 16.6595 30.5854 16.8877C30.3577 17.1783 30.1401 17.4772 29.93 17.7836C29.7664 18.022 29.5953 18.2558 29.4596 18.5147C29.2895 18.8537 29.1212 19.1927 28.9315 19.5205C28.6908 19.9377 28.5225 20.4844 28.3579 20.7675C28.2984 20.909 27.9238 20.9789 27.617 20.8839C27.5259 20.855 27.3781 20.7163 27.2116 20.4853C26.9142 20.1528 27.3641 19.2038 27.6588 18.5491C27.8977 17.9559 28.1134 17.3487 28.2678 16.7266C28.3365 16.3988 28.3635 16.0449 28.2678 15.7329C28.0976 15.1834 27.3604 15.5364 27.0071 15.7283C26.5283 16.0002 26.1574 16.4556 25.8264 16.9175C25.5754 17.2882 25.3923 17.7035 25.1636 18.0891C24.9581 18.443 24.7201 18.809 24.6495 19.2197C24.6188 19.2076 24.5872 19.1955 24.5565 19.1815C24.5472 19.1778 24.5379 19.174 24.5295 19.1703C24.5314 19.1712 24.5323 19.1722 24.5342 19.1731C24.5305 19.1712 24.5268 19.1694 24.524 19.1675C24.5193 19.1657 24.5156 19.1629 24.5119 19.1619C24.4961 19.1536 24.4793 19.1461 24.4635 19.1377C23.8314 18.7876 23.3516 18.4867 22.937 17.9531C22.6553 17.5741 22.4852 17.2295 22.5456 16.7052C22.5754 16.2172 22.6265 15.7273 22.6321 15.2393C22.6163 14.5558 22.5828 13.8675 22.4508 13.2063C22.2946 12.4343 21.9599 11.7367 21.5648 11.0979C21.4096 10.8511 21.2432 10.6117 21.0702 10.3808C20.9113 10.1945 20.6956 9.87415 20.4241 10.052C20.2196 10.1964 20.0736 10.419 19.9509 10.6453C19.7947 10.933 19.6562 11.232 19.5511 11.543C19.3764 12.1083 19.2555 12.6932 19.2471 13.2808C19.222 13.8312 19.2044 14.3881 19.2722 14.9292C19.3373 15.3874 19.4665 15.8251 19.6199 16.2498C19.699 16.4891 19.7715 16.7322 19.8579 16.9669C19.7185 16.9352 19.633 16.9222 19.4489 16.9194C19.0045 16.9101 18.5583 16.9836 18.1148 17.0693C17.3199 17.2239 16.5344 17.4893 15.8055 17.9103C15.5071 18.0807 15.2152 18.267 14.9335 18.4718C14.6211 18.6963 14.3794 18.9524 14.5644 19.2085L14.5625 19.2066Z" fill="#ADB5BD"/>
<path d="M44.4435 28.6761C44.4435 28.6761 44.4463 28.6789 44.4481 28.6799C44.8042 28.7991 44.9408 29.2768 44.7196 29.6028C44.4621 29.9883 43.908 29.9446 43.7034 29.5329C43.4617 29.0813 43.9368 28.3837 44.4435 28.6761Z" fill="#ADB5BD"/>
<path d="M48.0457 30.8325C48.0466 30.826 48.0475 30.8204 48.0484 30.8138C48.0503 30.8017 48.0531 30.7905 48.055 30.7783C48.0522 30.7961 48.0494 30.8138 48.0457 30.8325Z" fill="#ADB5BD"/>
<path d="M34.7903 32.0281C34.7903 32.0281 34.7913 32.0311 34.7923 32.0331C34.7923 32.0331 34.7923 32.0321 34.7923 32.0311C34.7923 32.0311 34.7923 32.0291 34.7923 32.0281H34.7903Z" fill="#ADB5BD"/>
<path d="M35.2649 26.0388C35.2482 26.0937 35.2649 26.1617 35.3123 26.1962C35.3318 26.2167 35.3597 26.2241 35.3858 26.2353C35.5419 26.3294 35.8097 26.3992 35.8301 26.4095C36.2745 26.5864 36.5227 26.6777 36.9318 26.9552C36.9467 26.9729 36.9615 26.9906 36.9764 27.0083C36.9095 27.1573 36.9746 27.0642 36.8435 27.2504C36.5506 27.6229 36.2745 28.0066 35.9965 28.3894C35.316 29.2629 34.5518 30.1318 34.2385 31.2168C34.2051 31.3891 34.1521 31.5772 34.1725 31.7541C34.1725 31.7532 34.1725 31.7513 34.1725 31.7504C34.1725 31.7551 34.1725 31.7597 34.1735 31.7644C34.1837 31.9134 34.2209 32.0605 34.285 32.1956C34.4301 32.5252 34.695 32.7776 34.9962 32.9667C35.0306 32.989 35.0511 33.0021 35.0613 33.0077C35.1124 33.0514 35.1747 33.084 35.2305 33.1194C35.501 33.2666 35.4378 33.2423 35.6303 33.3168C36.2513 33.572 36.9048 33.7313 37.563 33.8561C38.3839 34.0302 39.2123 34.1699 40.0462 34.2658C40.9666 34.3292 41.7038 34.2565 42.4801 34.1643C43.4944 34.0461 44.5058 33.8421 45.4643 33.4845C46.1476 33.2023 46.6097 32.895 47.081 32.4899C47.2735 32.3166 47.4334 32.1118 47.5858 31.9031C47.7234 31.7039 47.8647 31.4906 47.9335 31.2568C47.9335 31.2624 47.9345 31.2671 47.9354 31.2727C47.9884 31.1237 48.0265 30.9691 48.0516 30.8135C48.0953 30.5677 48.1176 30.3181 48.1148 30.0685C48.1092 29.7919 48.0711 29.5162 48.0339 29.2424C47.8629 27.9675 47.4455 26.728 46.8765 25.5769C46.302 24.4919 45.614 23.4666 44.8117 22.5371C44.2334 21.847 43.5901 21.2128 42.8622 20.6811C42.5981 20.4808 42.3258 20.289 42.032 20.1344C41.9948 20.1065 41.9418 20.0953 42.005 20.1316C41.701 19.9304 41.3133 19.8103 40.9471 19.855C40.2991 19.937 40.0443 20.6764 39.7571 21.1737C39.1965 22.2224 38.8822 23.38 38.6238 24.5338C38.5745 24.6977 38.5485 24.7946 38.5095 24.8756C38.092 24.7173 37.1242 24.26 36.083 23.7972C35.9724 23.7581 35.8673 23.8894 35.924 23.989C35.9956 24.0877 36.175 24.1157 36.2838 24.179C37.0359 24.4984 37.6253 24.8449 38.3486 25.2146C38.3579 25.2183 38.3672 25.223 38.3765 25.2267C38.4936 25.2947 38.6573 25.304 38.7558 25.2053C38.8553 25.1001 38.8981 24.9576 38.9492 24.8253C39.044 24.5636 39.1007 24.2917 39.1565 24.0198C39.2913 23.474 39.4717 22.9395 39.6595 22.4105C39.8975 21.753 40.3149 20.926 40.6728 20.4408C40.7797 20.329 40.763 20.3626 40.8262 20.316C40.9071 20.2815 40.8885 20.2778 41.0261 20.2583C40.9973 20.2611 41.0261 20.2517 41.0688 20.2536C41.1032 20.2452 41.0995 20.2499 41.0856 20.2536C41.133 20.2508 41.1813 20.2517 41.2287 20.2536C41.3942 20.2732 41.3078 20.2573 41.4277 20.2862C41.9725 20.4352 42.4308 20.8096 43.0388 21.2687C43.6468 21.74 44.4259 22.5716 44.9939 23.3036C45.7237 24.2246 46.4293 25.3236 46.9304 26.5156C47.4352 27.8129 48.0888 29.8124 47.5273 31.1097C47.5152 31.1358 47.4994 31.1702 47.491 31.1879C47.4761 31.2177 47.4622 31.2475 47.4455 31.2773C47.3367 31.4803 47.2 31.6657 47.0541 31.8426C46.8942 32.0531 46.2741 32.5131 45.6363 32.8177C44.7076 33.26 42.7246 33.5748 41.7521 33.6856C40.2247 33.8207 39.0933 33.5664 37.6569 33.2554C36.6715 33.0589 36.1221 32.8186 35.2342 32.5308C35.4545 32.6025 35.3086 32.5467 35.2054 32.4684C35.1784 32.4498 35.1003 32.3921 35.0557 32.3595C34.8689 32.1797 34.894 32.2114 34.7954 32.0317C34.7982 32.04 34.801 32.0484 34.8019 32.0559C34.7991 32.0475 34.7973 32.0391 34.7945 32.0307C34.7926 32.0279 34.7917 32.0261 34.7908 32.0233C34.7694 31.9786 34.7833 32.0019 34.7945 32.0279C34.6197 31.4878 35.0381 30.7064 35.6879 29.8534C36.0542 29.3915 36.5571 28.7619 37.0155 28.0904C37.193 27.8278 37.4264 27.5987 37.5454 27.3007C37.6793 26.9841 37.5166 26.6851 37.2135 26.5585C36.9253 26.3936 36.6101 26.28 36.294 26.1813C36.1695 26.1524 36.0449 26.0937 35.9175 26.0798C35.9212 26.0798 35.9157 26.077 35.8915 26.0714C35.7632 26.0453 35.6358 26.0137 35.514 25.9643C35.4564 25.9354 35.3216 25.8991 35.2686 26.0397L35.2649 26.0388Z" fill="#ADB5BD"/>
<path d="M41.0419 20.2568C41.0457 20.2568 41.0485 20.2568 41.0522 20.2558C41.0485 20.2558 41.0466 20.2558 41.0429 20.2568C41.055 20.2558 41.068 20.2558 41.0801 20.2549C41.069 20.2586 41.0522 20.2614 41.041 20.2568C41.0326 20.2577 41.0252 20.2586 41.0205 20.2596C41.027 20.2596 41.0336 20.2577 41.041 20.2568H41.0419Z" fill="#ADB5BD"/>
</svg>
