<svg width="180" height="137" viewBox="0 0 180 137" fill="none" xmlns="http://www.w3.org/2000/svg">
<path d="M56 117.481L80.7935 91H109.523L93.7806 105.259H117L76.8581 135L84.729 117.481H56Z" fill="#FFD600"/>
<path fill-rule="evenodd" clip-rule="evenodd" d="M127 98H56V97.7739C54.6873 97.9233 53.3526 98 52 98C32.67 98 17 82.33 17 63C17 43.67 32.67 28 52 28C53.723 28 55.4169 28.1245 57.0733 28.365C60.9185 13.2109 74.65 2 91 2C107.242 2 120.9 13.0632 124.849 28.065C125.561 28.0219 126.278 28 127 28C146.33 28 162 43.67 162 63C162 81.6587 147.399 96.9073 129 97.9438V98H127Z" fill="white"/>
<rect x="42" y="68" width="8" height="1.8" rx="0.9" fill="#495057"/>
<rect x="65" y="68" width="8" height="1.8" rx="0.9" fill="#495057"/>
<path d="M56.6698 76.9972C58.6998 76.9972 60.3398 78.7372 60.3398 80.8672C60.3398 81.2772 59.9998 81.6172 59.5898 81.6172C59.1798 81.6172 58.8398 81.2772 58.8398 80.8672C58.8398 79.5572 57.8698 78.4972 56.6698 78.4972C55.4698 78.4972 54.4998 79.5572 54.4998 80.8672C54.4998 81.2772 54.1598 81.6172 53.7498 81.6172C53.3398 81.6172 52.9998 81.2772 52.9998 80.8672C52.9998 78.7372 54.6398 76.9972 56.6698 76.9972Z" fill="#495057"/>
<path d="M89 77C89 73.6667 92.6667 65.4444 94.5 61C96.1042 65.4444 100 74.3333 100 77C100 80.3993 98.625 83 94.5 83C90.3181 83 89 80.3333 89 77Z" fill="#D8F2FF"/>
<path d="M84 60.4545C84 58.4848 86.3333 53.6263 87.5 51C88.5208 53.6263 91 58.8788 91 60.4545C91 62.4633 90.125 64 87.5 64C84.8388 64 84 62.4242 84 60.4545Z" fill="#D8F2FF"/>
<rect x="31.5" y="103.5" width="6" height="6" rx="3" stroke="#ADB5BD"/>
<rect x="147.5" y="117.5" width="4" height="4" rx="2" stroke="#ADB5BD"/>
<path d="M121 117L128 122.5H121L128 130.5" stroke="#ADB5BD"/>
<path d="M135 108.5H140M137.5 111V106" stroke="#ADB5BD"/>
<path d="M44.0603 122.475L49.01 127.425M44.0603 127.425L49.01 122.475" stroke="#ADB5BD"/>
</svg>
