<svg width="40" height="40" viewBox="0 0 40 40" fill="none" xmlns="http://www.w3.org/2000/svg">
<path d="M1.46289 18.1729C1.46289 8.96473 8.92762 1.5 18.1358 1.5C27.3441 1.5 34.8088 8.96473 34.8088 18.1729L34.8088 34.8459L18.1358 34.8459C8.92762 34.8459 1.46289 27.3812 1.46289 18.1729Z" fill="white" stroke="#495057"/>
<circle cx="34.5765" cy="34.6154" r="3.88458" fill="#FFB800" stroke="#495057"/>
<path d="M12.0211 6.2811C11.7653 4.54632 10.701 3.94489 9.79012 3.96079C8.74379 3.97906 7.76156 4.70722 7.25 5.79034C6.70185 4.72572 5.69481 4.03228 4.64848 4.05054C3.73762 4.06644 2.69497 4.70464 2.49983 6.44729C2.1127 9.90822 6.27251 12.2552 7.21709 12.7407C7.22703 12.7486 7.23696 12.7557 7.24777 12.7618C7.27479 12.7775 7.30527 12.7869 7.33654 12.7909C7.35084 12.7933 7.36603 12.7949 7.38029 12.7946C7.42129 12.7939 7.46209 12.7824 7.49824 12.7592C7.51236 12.7509 7.52467 12.7407 7.53606 12.7297C8.48428 12.1977 12.5259 9.71384 12.0202 6.28202L12.0211 6.2811Z" fill="#FF4B4B"/>
<path d="M22.1193 16.3343C23.0194 15.4219 22.9023 14.5362 22.4924 14.0115C22.0215 13.4088 21.1644 13.1557 20.3072 13.3336C20.6875 12.5453 20.6494 11.6525 20.1785 11.0498C19.7685 10.5251 18.9374 10.1972 17.8344 10.8499C15.644 12.1462 16.1037 15.6066 16.2358 16.3714C16.2356 16.3807 16.2358 16.3896 16.237 16.3986C16.2397 16.4213 16.2476 16.4432 16.2591 16.4632C16.2639 16.4727 16.2697 16.4822 16.2761 16.4904C16.2946 16.514 16.3193 16.5328 16.3487 16.5437C16.3598 16.5483 16.3711 16.551 16.3825 16.5528C17.1102 16.8723 20.3377 18.1388 22.1184 16.3342L22.1193 16.3343Z" fill="#FF4B4B"/>
<ellipse cx="18.0113" cy="19.5866" rx="2.19229" ry="1.09615" transform="rotate(20 18.0113 19.5866)" fill="#FBC1D4"/>
<ellipse cx="4.08215" cy="14.2855" rx="2.19229" ry="1.09615" transform="rotate(20 4.08215 14.2855)" fill="#FBC1D4"/>
<path d="M3.61076 16.6429C3.50097 16.6012 3.38402 16.5821 3.26769 16.587C3.15136 16.5918 3.03833 16.6205 2.93611 16.6711C2.83384 16.7202 2.74434 16.79 2.67349 16.8758C2.60263 16.9616 2.55204 17.0615 2.52503 17.169C2.10847 18.9089 2.37423 20.7578 3.27222 22.3674C4.17021 23.977 5.63845 25.2361 7.40031 25.9076C9.16218 26.5791 11.096 26.6166 12.8376 26.0131C14.5791 25.4095 16.008 24.2065 16.8552 22.6308C16.9065 22.5326 16.9353 22.4243 16.9395 22.3131C16.9438 22.2019 16.9234 22.0903 16.8798 21.9855C16.8372 21.8798 16.7719 21.7831 16.6883 21.7021C16.6047 21.621 16.5047 21.5574 16.3951 21.5154L3.61076 16.6429Z" fill="#FFB0CA" stroke="#495057" stroke-linecap="round" stroke-linejoin="round"/>
<path d="M14.2567 25.3531C12.82 23.7542 10.9961 22.5354 8.95871 21.8127C6.95714 20.996 4.78465 20.6916 2.64828 20.9287C3.0072 22.0516 3.62175 23.0838 4.44501 23.9465C5.26827 24.8092 6.27845 25.4796 7.39841 25.9065C8.51837 26.3333 9.71849 26.5054 10.9071 26.4095C12.0957 26.3135 13.2414 25.9522 14.2567 25.3531Z" fill="#FF87AF" stroke="#495057" stroke-linecap="round" stroke-linejoin="round"/>
</svg>
