<svg width="40" height="40" viewBox="0 0 40 40" fill="none" xmlns="http://www.w3.org/2000/svg">
<path d="M5.15332 18.173C5.15332 8.96467 12.6181 1.49988 21.8264 1.49988C31.0347 1.49988 38.4995 8.96467 38.4995 18.173C38.4995 27.3812 31.0347 34.846 21.8264 34.846H5.15332V18.173Z" fill="white" stroke="#495057"/>
<path d="M28.6445 12.4816C28.3407 13.7926 27.3653 14.9104 25.9858 15.3322C24.6062 15.754 23.1725 15.3727 22.1875 14.4557" stroke="#495057" stroke-linecap="round" stroke-linejoin="round"/>
<circle cx="5.38462" cy="34.6156" r="3.88462" fill="#FFB800" stroke="#495057"/>
<circle cx="26.5773" cy="6.84594" r="0.961538" fill="#495057" stroke="#495057"/>
<path d="M17.0776 8.67224H19.9775C20.1401 8.67224 20.2348 8.85612 20.1402 8.98849L18.5392 11.2299" stroke="#495057" stroke-linecap="round"/>
<ellipse cx="31.2154" cy="8.71149" rx="2.19231" ry="1.09615" transform="rotate(-23 31.2154 8.71149)" fill="#FBC1D4"/>
<ellipse cx="18.0621" cy="13.827" rx="2.19231" ry="1.09615" transform="rotate(-23 18.0621 13.827)" fill="#FBC1D4"/>
</svg>
