<svg width="116" height="20" viewBox="0 0 116 20" fill="none" xmlns="http://www.w3.org/2000/svg">
<g clip-path="url(#clip0_5307_85742)">
<path d="M1.39515 1.00178C1.54837 0.63186 1.37271 0.207766 1.00279 0.05454C0.632866 -0.0986859 0.208773 0.0769794 0.0555468 0.4469C-0.0976791 0.81682 0.0779862 1.24091 0.447906 1.39414C0.817827 1.54737 1.24192 1.3717 1.39515 1.00178Z" fill="#39B6EF"/>
<path fill-rule="evenodd" clip-rule="evenodd" d="M19.275 0C18.8752 0 18.55 0.324148 18.55 0.724986V9.42136V13.462C18.55 16.2638 16.279 18.55 13.4782 18.55C10.6774 18.55 8.40636 16.2688 8.40636 13.468V3.0339C8.41147 2.15757 9.12317 1.44895 9.99949 1.44895C10.8758 1.44895 11.5875 2.15757 11.5936 3.0339V9.42238C11.5936 9.42238 11.5936 9.42238 11.5936 9.42136V13.478C11.5936 14.2183 11.4341 14.919 11.1488 15.553C11.1079 15.645 11.0865 15.7457 11.0865 15.851C11.0865 16.2508 11.4106 16.576 11.8114 16.576C12.1264 16.576 12.3933 16.3752 12.4935 16.095C12.8452 15.2943 13.0436 14.4135 13.0446 13.484C13.0446 13.4799 13.0446 13.4761 13.0446 13.472V3.06764C13.0446 3.06764 13.0446 3.06355 13.0446 3.06151C13.0446 3.05537 13.0446 3.04924 13.0446 3.0431C13.0446 1.36203 11.6816 0 10.0015 0C8.32149 0 6.95844 1.36203 6.95844 3.0431C6.95844 3.04719 6.95844 3.05026 6.95844 3.05435C6.95844 3.05537 6.95844 3.05639 6.95844 3.05844V13.504C6.95844 13.504 6.95844 13.5099 6.95844 13.513C6.97786 17.0981 9.88906 20 13.4792 20C17.0694 20 20.001 17.0644 20.001 13.462V0.724986C20.001 0.32517 19.6769 0 19.276 0H19.275Z" fill="#39B6EF"/>
<path fill-rule="evenodd" clip-rule="evenodd" d="M6.97786 18.5301C6.95435 18.5301 6.93083 18.5321 6.90833 18.5341C6.78051 18.5423 6.65269 18.5501 6.52181 18.5501C3.72003 18.5501 1.44997 16.2789 1.44997 13.4781V9.42143V2.75379C1.44997 2.35398 1.12583 2.02881 0.724989 2.02881C0.325173 2.02881 3.00245e-06 2.35296 3.00245e-06 2.75379V13.4961C3.00245e-06 13.5043 -4.37752e-05 13.5005 1.24042e-05 13.5091C0.0225084 17.0911 2.93369 19.9981 6.52181 19.9981C6.67621 19.9981 6.82857 19.9923 6.97991 19.9821C7.35 19.9501 7.70285 19.6549 7.70285 19.2551C7.70285 18.8553 7.3787 18.5301 6.97786 18.5301Z" fill="#39B6EF"/>
</g>
<path d="M46 19.9998V11.0271C46 9.81954 46.3776 8.82723 47.1328 8.05015C47.9272 7.23953 48.9621 6.83422 50.2376 6.83422C51.4963 6.83422 52.5312 7.23953 53.3424 8.05015C54.0976 8.79928 54.4752 9.79159 54.4752 11.0271V19.2451L52.8808 19.9998H52.7969V11.0271C52.7969 10.278 52.5955 9.6714 52.1928 9.20738C51.6949 8.63156 51.0432 8.34365 50.2376 8.34365C49.432 8.34365 48.7803 8.63156 48.2824 9.20738C47.8796 9.6714 47.6783 10.278 47.6783 11.0271V19.2451L46.0839 19.9998H46Z" fill="#0E239C"/>
<path d="M57.8317 19.6644V7.42122L58.7212 7.00193H61.9015C63.1769 7.00193 64.2119 7.40724 65.0062 8.21787C65.7614 8.98376 66.1391 9.97608 66.1391 11.1948V15.4715C66.1391 16.6847 65.7614 17.677 65.0062 18.4485C64.2119 19.2591 63.1769 19.6644 61.9015 19.6644H57.8317ZM59.51 18.155H61.9015C62.707 18.155 63.3588 17.8671 63.8566 17.2912C64.2594 16.8272 64.4608 16.2207 64.4608 15.4715V11.1948C64.4608 10.4457 64.2594 9.83911 63.8566 9.3751C63.3588 8.79928 62.707 8.51137 61.9015 8.51137H59.51V18.155Z" fill="#0E239C"/>
<path d="M69.4956 19.6644V7.42122L70.385 7.00193H75.7051V7.08579L75.0254 8.52814H71.1738V12.5701H75.7051V12.6539L75.0254 14.0963H71.1738V18.1382H77.1064V18.2221L76.4268 19.6644H69.4956Z" fill="#0E239C"/>
<path d="M79.2127 19.9998V7.42122L80.1021 7.00193H83.2824C84.5579 7.00193 85.5928 7.40724 86.3872 8.21787C87.1424 8.98935 87.52 9.98167 87.52 11.1948C87.52 12.4135 87.1424 13.4058 86.3872 14.1717C85.9397 14.6246 85.4166 14.9516 84.818 15.1529L87.7214 19.3038L86.2445 19.9998H86.1606L82.93 15.3877H80.8909V19.2451L79.2966 19.9998H79.2127ZM80.8909 13.8782H83.2824C84.0153 13.8782 84.667 13.5903 85.2376 13.0145C85.6404 12.6064 85.8418 11.9998 85.8418 11.1948C85.8418 10.4457 85.6404 9.83911 85.2376 9.3751C84.7397 8.79928 84.088 8.51137 83.2824 8.51137H80.8909V13.8782Z" fill="#0E239C"/>
<path d="M90.6584 19.9998V7.42122L92.2527 6.6665H92.3366V19.2451L90.7423 19.9998H90.6584Z" fill="#0E239C"/>
<path d="M95.6931 19.9998V11.0271C95.6931 9.81954 96.0707 8.82723 96.8259 8.05015C97.6203 7.23953 98.6552 6.83422 99.9307 6.83422C101.189 6.83422 102.224 7.23953 103.035 8.05015C103.791 8.79928 104.168 9.79159 104.168 11.0271V19.2451L102.574 19.9998H102.49V11.0271C102.49 10.278 102.289 9.6714 101.886 9.20738C101.388 8.63156 100.736 8.34365 99.9307 8.34365C99.1252 8.34365 98.4734 8.63156 97.9756 9.20738C97.5728 9.6714 97.3714 10.278 97.3714 11.0271V19.2451L95.777 19.9998H95.6931Z" fill="#0E239C"/>
<path d="M116 12.5701V15.6393C116 16.8524 115.622 17.8447 114.867 18.6162C114.073 19.4268 113.038 19.8321 111.762 19.8321C110.487 19.8321 109.452 19.4268 108.658 18.6162C107.902 17.8447 107.525 16.8524 107.525 15.6393V11.0271C107.525 9.81395 107.902 8.82164 108.658 8.05015C109.452 7.23953 110.487 6.83422 111.762 6.83422C113.083 6.83422 114.118 7.23953 114.867 8.05015C115.622 8.86077 116 9.79718 116 10.8594L114.406 11.6141H114.322V11.0271C114.322 10.278 114.12 9.6714 113.718 9.20738C113.22 8.63156 112.568 8.34365 111.762 8.34365C110.957 8.34365 110.305 8.63156 109.807 9.20738C109.404 9.6714 109.203 10.278 109.203 11.0271V15.6393C109.203 16.3884 109.404 16.9949 109.807 17.459C110.305 18.0348 110.957 18.3227 111.762 18.3227C112.568 18.3227 113.22 18.0348 113.718 17.459C114.12 16.9949 114.322 16.4443 114.322 15.807V14.0963H111.402V14.0124L112.081 12.5701H116Z" fill="#0E239C"/>
<path d="M24 13.4411C24 10.7912 26.1481 8.64307 28.798 8.64307H37.2868V18.2391H28.798C26.1482 18.2391 24 16.091 24 13.4411Z" fill="url(#paint0_linear_5307_85742)"/>
<circle cx="35.995" cy="13.1254" r="6.45888" fill="#0E239C"/>
<defs>
<linearGradient id="paint0_linear_5307_85742" x1="24" y1="13.6497" x2="31.3816" y2="13.6497" gradientUnits="userSpaceOnUse">
<stop stop-color="#64C4F0"/>
<stop offset="1" stop-color="#CCEEFB"/>
</linearGradient>
<clipPath id="clip0_5307_85742">
<rect width="20" height="20" fill="white"/>
</clipPath>
</defs>
</svg>
