<svg width="24" height="24" viewBox="0 0 24 24" fill="none" xmlns="http://www.w3.org/2000/svg">
<g clip-path="url(#clip0_118_4432)">
<path d="M18.6471 9.85546C19.4517 9.27056 19.9772 8.31109 19.9772 7.22587C19.9772 5.44408 18.5632 4 16.8186 4C15.3542 4 14.1234 5.01801 13.7651 6.39812C12.8342 6.11679 11.9207 6.04903 10.9802 6.20623C10.5631 4.92477 9.37946 4 7.98409 4C6.23947 4 4.82552 5.44408 4.82552 7.22587C4.82552 8.06228 5.13761 8.82444 5.64874 9.39795C4.43701 10.7867 3.76294 12.3799 4.07662 14.2197C4.38871 16.0508 5.54046 17.8526 7.31214 18.8398C8.66824 19.5949 10.4346 20.054 12.0428 19.9949C13.8962 19.9266 15.8102 19.5444 17.3175 18.5237C18.767 17.542 19.7229 15.9847 19.9491 14.3687C20.1752 12.7523 19.6322 11.1868 18.6471 9.85546Z" fill="#CFC12A"/>
<path d="M8.61961 6.98612C8.73097 6.46795 8.40997 5.95569 7.90263 5.84195C7.39529 5.72821 6.89373 6.05607 6.78237 6.57424C6.67101 7.09241 6.99201 7.60467 7.49936 7.71841C8.0067 7.83215 8.50825 7.50429 8.61961 6.98612Z" fill="black"/>
<path d="M17 8C17.5523 8 18 7.55228 18 7C18 6.44772 17.5523 6 17 6C16.4477 6 16 6.44772 16 7C16 7.55228 16.4477 8 17 8Z" fill="black"/>
<path d="M8.48567 11.4613C8.75299 11.6299 9.02549 11.7811 9.30606 11.9136C9.58548 12.0473 9.86951 12.1665 10.1581 12.2665C10.7354 12.4682 11.3311 12.5935 11.9314 12.632C12.2316 12.6495 12.5329 12.6405 12.8325 12.6134C13.1327 12.5851 13.4288 12.5248 13.7243 12.4538C14.312 12.2966 14.8812 12.0527 15.4377 11.7564C14.9607 12.1786 14.4024 12.5068 13.801 12.726C13.6483 12.7724 13.4979 12.829 13.3412 12.8615C13.2634 12.879 13.1862 12.9012 13.1073 12.9145L12.8705 12.9536C12.5531 12.9958 12.2322 13.0102 11.9124 12.9928C11.2735 12.9518 10.6444 12.7922 10.0619 12.5315C9.77099 12.4008 9.49042 12.246 9.22541 12.0684C9.09348 11.9786 8.96385 11.8859 8.83998 11.7847C8.71612 11.6835 8.59513 11.5781 8.48567 11.4613Z" fill="#5B462B"/>
<path d="M8 11.6914C8.09794 11.6504 8.18436 11.607 8.26732 11.5595C8.3497 11.5119 8.42748 11.4601 8.50238 11.4029C8.57497 11.3433 8.64871 11.2836 8.71727 11.2144C8.75472 11.1825 8.78583 11.1439 8.82385 11.1102C8.86015 11.0747 8.89356 11.0355 8.93677 11.0006C8.92755 11.0548 8.91257 11.1078 8.89471 11.159C8.87282 11.2084 8.85266 11.2602 8.82212 11.3047C8.76624 11.3987 8.69019 11.4794 8.60493 11.548C8.51851 11.6143 8.41942 11.6643 8.31571 11.6914C8.21259 11.7179 8.10197 11.7251 8 11.6914Z" fill="#5B462B"/>
<path d="M16 12.0148C15.898 12.0491 15.7874 12.0413 15.6843 12.0148C15.5806 11.9871 15.4815 11.9377 15.3951 11.8714C15.3104 11.8028 15.2338 11.7227 15.1779 11.6281C15.1473 11.5836 15.1272 11.5312 15.1053 11.4824C15.0868 11.4306 15.0724 11.3782 15.0632 11.324C15.1059 11.3589 15.1393 11.3981 15.1761 11.4336C15.2147 11.4673 15.2453 11.5059 15.2827 11.5378C15.3519 11.607 15.425 11.6667 15.4976 11.7263C15.5719 11.7835 15.6497 11.8353 15.7327 11.8829C15.8156 11.931 15.9021 11.9744 16 12.0148Z" fill="#5B462B"/>
</g>
<defs>
<clipPath id="clip0_118_4432">
<rect width="24.0003" height="24" fill="white"/>
</clipPath>
</defs>
</svg>
