<svg width="32" height="32" viewBox="0 0 32 32" fill="none" xmlns="http://www.w3.org/2000/svg">
<path d="M16.8393 13.9625C16.6143 15.0832 16.1406 16.1437 15.4538 17.0596C14.7551 17.9754 13.867 18.7106 12.8249 19.2167C11.8065 19.7228 10.6697 20 9.53291 20C8.39611 20 7.25929 19.7469 6.22906 19.2528C5.99222 19.1323 5.71988 19.0962 5.4712 19.1564L2.88968 19.7831C2.79494 19.8072 2.70022 19.8072 2.60549 19.7831C2.51075 19.759 2.42787 19.7108 2.35682 19.6385C2.28577 19.5662 2.25022 19.4818 2.22654 19.3975C2.19102 19.301 2.19102 19.2046 2.22654 19.1203L2.84234 16.5414C2.90154 16.2883 2.87784 16.0111 2.74758 15.7822C2.22654 14.7096 1.97786 13.5286 2.00155 12.3356C2.03707 11.1426 2.33314 9.97359 2.91338 8.92515C3.46994 7.87672 4.28701 6.98497 5.26988 6.31011C6.25274 5.63526 7.37771 5.21346 8.56188 5.0568C9.73421 4.91219 10.9421 5.04476 12.0552 5.44244C13.1683 5.84012 14.1749 6.51496 14.9919 7.38263C15.7972 8.2503 16.3893 9.31077 16.7209 10.4556C17.0406 11.6005 17.0879 12.8056 16.8511 13.9745L16.8393 13.9625Z" stroke="white" stroke-width="2" stroke-linecap="round" stroke-linejoin="round"/>
<path d="M10.1929 18.0547C10.4629 19.3996 11.0313 20.6722 11.8555 21.7713C12.6939 22.8703 13.7596 23.7525 15.0101 24.3598C16.2322 24.9672 17.5963 25.2998 18.9605 25.2998C20.3247 25.2998 21.6889 24.9961 22.9251 24.4032C23.2093 24.2586 23.5361 24.2152 23.8346 24.2875L26.9324 25.0395C27.0461 25.0684 27.1597 25.0684 27.2734 25.0395C27.3871 25.0106 27.4866 24.9528 27.5718 24.866C27.6571 24.7792 27.6997 24.678 27.7282 24.5767C27.7708 24.4611 27.7708 24.3454 27.7282 24.2441L26.9892 21.1495C26.9181 20.8458 26.9466 20.5132 27.1029 20.2384C27.7281 18.9514 28.0266 17.5342 27.9981 16.1025C27.9555 14.6709 27.6002 13.2681 26.9039 12.01C26.2361 10.7519 25.2556 9.68177 24.0761 8.87194C22.8967 8.06211 21.5468 7.55596 20.1257 7.36797C18.7189 7.19443 17.2695 7.35352 15.9337 7.83073C14.598 8.30795 13.3902 9.11776 12.4097 10.159C11.4434 11.2002 10.7328 12.4727 10.335 13.8465C9.95129 15.2204 9.89447 16.6665 10.1787 18.0692L10.1929 18.0547Z" fill="white" stroke="white" stroke-width="2" stroke-linecap="round" stroke-linejoin="round"/>
<circle cx="14.5" cy="16.5" r="1.5" fill="#1CB0F6"/>
<circle cx="19" cy="16.5" r="1.5" fill="#1CB0F6"/>
<circle cx="23.5" cy="16.5" r="1.5" fill="#1CB0F6"/>
</svg>
