<svg width="28" height="28" viewBox="0 0 28 28" fill="none" xmlns="http://www.w3.org/2000/svg">
<mask id="path-1-inside-1_5922_39249" fill="white">
<path fill-rule="evenodd" clip-rule="evenodd" d="M14 3.5C8.20101 3.5 3.5 8.20101 3.5 14C3.5 19.799 8.20101 24.5 14 24.5C19.799 24.5 24.5 19.799 24.5 14V3.5H14ZM11.0738 16.4165C10.7973 15.9384 10.1855 15.7751 9.70746 16.0516C9.2294 16.3282 9.06604 16.9399 9.34259 17.418C10.3209 19.1091 12.1518 20.2506 14.2505 20.2506C16.3493 20.2506 18.1802 19.1091 19.1585 17.418C19.435 16.9399 19.2717 16.3282 18.7936 16.0516C18.3156 15.7751 17.7038 15.9384 17.4273 16.4165C16.7918 17.5151 15.6065 18.2506 14.2505 18.2506C12.8946 18.2506 11.7093 17.5151 11.0738 16.4165ZM12.25 11.8125C12.25 12.5374 11.6624 13.125 10.9375 13.125C10.2126 13.125 9.625 12.5374 9.625 11.8125C9.625 11.0876 10.2126 10.5 10.9375 10.5C11.6624 10.5 12.25 11.0876 12.25 11.8125ZM17.9375 13.125C18.6624 13.125 19.25 12.5374 19.25 11.8125C19.25 11.0876 18.6624 10.5 17.9375 10.5C17.2126 10.5 16.625 11.0876 16.625 11.8125C16.625 12.5374 17.2126 13.125 17.9375 13.125Z"/>
</mask>
<path fill-rule="evenodd" clip-rule="evenodd" d="M14 3.5C8.20101 3.5 3.5 8.20101 3.5 14C3.5 19.799 8.20101 24.5 14 24.5C19.799 24.5 24.5 19.799 24.5 14V3.5H14ZM11.0738 16.4165C10.7973 15.9384 10.1855 15.7751 9.70746 16.0516C9.2294 16.3282 9.06604 16.9399 9.34259 17.418C10.3209 19.1091 12.1518 20.2506 14.2505 20.2506C16.3493 20.2506 18.1802 19.1091 19.1585 17.418C19.435 16.9399 19.2717 16.3282 18.7936 16.0516C18.3156 15.7751 17.7038 15.9384 17.4273 16.4165C16.7918 17.5151 15.6065 18.2506 14.2505 18.2506C12.8946 18.2506 11.7093 17.5151 11.0738 16.4165ZM12.25 11.8125C12.25 12.5374 11.6624 13.125 10.9375 13.125C10.2126 13.125 9.625 12.5374 9.625 11.8125C9.625 11.0876 10.2126 10.5 10.9375 10.5C11.6624 10.5 12.25 11.0876 12.25 11.8125ZM17.9375 13.125C18.6624 13.125 19.25 12.5374 19.25 11.8125C19.25 11.0876 18.6624 10.5 17.9375 10.5C17.2126 10.5 16.625 11.0876 16.625 11.8125C16.625 12.5374 17.2126 13.125 17.9375 13.125Z" fill="white"/>
<path d="M24.5 3.5H26.5V1.5H24.5V3.5ZM9.70746 16.0516L10.7089 17.7828L10.7089 17.7828L9.70746 16.0516ZM11.0738 16.4165L12.805 15.4151L12.805 15.4151L11.0738 16.4165ZM9.34259 17.418L7.61137 18.4194L7.61137 18.4194L9.34259 17.418ZM19.1585 17.418L17.4273 16.4165L17.4273 16.4165L19.1585 17.418ZM18.7936 16.0516L17.7922 17.7828L17.7922 17.7828L18.7936 16.0516ZM17.4273 16.4165L15.6961 15.4151L15.6961 15.4151L17.4273 16.4165ZM5.5 14C5.5 9.30558 9.30558 5.5 14 5.5V1.5C7.09644 1.5 1.5 7.09644 1.5 14H5.5ZM14 22.5C9.30558 22.5 5.5 18.6944 5.5 14H1.5C1.5 20.9036 7.09644 26.5 14 26.5V22.5ZM22.5 14C22.5 18.6944 18.6944 22.5 14 22.5V26.5C20.9036 26.5 26.5 20.9036 26.5 14H22.5ZM22.5 3.5V14H26.5V3.5H22.5ZM14 5.5H24.5V1.5H14V5.5ZM10.7089 17.7828C10.2309 18.0594 9.61913 17.896 9.34259 17.418L12.805 15.4151C11.9754 13.9809 10.1402 13.4908 8.70601 14.3204L10.7089 17.7828ZM11.0738 16.4165C11.3503 16.8946 11.187 17.5063 10.7089 17.7828L8.70601 14.3204C7.27183 15.15 6.78174 16.9852 7.61137 18.4194L11.0738 16.4165ZM14.2505 18.2506C12.8952 18.2506 11.7096 17.5156 11.0738 16.4165L7.61137 18.4194C8.93215 20.7026 11.4084 22.2506 14.2505 22.2506V18.2506ZM17.4273 16.4165C16.7915 17.5156 15.6059 18.2506 14.2505 18.2506V22.2506C17.0926 22.2506 19.5689 20.7026 20.8897 18.4194L17.4273 16.4165ZM17.7922 17.7828C17.3141 17.5063 17.1507 16.8946 17.4273 16.4165L20.8897 18.4194C21.7193 16.9852 21.2293 15.15 19.7951 14.3204L17.7922 17.7828ZM19.1585 17.418C18.882 17.896 18.2702 18.0594 17.7922 17.7828L19.7951 14.3204C18.3609 13.4908 16.5257 13.9809 15.6961 15.4151L19.1585 17.418ZM14.2505 20.2506C16.3484 20.2506 18.1797 19.1099 19.1585 17.418L15.6961 15.4151C15.4038 15.9203 14.8646 16.2506 14.2505 16.2506V20.2506ZM9.34259 17.418C10.3213 19.1099 12.1527 20.2506 14.2505 20.2506V16.2506C13.6365 16.2506 13.0972 15.9203 12.805 15.4151L9.34259 17.418ZM10.9375 15.125C12.7669 15.125 14.25 13.6419 14.25 11.8125H10.25C10.25 11.4328 10.5578 11.125 10.9375 11.125V15.125ZM7.625 11.8125C7.625 13.6419 9.10806 15.125 10.9375 15.125V11.125C11.3172 11.125 11.625 11.4328 11.625 11.8125H7.625ZM10.9375 8.5C9.10806 8.5 7.625 9.98306 7.625 11.8125H11.625C11.625 12.1922 11.3172 12.5 10.9375 12.5V8.5ZM14.25 11.8125C14.25 9.98306 12.7669 8.5 10.9375 8.5V12.5C10.5578 12.5 10.25 12.1922 10.25 11.8125H14.25ZM17.25 11.8125C17.25 11.4328 17.5578 11.125 17.9375 11.125V15.125C19.7669 15.125 21.25 13.6419 21.25 11.8125H17.25ZM17.9375 12.5C17.5578 12.5 17.25 12.1922 17.25 11.8125H21.25C21.25 9.98306 19.7669 8.5 17.9375 8.5V12.5ZM18.625 11.8125C18.625 12.1922 18.3172 12.5 17.9375 12.5V8.5C16.1081 8.5 14.625 9.98306 14.625 11.8125H18.625ZM17.9375 11.125C18.3172 11.125 18.625 11.4328 18.625 11.8125H14.625C14.625 13.6419 16.1081 15.125 17.9375 15.125V11.125Z" fill="white" mask="url(#path-1-inside-1_5922_39249)"/>
<ellipse cx="23.8" cy="4.20003" rx="2.33333" ry="2.33333" fill="#FFB800"/>
</svg>
