<svg width="145" height="101" viewBox="0 0 145 101" fill="none" xmlns="http://www.w3.org/2000/svg">
<path fill-rule="evenodd" clip-rule="evenodd" d="M44.498 44.5033V100.5H100.498V30.5H58.5006L44.498 44.5033Z" fill="#FAFAFF"/>
<path fill-rule="evenodd" clip-rule="evenodd" d="M44.5 44.5008H58.5V30.5L44.5 44.5008Z" fill="#C9CEFF"/>
<circle cx="85.0748" cy="56.1275" r="1.93219" fill="#C9CEFF"/>
<circle cx="60.9224" cy="56.1275" r="1.93219" fill="#C9CEFF"/>
<rect x="64.7871" y="64.8223" width="16.4236" height="1.93219" rx="0.966096" fill="#C9CEFF"/>
<circle cx="120.5" cy="24.5" r="24" fill="#C9CEFF"/>
<path d="M100.597 45.5909C102.212 42.1772 102.833 39.9545 103.177 38.5L113.5 42.3182C111.952 43.9545 110.403 45.5909 106.274 47.7727C103.483 49.2477 99.5645 50.3182 97.5 50.5C98.0161 49.7727 99.0484 48.8636 100.597 45.5909Z" fill="#C9CEFF"/>
<circle cx="108.5" cy="24.5" r="2" fill="#FAFAFF"/>
<circle cx="120.5" cy="24.5" r="2" fill="#FAFAFF"/>
<circle cx="132.5" cy="24.5" r="2" fill="#FAFAFF"/>
</svg>
