<svg width="81" height="80" viewBox="0 0 81 80" fill="none" xmlns="http://www.w3.org/2000/svg">
<g clip-path="url(#clip0_5172_83853)">
<path d="M25.8718 24.7031C26.1323 24.0742 25.8336 23.3533 25.2048 23.0928C24.5759 22.8323 23.8549 23.1309 23.5945 23.7598C23.334 24.3886 23.6326 25.1096 24.2615 25.3701C24.8903 25.6306 25.6113 25.3319 25.8718 24.7031Z" fill="#6F6CE8"/>
<path fill-rule="evenodd" clip-rule="evenodd" d="M56.2675 23C55.5878 23 55.0351 23.5511 55.0351 24.2325V39.0163V45.8854C55.0351 50.6484 51.1742 54.535 46.4129 54.535C41.6517 54.535 37.7908 50.6569 37.7908 45.8956V28.1576C37.7995 26.6679 39.0094 25.4632 40.4991 25.4632C41.9889 25.4632 43.1988 26.6679 43.2092 28.1576V39.018C43.2092 39.018 43.2092 39.018 43.2092 39.0163V45.9126C43.2092 47.1712 42.938 48.3623 42.453 49.4401C42.3835 49.5965 42.347 49.7677 42.347 49.9467C42.347 50.6264 42.898 51.1792 43.5795 51.1792C44.1149 51.1792 44.5686 50.8378 44.7389 50.3615C45.3369 49.0004 45.6741 47.5029 45.6759 45.9228C45.6759 45.9158 45.6759 45.9094 45.6759 45.9024V28.215C45.6759 28.215 45.6759 28.208 45.6759 28.2046C45.6759 28.1941 45.6759 28.1837 45.6759 28.1733C45.6759 25.3155 43.3587 23 40.5026 23C37.6465 23 35.3293 25.3155 35.3293 28.1733C35.3293 28.1802 35.3293 28.1854 35.3293 28.1924C35.3293 28.1941 35.3293 28.1959 35.3293 28.1993V45.9568C35.3293 45.9568 35.3293 45.9669 35.3293 45.9721C35.3624 52.0667 40.3114 57 46.4147 57C52.518 57 57.5017 52.0095 57.5017 45.8854V24.2325C57.5017 23.5528 56.9507 23 56.2693 23H56.2675Z" fill="#6F6CE8"/>
<path fill-rule="evenodd" clip-rule="evenodd" d="M35.3624 54.5009C35.3224 54.5009 35.2824 54.5042 35.2442 54.5077C35.0269 54.5216 34.8096 54.5349 34.5871 54.5349C29.8241 54.5349 25.965 50.6738 25.965 45.9125V39.0162V27.6812C25.965 27.0015 25.4139 26.4487 24.7325 26.4487C24.0528 26.4487 23.5 26.9998 23.5 27.6812V45.9431C23.5 45.957 23.5 45.9506 23.5 45.9652C23.5383 52.0546 28.4873 56.9965 34.5871 56.9965C34.8496 56.9965 35.1086 56.9867 35.3659 56.9693C35.995 56.9149 36.5949 56.4131 36.5949 55.7334C36.5949 55.0537 36.0438 54.5009 35.3624 54.5009Z" fill="#6F6CE8"/>
</g>
<circle opacity="0.2" cx="40.5" cy="40" r="39.5" stroke="#6F6CE8"/>
<circle cx="40.5" cy="40" r="39.5" stroke="url(#paint0_linear_5172_83853)"/>
<defs>
<linearGradient id="paint0_linear_5172_83853" x1="60.5" y1="6" x2="18.5" y2="74" gradientUnits="userSpaceOnUse">
<stop stop-color="#6F6CE8"/>
<stop offset="0.359375" stop-color="#6F6CE8" stop-opacity="0"/>
</linearGradient>
<clipPath id="clip0_5172_83853">
<rect width="34" height="34" fill="white" transform="translate(23.5 23)"/>
</clipPath>
</defs>
</svg>
