<svg width="60" height="60" viewBox="0 0 60 60" fill="none" xmlns="http://www.w3.org/2000/svg">
<g clip-path="url(#clip0_5201_85135)">
<path d="M4.18535 3.0051C4.64502 1.89533 4.11803 0.623054 3.00827 0.163376C1.89851 -0.296302 0.626227 0.230694 0.166549 1.34045C-0.293129 2.45021 0.233867 3.7225 1.34363 4.18217C2.45339 4.64185 3.72567 4.11486 4.18535 3.0051Z" fill="white"/>
<path fill-rule="evenodd" clip-rule="evenodd" d="M57.825 0C56.6255 0 55.65 0.972443 55.65 2.17496V28.2641V40.386C55.65 48.7913 48.8368 55.65 40.4345 55.65C32.0323 55.65 25.219 48.8063 25.219 40.404V9.10169C25.2344 6.47272 27.3694 4.34685 29.9984 4.34685C32.6274 4.34685 34.7625 6.47272 34.7809 9.10169V28.2671C34.7809 28.2671 34.7809 28.2671 34.7809 28.2641V40.434C34.7809 42.655 34.3023 44.7571 33.4464 46.659C33.3237 46.9351 33.2593 47.237 33.2593 47.553C33.2593 48.7524 34.2318 49.728 35.4343 49.728C36.3791 49.728 37.1798 49.1255 37.4804 48.285C38.5357 45.883 39.1308 43.2405 39.1338 40.452C39.1338 40.4397 39.1338 40.4283 39.1338 40.416V9.20293C39.1338 9.20293 39.1338 9.19065 39.1338 9.18452C39.1338 9.16611 39.1338 9.14771 39.1338 9.1293C39.1338 4.0861 35.0447 0 30.0045 0C24.9644 0 20.8752 4.0861 20.8752 9.1293C20.8752 9.14157 20.8752 9.15078 20.8752 9.16305C20.8752 9.16611 20.8752 9.16918 20.8752 9.17532V40.512C20.8752 40.512 20.8752 40.5298 20.8752 40.539C20.9335 51.2942 29.6671 60 40.4376 60C51.2081 60 60.003 51.1933 60.003 40.386V2.17496C60.003 0.97551 59.0306 0 57.8281 0H57.825Z" fill="white"/>
<path fill-rule="evenodd" clip-rule="evenodd" d="M20.9336 55.5901C20.8631 55.5901 20.7925 55.5959 20.725 55.6021C20.3416 55.6266 19.9581 55.6501 19.5655 55.6501C11.1601 55.6501 4.34997 48.8363 4.34997 40.4341V28.2641V8.26117C4.34997 7.06172 3.37753 6.08621 2.17501 6.08621C0.975565 6.08621 5.47837e-05 7.05865 5.47837e-05 8.26117V40.4881C5.47837e-05 40.5126 -8.55493e-05 40.5013 8.29891e-05 40.5271C0.0675711 51.273 8.80112 59.9941 19.5655 59.9941C20.0287 59.9941 20.4858 59.9768 20.9398 59.9461C22.0501 59.8501 23.1086 58.9645 23.1086 57.7651C23.1086 56.5656 22.1362 55.5901 20.9336 55.5901Z" fill="white"/>
</g>
<defs>
<clipPath id="clip0_5201_85135">
<rect width="60" height="60" fill="white"/>
</clipPath>
</defs>
</svg>
