<svg width="12" height="12" viewBox="0 0 12 12" fill="none" xmlns="http://www.w3.org/2000/svg">
<path d="M6.64473 4.64412L4.64473 6.64412C4.59786 6.6906 4.56066 6.7459 4.53528 6.80683C4.5099 6.86776 4.49683 6.93311 4.49683 6.99912C4.49683 7.06512 4.5099 7.13047 4.53528 7.1914C4.56066 7.25233 4.59786 7.30763 4.64473 7.35412C4.69121 7.40098 4.74651 7.43818 4.80744 7.46356C4.86837 7.48895 4.93372 7.50201 4.99973 7.50201C5.06573 7.50201 5.13108 7.48895 5.19201 7.46356C5.25294 7.43818 5.30824 7.40098 5.35473 7.35412L7.35473 5.35412C7.44888 5.25996 7.50177 5.13227 7.50177 4.99912C7.50177 4.86596 7.44888 4.73827 7.35473 4.64412C7.26057 4.54996 7.13288 4.49707 6.99973 4.49707C6.86657 4.49707 6.73888 4.54996 6.64473 4.64412Z" fill="white"/>
<path d="M6.13977 8.6988L5.49977 9.3338C5.14048 9.70402 4.65749 9.92903 4.14292 9.96591C3.62834 10.0028 3.11819 9.84898 2.70977 9.5338C2.49391 9.35592 2.31775 9.13474 2.19269 8.88454C2.06763 8.63435 1.99644 8.3607 1.98371 8.08128C1.97099 7.80186 2.01702 7.52288 2.11883 7.26235C2.22064 7.00183 2.37596 6.76556 2.57477 6.5688L3.28477 5.8538C3.33164 5.80732 3.36883 5.75202 3.39422 5.69109C3.4196 5.63016 3.43267 5.5648 3.43267 5.4988C3.43267 5.43279 3.4196 5.36744 3.39422 5.30651C3.36883 5.24558 3.33164 5.19028 3.28477 5.1438C3.23829 5.09693 3.18299 5.05974 3.12206 5.03435C3.06113 5.00897 2.99578 4.9959 2.92977 4.9959C2.86377 4.9959 2.79841 5.00897 2.73748 5.03435C2.67655 5.05974 2.62125 5.09693 2.57477 5.1438L1.93977 5.7838C1.40485 6.3018 1.07606 6.99631 1.01445 7.73838C0.952845 8.48045 1.1626 9.21967 1.60477 9.8188C1.86721 10.1593 2.19909 10.44 2.57837 10.6423C2.95764 10.8447 3.37563 10.964 3.80456 10.9924C4.2335 11.0207 4.66356 10.9575 5.06618 10.8069C5.4688 10.6563 5.83477 10.4217 6.13977 10.1188L6.84977 9.4088C6.94392 9.31465 6.99682 9.18695 6.99682 9.0538C6.99682 8.92065 6.94392 8.79295 6.84977 8.6988C6.75562 8.60465 6.62792 8.55175 6.49477 8.55175C6.36162 8.55175 6.23392 8.60465 6.13977 8.6988ZM9.82977 1.6088C9.22652 1.16203 8.48126 0.950142 7.7332 1.01271C6.98513 1.07528 6.28542 1.40803 5.76477 1.9488L5.22477 2.4988C5.16305 2.54367 5.11144 2.601 5.07328 2.66708C5.03512 2.73315 5.01126 2.80651 5.00325 2.8824C4.99524 2.95828 5.00325 3.035 5.02677 3.10759C5.05028 3.18018 5.08878 3.24703 5.13977 3.3038C5.18625 3.35066 5.24155 3.38786 5.30248 3.41324C5.36341 3.43863 5.42877 3.4517 5.49477 3.4517C5.56078 3.4517 5.62613 3.43863 5.68706 3.41324C5.74799 3.38786 5.80329 3.35066 5.84977 3.3038L6.49977 2.6488C6.85707 2.27696 7.33949 2.05072 7.85385 2.01378C8.36821 1.97684 8.87801 2.13183 9.28477 2.4488C9.50224 2.6267 9.6798 2.84843 9.80585 3.09953C9.93191 3.35063 10.0036 3.62548 10.0164 3.90616C10.0291 4.18684 9.98257 4.46706 9.87977 4.72855C9.77698 4.99004 9.62024 5.22693 9.41977 5.4238L8.70977 6.1388C8.66291 6.18528 8.62571 6.24058 8.60033 6.30151C8.57494 6.36244 8.56187 6.42779 8.56187 6.4938C8.56187 6.5598 8.57494 6.62516 8.60033 6.68609C8.62571 6.74702 8.66291 6.80232 8.70977 6.8488C8.75625 6.89566 8.81155 6.93286 8.87248 6.95824C8.93341 6.98363 8.99877 6.9967 9.06477 6.9967C9.13078 6.9967 9.19613 6.98363 9.25706 6.95824C9.31799 6.93286 9.37329 6.89566 9.41977 6.8488L10.1298 6.1388C10.4318 5.83385 10.6657 5.4682 10.8158 5.06607C10.9659 4.66394 11.0289 4.2345 11.0005 3.8062C10.9721 3.3779 10.8531 2.96052 10.6513 2.58169C10.4494 2.20287 10.1694 1.87125 9.82977 1.6088Z" fill="white"/>
</svg>
