<svg width="145" height="80" viewBox="0 0 145 80" fill="none" xmlns="http://www.w3.org/2000/svg">
<path fill-rule="evenodd" clip-rule="evenodd" d="M44.498 35.2025V79.9993H89.2983V23.999H55.7009L44.498 35.2025Z" fill="#FAFAFF"/>
<path fill-rule="evenodd" clip-rule="evenodd" d="M44.499 35.2011H55.7014V23.998L44.499 35.2011Z" fill="#C9CEFF"/>
<circle cx="76.9141" cy="44.4551" r="1.5" fill="#C9CEFF"/>
<circle cx="57.5918" cy="44.4551" r="1.5" fill="#C9CEFF"/>
<rect x="60.7305" y="51.4561" width="13.139" height="1.54576" rx="0.77288" fill="#C9CEFF"/>
<circle cx="105.3" cy="19.2001" r="19.2001" fill="#C9CEFF"/>
<path d="M89.3764 36.0722C90.6684 33.3412 91.1656 31.5631 91.4409 30.3994L99.699 33.454C98.4603 34.7631 97.2216 36.0722 93.9183 37.8176C91.6852 38.9976 88.5505 39.854 86.8989 39.9995C87.3118 39.4176 88.1376 38.6904 89.3764 36.0722Z" fill="#C9CEFF"/>
<circle cx="95.6001" cy="19.1016" r="1.5" fill="#FAFAFF"/>
<circle cx="105.202" cy="19.1016" r="1.5" fill="#FAFAFF"/>
<circle cx="114.801" cy="19.1016" r="1.5" fill="#FAFAFF"/>
</svg>
