<svg width="144" height="80" viewBox="0 0 144 80" fill="none" xmlns="http://www.w3.org/2000/svg">
<rect x="72" y="26" width="46" height="46" rx="23" fill="#C9CEFF"/>
<path fill-rule="evenodd" clip-rule="evenodd" d="M105.995 48C106.795 57.4641 111.17 65.861 118 71.6702C116.366 71.8903 114.699 72.0104 113.005 72.0104C97.1977 72.0104 83.7319 62.0127 78.5697 48H105.995Z" fill="#C9CEFF"/>
<circle cx="87.1719" cy="49.5078" r="1.5" fill="#FAFAFF"/>
<circle cx="95.1777" cy="49.5078" r="1.5" fill="#FAFAFF"/>
<circle cx="103.178" cy="49.5078" r="1.5" fill="#FAFAFF"/>
<rect x="26" y="8" width="60" height="59.9997" rx="29.9998" fill="#FAFAFF"/>
<path fill-rule="evenodd" clip-rule="evenodd" d="M38 44C37.2 53.4599 32.8267 61.8532 26 67.6599C27.6333 67.8799 29.3 67.9999 30.9933 67.9999C46.7933 67.9999 60.2533 58.0066 65.4133 44H38Z" fill="#FAFAFF"/>
<path d="M43.4974 36.9943C44.3255 36.9943 44.9968 36.3236 44.9968 35.4962C44.9968 34.6688 44.3255 33.998 43.4974 33.998C42.6693 33.998 41.998 34.6688 41.998 35.4962C41.998 36.3236 42.6693 36.9943 43.4974 36.9943Z" fill="#C9CEFF"/>
<path d="M67.334 35.3314C67.334 36.0706 68.002 36.6647 68.8333 36.6647C69.6647 36.6647 70.3327 36.0706 70.3327 35.3314C70.3327 34.5921 69.6647 33.998 68.8333 33.998C68.002 33.998 67.334 34.5921 67.334 35.3314Z" fill="#C9CEFF"/>
<path d="M51.1523 38.832C51.9659 40.8179 53.8642 42.2123 56.0744 42.2123C58.2845 42.2123 60.1829 40.8179 60.9964 38.832" stroke="#C9CEFF" stroke-width="1.6" stroke-linecap="round" stroke-linejoin="round"/>
</svg>
