<svg width="327" height="245" viewBox="0 0 327 245" fill="none" xmlns="http://www.w3.org/2000/svg">
<mask id="mask0_4002_67765" style="mask-type:alpha" maskUnits="userSpaceOnUse" x="0" y="0" width="327" height="245">
<rect width="327" height="245" fill="#D9D9D9"/>
</mask>
<g mask="url(#mask0_4002_67765)">
<rect y="-10" width="327" height="265.96" fill="#F8F9FA"/>
<path fill-rule="evenodd" clip-rule="evenodd" d="M203.505 76.3281C205.25 76.3281 206.664 77.7426 206.664 79.4875V137.949V139.583C206.664 139.829 206.636 140.069 206.583 140.299C205.475 156.217 193.204 168.76 178.229 168.76C162.525 168.76 149.794 154.966 149.794 137.949C149.794 137.667 149.798 137.385 149.805 137.104C149.798 137.018 149.794 136.931 149.794 136.844V90.7064V89.0731C149.794 88.6136 149.893 88.1771 150.069 87.7833C151.315 81.244 156.66 76.3281 163.064 76.3281C170.393 76.3281 176.334 82.7655 176.334 90.7064C176.334 90.9623 176.327 91.2167 176.315 91.4693C176.327 91.5818 176.334 91.6961 176.334 91.8118V137.949V138.213C176.334 138.253 176.333 138.292 176.331 138.331C176.295 141.575 175.796 144.699 174.902 147.628L174.897 147.626C174.47 148.968 173.294 149.931 171.91 149.931C170.166 149.931 168.751 148.399 168.751 146.508C168.751 146.072 168.826 145.655 168.963 145.271C169.646 142.963 170.015 140.503 170.015 137.949C170.015 137.72 170.012 137.492 170.006 137.265H170.015V118.582V102.957V91.8118V90.7064C170.015 86.5469 166.903 83.1749 163.064 83.1749C159.225 83.1749 156.113 86.5469 156.113 90.7064V102.957V107.139V118.582V137.265H156.122C156.116 137.492 156.113 137.72 156.113 137.949C156.113 151.184 166.015 161.913 178.229 161.913C190.444 161.913 200.345 151.184 200.345 137.949C200.345 137.72 200.342 137.492 200.336 137.265H200.345V118.582V107.139V79.4875C200.345 77.7426 201.76 76.3281 203.505 76.3281ZM125.783 89.0731C125.783 87.3282 124.368 85.9137 122.623 85.9137C120.879 85.9137 119.464 87.3282 119.464 89.0731V137.949V138.213C119.464 138.253 119.465 138.292 119.466 138.331C119.654 155.162 132.299 168.746 147.875 168.76H147.899C149.644 168.76 151.058 167.227 151.058 165.337C151.058 163.446 149.644 161.913 147.899 161.913C147.809 161.913 147.72 161.917 147.632 161.925L147.631 161.912C135.54 161.756 125.783 151.088 125.783 137.949C125.783 137.72 125.786 137.492 125.792 137.265H125.783V118.582V106.454V89.0731Z" fill="#C9CEFF"/>
<ellipse rx="3.15942" ry="3.42341" transform="matrix(-1 0 0 1 122.623 79.7515)" fill="#C9CEFF"/>
</g>
</svg>
