<svg width="200" height="120" viewBox="0 0 200 120" fill="none" xmlns="http://www.w3.org/2000/svg">
<g clip-path="url(#clip0_5464_96769)">
<path d="M64.7121 117L55 107.185L121.992 40.7037L138.92 52.9487L181.012 10.6484L190.787 20.4066L140.391 71.0612L123.393 58.7658L64.7121 117Z" fill="#F674C2"/>
<path d="M193 4L159.828 12.3606L190.234 38.1474L193 4Z" fill="#F674C2"/>
<path d="M90.0154 63.2753L88.9175 62.1758L63.8567 87.2743L64.9546 88.3739L90.0154 63.2753Z" fill="url(#paint0_linear_5464_96769)"/>
<path d="M164.323 56.4659L163.598 55.7402L147.067 72.296L147.792 73.0216L164.323 56.4659Z" fill="#EF66C0"/>
<path d="M119.037 71.0069L118.504 70.4727L80.3811 108.653L80.9145 109.187L119.037 71.0069Z" fill="#FB92DF"/>
<path d="M163.231 23.0381L162.698 22.5039L138.802 46.4361L139.335 46.9703L163.231 23.0381Z" fill="#FB92DF"/>
</g>
<ellipse cx="55" cy="74.5" rx="44" ry="43.5" fill="white"/>
<circle cx="55" cy="63" r="2" fill="#495057"/>
<ellipse cx="71.5" cy="76" rx="2.5" ry="4" fill="#495057"/>
<path d="M91.9853 26.7176L70.0251 53.0699C68.8382 54.4942 68.7856 56.5474 69.898 58.0306L70.9644 59.4525C71.9005 60.7007 73.4769 61.2907 75.0025 60.9637L108.888 53.7026C111.61 53.1193 112.919 50.003 111.429 47.6512L98.4375 27.1381C96.9859 24.8462 93.7221 24.6334 91.9853 26.7176Z" fill="#B8BFFF"/>
<path d="M78.8023 44.0089C78.8023 52.2932 85.518 59.0089 93.8023 59.0089C102.087 59.0089 108.802 52.2932 108.802 44.0089C108.802 35.7246 102.087 29.0089 93.8023 29.0089C85.518 29.0089 78.8023 35.7246 78.8023 44.0089Z" fill="#8481EF"/>
<path d="M97.1574 58.6323L107.5 56.6868C108.88 56.4024 111.67 53.4097 110.902 52.2286L93.4841 25.4652C92.7484 24.3347 90.3602 24.6908 89.5 25.7297L81.9492 34.8151C81.4984 35.3596 81.7978 36.0946 82.0368 36.7598L86.3382 48.7328C86.4453 49.031 86.6218 49.2995 86.853 49.5162L95.245 57.3781C95.7192 57.8224 96.521 58.7634 97.1574 58.6323Z" fill="#8481EF"/>
<circle r="19" transform="matrix(-1 0 0 1 104 38)" fill="#6F6CE8"/>
<circle r="16" transform="matrix(-1 0 0 1 104 38)" fill="#D9F2FE"/>
<circle r="9.5" transform="matrix(-1 0 0 1 101.5 37.5)" fill="#495057"/>
<circle cx="105.5" cy="33.5" r="1.5" fill="white"/>
<defs>
<linearGradient id="paint0_linear_5464_96769" x1="148.75" y1="3.36102" x2="1.23085" y2="150.658" gradientUnits="userSpaceOnUse">
<stop stop-color="#18B338"/>
<stop offset="0.08" stop-color="#14A448"/>
<stop offset="0.3" stop-color="#0B7F73"/>
<stop offset="0.5" stop-color="#056593"/>
<stop offset="0.66" stop-color="#0154A6"/>
<stop offset="0.78" stop-color="#004FAD"/>
</linearGradient>
<clipPath id="clip0_5464_96769">
<rect width="138" height="113" fill="white" transform="translate(55 4)"/>
</clipPath>
</defs>
</svg>
