<svg width="200" height="163" viewBox="0 0 200 163" fill="none" xmlns="http://www.w3.org/2000/svg">
<g clip-path="url(#clip0_5464_96770)">
<path d="M138.446 44.809L131.474 32.8875L59.8687 74.3897L67.3202 93.9107L15.5307 123.62L22.4313 135.588L84.4468 100.019L76.9645 80.4185L138.446 44.809Z" fill="#74CCF6"/>
<path d="M5.99995 133.298L22.6729 103.42L39.7234 139.464L5.99995 133.298Z" fill="#74CCF6"/>
<path d="M89.9689 49.1634L89.1904 47.8184L119.942 30.1074L120.72 31.4525L89.9689 49.1634Z" fill="#74CCF6"/>
<path d="M64.1414 119.177L63.6277 118.289L83.9121 106.606L84.4258 107.494L64.1414 119.177Z" fill="#74CCF6"/>
<path d="M89.9258 79.1984L89.5476 78.5449L141.592 48.5702L141.97 49.2237L89.9258 79.1984Z" fill="#52C1F6"/>
<path d="M32.1133 109.472L31.7351 108.818L61.0572 91.9305L61.4354 92.584L32.1133 109.472Z" fill="#ACDEF6"/>
</g>
<circle r="44" transform="matrix(-1 0 0 1 151 72)" fill="white"/>
<path d="M134.288 96.62C136.319 96.62 137.96 94.88 137.96 92.75C137.96 92.34 137.62 92 137.21 92C136.799 92 136.459 92.34 136.459 92.75C136.459 94.06 135.488 95.12 134.288 95.12C133.087 95.12 132.116 94.06 132.116 92.75C132.116 92.34 131.776 92 131.366 92C130.955 92 130.615 92.34 130.615 92.75C130.615 94.88 132.256 96.62 134.288 96.62Z" fill="#495057"/>
<ellipse rx="2.00141" ry="2" transform="matrix(-1 0 0 1 142.963 78)" fill="#495057"/>
<path d="M86.6727 80.1307L120.858 76.9912C122.705 76.8216 124.426 77.942 125.016 79.6984L125.584 81.3856C126.081 82.8642 125.672 84.497 124.537 85.5679L99.3179 109.359C97.2929 111.269 93.9836 110.58 92.8913 108.021L83.3574 85.6823C82.2926 83.1875 83.9698 80.379 86.6727 80.1307Z" fill="#B8BFFF"/>
<path d="M108.407 79.0815C115.234 83.7803 116.957 93.1204 112.255 99.9432C107.553 106.766 98.2065 108.488 91.3789 103.789C84.5513 99.0903 82.8282 89.7502 87.5303 82.9274C92.2324 76.1046 101.579 74.3828 108.407 79.0815Z" fill="#8481EF"/>
<path d="M110.04 102.493L102.567 109.907C101.549 110.883 97.4989 111.483 96.9618 110.18L84.7903 80.6554C84.2762 79.4083 85.9252 77.6434 87.2697 77.5242L99.0433 76.4586C99.7479 76.3962 100.184 77.0596 100.596 77.6338L108.023 87.9673C108.208 88.2247 108.329 88.5223 108.376 88.8357L110.092 100.206C110.189 100.849 110.51 102.043 110.04 102.493Z" fill="#8481EF"/>
<circle r="19" transform="matrix(0.567462 -0.823399 0.823772 0.566922 89.1429 96.4238)" fill="#6F6CE8"/>
<circle r="16" transform="matrix(0.567462 -0.823399 0.823772 0.566922 89.145 96.4237)" fill="#D9F2FE"/>
<ellipse rx="9.50215" ry="9.5" transform="matrix(0.567462 -0.823399 0.823772 0.566922 90.1559 94.0812)" fill="#495057"/>
<ellipse rx="1.50034" ry="1.50072" transform="matrix(-0.567462 0.823399 0.823772 0.566922 84.2013 95.3655)" fill="white"/>
<defs>
<clipPath id="clip0_5464_96770">
<rect width="138.007" height="113.074" fill="white" transform="matrix(-0.258989 0.96588 0.965971 0.258649 41.7422 0)"/>
</clipPath>
</defs>
</svg>
