<svg width="154" height="117" viewBox="0 0 154 117" fill="none" xmlns="http://www.w3.org/2000/svg">
<ellipse cx="63" cy="73.5" rx="44" ry="43.5" fill="white"/>
<path d="M58.6698 74.9991C60.6998 74.9991 62.3398 76.7391 62.3398 78.8691C62.3398 79.2791 61.9998 79.6191 61.5898 79.6191C61.1798 79.6191 60.8398 79.2791 60.8398 78.8691C60.8398 77.5591 59.8698 76.4991 58.6698 76.4991C57.4698 76.4991 56.4998 77.5591 56.4998 78.8691C56.4998 79.2791 56.1598 79.6191 55.7498 79.6191C55.3398 79.6191 54.9998 79.2791 54.9998 78.8691C54.9998 76.7391 56.6398 74.9991 58.6698 74.9991Z" fill="#495057"/>
<circle cx="50" cy="63" r="2" fill="#495057"/>
<circle cx="74" cy="63" r="2" fill="#495057"/>
<line x1="53.3066" y1="57.1387" x2="48.1387" y2="53.6934" stroke="#495057" stroke-linecap="round"/>
<path d="M31.0147 32.7176L52.9749 59.0699C54.1618 60.4942 54.2144 62.5474 53.102 64.0306L52.0356 65.4525C51.0995 66.7007 49.5231 67.2907 47.9975 66.9637L14.1121 59.7026C11.39 59.1193 10.0814 56.003 11.5709 53.6512L24.5625 33.1381C26.0141 30.8462 29.2779 30.6334 31.0147 32.7176Z" fill="#B8BFFF"/>
<path d="M44.1977 50.0089C44.1977 58.2932 37.482 65.0089 29.1977 65.0089C20.9134 65.0089 14.1977 58.2932 14.1977 50.0089C14.1977 41.7246 20.9134 35.0089 29.1977 35.0089C37.482 35.0089 44.1977 41.7246 44.1977 50.0089Z" fill="#8481EF"/>
<path d="M25.8426 64.6323L15.5 62.6868C14.1198 62.4024 11.3298 59.4097 12.0984 58.2286L29.5159 31.4652C30.2516 30.3347 32.6398 30.6908 33.5 31.7297L41.0508 40.8151C41.5016 41.3596 41.2022 42.0946 40.9632 42.7598L36.6618 54.7328C36.5547 55.031 36.3782 55.2995 36.147 55.5162L27.755 63.3781C27.2808 63.8224 26.479 64.7634 25.8426 64.6323Z" fill="#8481EF"/>
<circle cx="19" cy="44" r="19" fill="#6F6CE8"/>
<circle cx="19" cy="44" r="16" fill="#D9F2FE"/>
<circle cx="21.5" cy="43.5" r="9.5" fill="#495057"/>
<line x1="71.2626" y1="57.3435" x2="77.3435" y2="54.7374" stroke="#495057" stroke-linecap="round"/>
<circle cx="26.5" cy="41.5" r="1.5" fill="white"/>
<circle cx="126.992" cy="25.4318" r="22.4318" fill="#F8F9FA"/>
<path fill-rule="evenodd" clip-rule="evenodd" d="M113.818 24.3633C112.964 34.4683 108.292 43.4339 101 49.6365C102.745 49.8715 104.525 49.9996 106.334 49.9996C123.211 49.9996 137.589 39.3249 143.101 24.3633H113.818Z" fill="#F8F9FA"/>
<path d="M124.521 25.8586C124.921 25.465 125.427 25.2663 126.038 25.2644C127.592 25.2625 128.838 24.9106 129.779 24.2124C130.718 23.5124 131.189 22.432 131.187 20.9675C131.187 19.8418 130.759 18.9071 129.911 18.1654C129.063 17.4237 128.003 17.0528 126.732 17.0547C125.437 17.0566 124.296 17.4748 123.309 18.3092C122.746 18.8049 122.156 19.0546 121.545 19.0546C121.099 19.0546 120.697 18.9203 120.345 18.6516C119.732 18.2032 119.426 17.6734 119.424 17.0661C119.424 16.5476 119.645 16.0746 120.092 15.647C120.938 14.8126 121.931 14.1636 123.072 13.7001C124.213 13.2346 125.431 13.0019 126.726 13C128.325 12.9981 129.787 13.3444 131.105 14.0406C132.424 14.7369 133.474 15.6981 134.253 16.9242C135.032 18.1502 135.422 19.4955 135.424 20.96C135.428 23.1226 134.781 24.8349 133.49 26.097C132.197 27.3609 130.481 28.1517 128.339 28.4696C128.221 28.515 128.163 28.5718 128.163 28.638V29.8887C128.165 30.4752 127.968 30.9653 127.568 31.3588C127.169 31.7543 126.663 31.951 126.052 31.9529C125.439 31.9529 124.932 31.758 124.533 31.3645C124.132 30.9709 123.932 30.4809 123.93 29.8962L123.926 27.3287C123.926 26.744 124.124 26.254 124.523 25.8586H124.521ZM124.31 37.4797C123.944 37.1315 123.762 36.6301 123.76 35.9774V35.4022C123.76 34.7494 123.94 34.248 124.304 33.898C124.668 33.5479 125.191 33.3739 125.874 33.372H126.332C127.015 33.372 127.539 33.5442 127.904 33.8923C128.27 34.2404 128.452 34.7418 128.454 35.3946V35.9698C128.454 36.6226 128.274 37.124 127.91 37.474C127.546 37.824 127.022 37.9981 126.34 38H125.882C125.199 38 124.675 37.8278 124.31 37.4797Z" fill="#E9ECEF"/>
<path d="M92.5044 9.74381C92.779 9.4762 93.127 9.3411 93.5471 9.33982C94.6155 9.33853 95.4719 9.09922 96.119 8.62446C96.7647 8.14842 97.0882 7.41376 97.0869 6.41792C97.0869 5.65239 96.7932 5.0168 96.2101 4.51245C95.6269 4.0081 94.8983 3.75593 94.0242 3.75721C93.1338 3.7585 92.3495 4.04284 91.6712 4.61024C91.2837 4.94733 90.8786 5.11716 90.4586 5.11716C90.1514 5.11716 89.8754 5.02581 89.6335 4.84311C89.2121 4.53819 89.0014 4.17793 89 3.76493C89 3.4124 89.1522 3.09075 89.4595 2.79997C90.0413 2.23258 90.7237 1.79127 91.508 1.47605C92.2924 1.15954 93.1298 1.00129 94.0201 1.00001C95.1199 0.998719 96.1244 1.23417 97.0311 1.70764C97.9378 2.18111 98.6597 2.83471 99.1952 3.66844C99.7308 4.50216 99.9986 5.41694 100 6.41278C100.003 7.88337 99.5582 9.04776 98.6705 9.90593C97.7815 10.7654 96.6016 11.3032 95.1294 11.5193C95.0478 11.5502 95.0084 11.5888 95.0084 11.6338V12.4843C95.0098 12.8831 94.8738 13.2164 94.5992 13.484C94.3246 13.7529 93.9766 13.8867 93.5566 13.888C93.1352 13.888 92.7872 13.7555 92.5126 13.4879C92.2366 13.2202 92.0994 12.887 92.098 12.4894L92.0953 10.7435C92.0953 10.3459 92.2312 10.0127 92.5058 9.74381H92.5044ZM92.359 17.6462C92.1075 17.4094 91.9824 17.0685 91.9811 16.6246V16.2335C91.9811 15.7896 92.1048 15.4486 92.3549 15.2106C92.605 14.9726 92.9653 14.8542 93.4343 14.8529H93.7496C94.2186 14.8529 94.5788 14.97 94.8303 15.2068C95.0818 15.4435 95.2069 15.7845 95.2082 16.2283V16.6195C95.2082 17.0633 95.0845 17.4043 94.8344 17.6423C94.5843 17.8803 94.224 17.9987 93.7551 18H93.4397C92.9707 18 92.6105 17.8829 92.359 17.6462V17.6462Z" stroke="#F8F9FA" stroke-miterlimit="10"/>
<path d="M120.779 66.8299C121.153 66.4678 121.628 66.285 122.201 66.2833C123.658 66.2815 124.825 65.9578 125.708 65.3154C126.588 64.6714 127.029 63.6774 127.028 62.3301C127.028 61.2944 126.627 60.4345 125.832 59.7521C125.037 59.0698 124.043 58.7286 122.851 58.7303C121.637 58.7321 120.567 59.1168 119.642 59.8844C119.114 60.3405 118.562 60.5703 117.989 60.5703C117.57 60.5703 117.194 60.4467 116.864 60.1995C116.289 59.787 116.002 59.2996 116 58.7408C116 58.2638 116.208 57.8287 116.627 57.4353C117.42 56.6676 118.35 56.0705 119.42 55.6441C120.49 55.2159 121.631 55.0017 122.846 55C124.345 54.9983 125.715 55.3168 126.952 55.9574C128.188 56.598 129.172 57.4823 129.903 58.6102C130.633 59.7382 130.998 60.9759 131 62.3232C131.004 64.3128 130.398 65.8881 129.187 67.0492C127.975 68.212 126.366 68.9396 124.358 69.232C124.247 69.2738 124.193 69.326 124.193 69.387V70.5376C124.195 71.0772 124.01 71.528 123.635 71.8901C123.261 72.2539 122.786 72.435 122.214 72.4367C121.639 72.4367 121.164 72.2574 120.79 71.8953C120.414 71.5333 120.226 71.0824 120.225 70.5445L120.221 68.1824C120.221 67.6445 120.406 67.1937 120.781 66.8299H120.779ZM120.58 77.5213C120.238 77.201 120.067 76.7397 120.065 76.1392V75.61C120.065 75.0095 120.234 74.5482 120.575 74.2261C120.916 73.9041 121.407 73.744 122.047 73.7422H122.477C123.116 73.7422 123.608 73.9006 123.95 74.2209C124.293 74.5412 124.464 75.0025 124.466 75.603V76.1322C124.466 76.7328 124.297 77.1941 123.956 77.5161C123.615 77.8381 123.124 77.9983 122.484 78H122.054C121.415 78 120.923 77.8416 120.58 77.5213V77.5213Z" stroke="#F8F9FA" stroke-miterlimit="10"/>
<path d="M146.186 53.2295C146.435 52.9776 146.752 52.8505 147.134 52.8492C148.105 52.848 148.884 52.6228 149.472 52.176C150.059 51.7279 150.353 51.0365 150.352 50.0992C150.352 49.3787 150.085 48.7805 149.555 48.3058C149.024 47.8312 148.362 47.5938 147.567 47.595C146.758 47.5962 146.045 47.8638 145.428 48.3979C145.076 48.7151 144.708 48.875 144.326 48.875C144.047 48.875 143.796 48.789 143.576 48.617C143.193 48.3301 143.001 47.991 143 47.6023C143 47.2705 143.138 46.9678 143.418 46.6941C143.947 46.1601 144.567 45.7447 145.28 45.448C145.993 45.1502 146.754 45.0012 147.564 45C148.564 44.9988 149.477 45.2204 150.301 45.666C151.125 46.1116 151.782 46.7268 152.268 47.5115C152.755 48.2962 152.999 49.1571 153 50.0944C153.002 51.4785 152.598 52.5744 151.791 53.382C150.983 54.1909 149.911 54.6971 148.572 54.9006C148.498 54.9296 148.462 54.9659 148.462 55.0083V55.8087C148.463 56.1841 148.34 56.4978 148.09 56.7496C147.841 57.0027 147.524 57.1287 147.142 57.1299C146.759 57.1299 146.443 57.0051 146.193 56.7533C145.942 56.5014 145.818 56.1878 145.816 55.8136L145.814 54.1704C145.814 53.7962 145.937 53.4826 146.187 53.2295H146.186ZM146.054 60.667C145.825 60.4442 145.711 60.1233 145.71 59.7055V59.3374C145.71 58.9196 145.823 58.5987 146.05 58.3747C146.277 58.1507 146.605 58.0393 147.031 58.0381H147.318C147.744 58.0381 148.072 58.1483 148.3 58.3711C148.529 58.5939 148.643 58.9148 148.644 59.3326V59.7007C148.644 60.1184 148.531 60.4393 148.304 60.6634C148.077 60.8874 147.749 60.9988 147.323 61H147.036C146.61 61 146.282 60.8898 146.054 60.667V60.667Z" stroke="#F8F9FA" stroke-miterlimit="10"/>
</svg>
