<svg width="6" height="9" viewBox="0 0 6 9" fill="none" xmlns="http://www.w3.org/2000/svg">
<path d="M1.87203 5.20714C1.87203 4.99914 1.94003 4.82714 2.07603 4.69114C2.21203 4.54714 2.38403 4.47514 2.59203 4.47514C2.92003 4.47514 3.21603 4.42714 3.48003 4.33114C3.74403 4.22714 3.95203 4.06314 4.10403 3.83914C4.26403 3.61514 4.34403 3.31914 4.34403 2.95114C4.34403 2.67914 4.27603 2.43914 4.14003 2.23114C4.01203 2.02314 3.83203 1.85914 3.60003 1.73914C3.37603 1.61914 3.12003 1.55914 2.83203 1.55914C2.60803 1.55914 2.39603 1.59914 2.19603 1.67914C2.00403 1.75914 1.82803 1.86714 1.66803 2.00314C1.54003 2.11514 1.38403 2.19914 1.20003 2.25514C1.02403 2.30314 0.844034 2.25914 0.660034 2.12314C0.468034 1.97914 0.364034 1.80714 0.348034 1.60714C0.332034 1.40714 0.408034 1.22314 0.576034 1.05514C0.864034 0.75914 1.20003 0.53114 1.58403 0.37114C1.97603 0.20314 2.39203 0.119141 2.83203 0.119141C3.38403 0.119141 3.88003 0.247141 4.32003 0.503141C4.76803 0.75114 5.12403 1.08714 5.38803 1.51114C5.65203 1.93514 5.78403 2.41514 5.78403 2.95114C5.78403 3.35114 5.72403 3.70714 5.60403 4.01914C5.48403 4.32314 5.31203 4.58714 5.08803 4.81114C4.87203 5.02714 4.61603 5.20314 4.32003 5.33914C4.03203 5.46714 3.71603 5.55914 3.37203 5.61514C3.35603 5.62314 3.34003 5.63114 3.32403 5.63914C3.31603 5.64714 3.31203 5.65914 3.31203 5.67514V6.11914C3.31203 6.32714 3.24403 6.50314 3.10803 6.64714C2.97203 6.78314 2.80003 6.85114 2.59203 6.85114C2.38403 6.85114 2.21203 6.78314 2.07603 6.64714C1.94003 6.50314 1.87203 6.32714 1.87203 6.11914V5.20714ZM2.53203 8.99914C2.30003 8.99914 2.12003 8.93914 1.99203 8.81914C1.87203 8.69114 1.81203 8.51114 1.81203 8.27914V8.07514C1.81203 7.84314 1.87203 7.66714 1.99203 7.54714C2.12003 7.41914 2.30003 7.35514 2.53203 7.35514H2.68803C2.92003 7.35514 3.09603 7.41914 3.21603 7.54714C3.34403 7.66714 3.40803 7.84314 3.40803 8.07514V8.27914C3.40803 8.51114 3.34403 8.69114 3.21603 8.81914C3.09603 8.93914 2.92003 8.99914 2.68803 8.99914H2.53203Z" fill="#6C757D"/>
</svg>
