<svg width="16" height="18" viewBox="0 0 16 18" fill="none" xmlns="http://www.w3.org/2000/svg">
<path d="M11.5603 4.00659C11.8494 4.50112 12.386 4.83333 13.0002 4.83333C13.9206 4.83333 14.6668 4.08714 14.6668 3.16667C14.6668 2.24619 13.9206 1.5 13.0002 1.5C12.0797 1.5 11.3335 2.24619 11.3335 3.16667C11.3335 3.47296 11.4161 3.75996 11.5603 4.00659ZM11.5603 4.00659L4.44003 8.16008M4.44003 8.16008C4.15093 7.66555 3.61434 7.33333 3.00016 7.33333C2.07969 7.33333 1.3335 8.07953 1.3335 9C1.3335 9.92047 2.07969 10.6667 3.00016 10.6667C3.61434 10.6667 4.15093 10.3345 4.44003 9.83992M4.44003 8.16008C4.5842 8.40671 4.66683 8.6937 4.66683 9C4.66683 9.3063 4.5842 9.59329 4.44003 9.83992M4.44003 9.83992L11.5603 13.9934M11.5603 13.9934C11.8494 13.4989 12.386 13.1667 13.0002 13.1667C13.9206 13.1667 14.6668 13.9129 14.6668 14.8333C14.6668 15.7538 13.9206 16.5 13.0002 16.5C12.0797 16.5 11.3335 15.7538 11.3335 14.8333C11.3335 14.527 11.4161 14.24 11.5603 13.9934Z" stroke="#6C757D" stroke-width="1.2" stroke-linecap="round" stroke-linejoin="round"/>
</svg>
