<svg width="283" height="295" viewBox="0 0 283 295" fill="none" xmlns="http://www.w3.org/2000/svg">
<path d="M274.796 215.625H257.685C256.778 215.625 256.007 216.365 256.007 217.286V256.598H255.915L223.327 216.847C222.672 216.064 221.717 215.625 220.714 215.625H206.891C205.985 215.625 205.237 216.365 205.237 217.286V289.121C205.237 290.042 205.985 290.782 206.891 290.782H224.002C224.933 290.782 225.68 290.042 225.68 289.121V249.928H225.796L258.268 289.56C258.9 290.319 259.855 290.782 260.882 290.782H274.796C275.727 290.782 276.474 290.042 276.474 289.121V217.286C276.474 216.365 275.727 215.625 274.796 215.625Z" fill="#0028A0"/>
<path d="M156.355 274.359C144.561 274.359 134.996 264.887 134.996 253.209C134.996 241.526 144.561 232.054 156.355 232.054C168.148 232.054 177.718 241.526 177.718 253.209C177.718 264.887 168.148 274.359 156.355 274.359ZM156.355 211.887C133.313 211.887 114.625 230.387 114.625 253.209C114.625 276.025 133.313 294.502 156.355 294.502C179.396 294.502 198.06 276.025 198.06 253.209C198.06 230.387 179.396 211.887 156.355 211.887Z" fill="#0028A0"/>
<path d="M114.361 216.74L90.9139 289.639C90.6921 290.327 90.046 290.79 89.318 290.79H73.2048C72.4622 290.79 71.8114 290.313 71.5992 289.611L60.1049 251.65H59.2804L47.7813 289.611C47.5692 290.313 46.9183 290.79 46.1806 290.79H30.0625C29.3345 290.79 28.6884 290.327 28.4715 289.639L5.01999 216.74C4.8416 216.186 5.26106 215.618 5.84927 215.618H25.2507C25.9932 215.618 26.649 216.1 26.8563 216.807L39.4209 259.017L52.1929 216.797C52.4051 216.095 53.056 215.618 53.7936 215.618H65.5917C66.3294 215.618 66.9803 216.095 67.1924 216.797L79.9885 259.017L92.5243 216.807C92.7364 216.1 93.3873 215.618 94.1298 215.618H113.531C114.119 215.618 114.539 216.186 114.361 216.74Z" fill="#0028A0"/>
<path d="M77.5465 18.5184C35.1709 18.5184 0.5 52.8507 0.5 94.8077C0.5 136.769 35.1709 171.102 77.5465 171.102H187.259V18.5184H77.5465Z" fill="url(#paint0_linear_6318_43506)"/>
<path d="M282.497 94.8126C282.497 146.901 239.856 189.125 187.25 189.125C134.648 189.125 92.0068 146.901 92.0068 94.8126C92.0068 42.7245 134.648 0.500229 187.25 0.500229C239.856 0.500229 282.497 42.7245 282.497 94.8126Z" fill="#0028A0"/>
<defs>
<linearGradient id="paint0_linear_6318_43506" x1="0.503568" y1="94.8093" x2="187.26" y2="94.8093" gradientUnits="userSpaceOnUse">
<stop stop-color="#20C4F4"/>
<stop offset="0.643831" stop-color="#C8FFFF"/>
<stop offset="0.99996" stop-color="#C8FFFF"/>
<stop offset="1" stop-color="#C8FFFF"/>
</linearGradient>
</defs>
</svg>
