<svg width="152" height="152" viewBox="0 0 152 152" fill="none" xmlns="http://www.w3.org/2000/svg">
<circle cx="76" cy="76" r="62.9375" fill="#6F6CE8"/>
<g clip-path="url(#clip0_5172_83941)">
<path d="M42.7906 41.2723C43.3819 39.8446 42.704 38.2079 41.2763 37.6166C39.8486 37.0252 38.2119 37.7032 37.6206 39.1308C37.0292 40.5585 37.7072 42.1952 39.1348 42.7866C40.5625 43.3779 42.1992 42.7 42.7906 41.2723Z" fill="white"/>
<path fill-rule="evenodd" clip-rule="evenodd" d="M111.796 37.4062C110.253 37.4062 108.998 38.6573 108.998 40.2042V73.7668V89.3612C108.998 100.174 100.233 108.998 89.4239 108.998C78.6148 108.998 69.8498 100.193 69.8498 89.3843V49.1152C69.8695 45.7331 72.6162 42.9983 75.9983 42.9983C79.3804 42.9983 82.127 45.7331 82.1507 49.1152V73.7707C82.1507 73.7707 82.1507 73.7707 82.1507 73.7668V89.4229C82.1507 92.2801 81.5351 94.9843 80.434 97.4311C80.2762 97.7863 80.1933 98.1747 80.1933 98.5812C80.1933 100.124 81.4443 101.379 82.9913 101.379C84.2068 101.379 85.2368 100.604 85.6235 99.5229C86.9811 96.4329 87.7467 93.0333 87.7507 89.4461C87.7507 89.4303 87.7507 89.4155 87.7507 89.3998V49.2454C87.7507 49.2454 87.7507 49.2296 87.7507 49.2218C87.7507 49.1981 87.7507 49.1744 87.7507 49.1507C87.7507 42.6628 82.4901 37.4062 76.0062 37.4062C69.5223 37.4062 64.2617 42.6628 64.2617 49.1507C64.2617 49.1665 64.2617 49.1783 64.2617 49.1941C64.2617 49.1981 64.2617 49.202 64.2617 49.2099V89.5233C64.2617 89.5233 64.2617 89.5462 64.2617 89.558C64.3367 103.394 75.5721 114.594 89.4279 114.594C103.284 114.594 114.598 103.264 114.598 89.3612V40.2042C114.598 38.6612 113.347 37.4062 111.8 37.4062H111.796Z" fill="white"/>
<path fill-rule="evenodd" clip-rule="evenodd" d="M64.3365 108.921C64.2457 108.921 64.155 108.928 64.0681 108.936C63.5749 108.968 63.0816 108.998 62.5764 108.998C51.7633 108.998 43.0023 100.232 43.0023 89.4229V73.7667V48.0338C43.0023 46.4908 41.7513 45.2358 40.2043 45.2358C38.6613 45.2358 37.4063 46.4868 37.4063 48.0338V89.4924C37.4063 89.524 37.4061 89.5095 37.4064 89.5426C37.4932 103.367 48.7285 114.586 62.5764 114.586C63.1723 114.586 63.7603 114.564 64.3444 114.524C65.7727 114.401 67.1345 113.262 67.1345 111.719C67.1345 110.176 65.8835 108.921 64.3365 108.921Z" fill="white"/>
</g>
<defs>
<clipPath id="clip0_5172_83941">
<rect width="77.1875" height="77.1875" fill="white" transform="translate(37.4062 37.4062)"/>
</clipPath>
</defs>
</svg>
