<svg width="180" height="180" viewBox="0 0 180 180" fill="none" xmlns="http://www.w3.org/2000/svg">
<circle cx="90" cy="90" r="74.5312" fill="#6F6CE8"/>
<g clip-path="url(#clip0_5172_83919)">
<path d="M50.6736 48.8752C51.3739 47.1845 50.571 45.2463 48.8804 44.546C47.1897 43.8457 45.2515 44.6485 44.5512 46.3392C43.8509 48.0298 44.6537 49.9681 46.3444 50.6684C48.035 51.3687 49.9733 50.5658 50.6736 48.8752Z" fill="white"/>
<path fill-rule="evenodd" clip-rule="evenodd" d="M132.389 44.2969C130.562 44.2969 129.076 45.7783 129.076 47.6103V87.3554V105.822C129.076 118.627 118.696 129.076 105.896 129.076C93.0956 129.076 82.7161 118.65 82.7161 105.85V58.1627C82.7395 54.1577 85.9921 50.919 89.9972 50.919C94.0023 50.919 97.2549 54.1577 97.283 58.1627V87.3601C97.283 87.3601 97.283 87.3601 97.283 87.3554V105.896C97.283 109.279 96.5539 112.481 95.2501 115.379C95.0631 115.8 94.965 116.26 94.965 116.741C94.965 118.568 96.4464 120.054 98.2784 120.054C99.7178 120.054 100.938 119.137 101.396 117.856C103.003 114.197 103.91 110.171 103.914 105.923C103.914 105.904 103.914 105.887 103.914 105.868V58.317C103.914 58.317 103.914 58.2983 103.914 58.2889C103.914 58.2609 103.914 58.2328 103.914 58.2048C103.914 50.5218 97.6849 44.2969 90.0065 44.2969C82.3282 44.2969 76.0986 50.5218 76.0986 58.2048C76.0986 58.2235 76.0986 58.2375 76.0986 58.2562C76.0986 58.2609 76.0986 58.2655 76.0986 58.2749V106.014C76.0986 106.014 76.0986 106.041 76.0986 106.056C76.1874 122.44 89.4925 135.703 105.901 135.703C122.309 135.703 135.707 122.287 135.707 105.822V47.6103C135.707 45.783 134.226 44.2969 132.394 44.2969H132.389Z" fill="white"/>
<path fill-rule="evenodd" clip-rule="evenodd" d="M76.188 128.985C76.0805 128.985 75.973 128.994 75.8702 129.003C75.286 129.041 74.7018 129.076 74.1036 129.076C61.2986 129.076 50.9238 118.696 50.9238 105.896V87.3554V56.8823C50.9238 55.055 49.4423 53.5688 47.6104 53.5688C45.7831 53.5688 44.297 55.0503 44.297 56.8823V105.978C44.297 106.015 44.2967 105.998 44.297 106.037C44.3998 122.408 57.7048 135.694 74.1036 135.694C74.8093 135.694 75.5057 135.668 76.1973 135.621C77.8888 135.475 79.5014 134.126 79.5014 132.298C79.5014 130.471 78.0199 128.985 76.188 128.985Z" fill="white"/>
</g>
<defs>
<clipPath id="clip0_5172_83919">
<rect width="91.4062" height="91.4062" fill="white" transform="translate(44.2969 44.2969)"/>
</clipPath>
</defs>
</svg>
