<svg width="167" height="167" viewBox="0 0 167 167" fill="none" xmlns="http://www.w3.org/2000/svg">
<circle cx="83.5" cy="83.5" r="69.1484" fill="#6F6CE8"/>
<g clip-path="url(#clip0_5172_83930)">
<path d="M47.0139 45.3452C47.6636 43.7767 46.9187 41.9784 45.3502 41.3287C43.7816 40.679 41.9834 41.4239 41.3336 42.9924C40.6839 44.561 41.4288 46.3592 42.9973 47.0089C44.5659 47.6586 46.3641 46.9138 47.0139 45.3452Z" fill="white"/>
<path fill-rule="evenodd" clip-rule="evenodd" d="M122.829 41.0977C121.133 41.0977 119.755 42.4721 119.755 44.1718V81.0464V98.1797C119.755 110.06 110.125 119.754 98.2488 119.754C86.373 119.754 76.7431 110.081 76.7431 98.2051V53.9621C76.7647 50.2463 79.7825 47.2415 83.4983 47.2415C87.2141 47.2415 90.2319 50.2463 90.2579 53.9621V81.0508C90.2579 81.0508 90.2579 81.0508 90.2579 81.0464V98.2475C90.2579 101.387 89.5815 104.358 88.3718 107.046C88.1984 107.436 88.1073 107.863 88.1073 108.31C88.1073 110.005 89.4818 111.384 91.1814 111.384C92.5169 111.384 93.6485 110.532 94.0734 109.344C95.5649 105.949 96.4061 102.214 96.4104 98.273C96.4104 98.2556 96.4104 98.2394 96.4104 98.2221V54.1052C96.4104 54.1052 96.4104 54.0878 96.4104 54.0792C96.4104 54.0531 96.4104 54.0271 96.4104 54.0011C96.4104 46.873 90.6308 41.0977 83.507 41.0977C76.3832 41.0977 70.6035 46.873 70.6035 54.0011C70.6035 54.0185 70.6035 54.0315 70.6035 54.0488C70.6035 54.0531 70.6035 54.0575 70.6035 54.0662V98.3578C70.6035 98.3578 70.6035 98.3829 70.6035 98.3959C70.6859 113.597 83.03 125.902 98.2532 125.902C113.476 125.902 125.907 113.455 125.907 98.1797V44.1718C125.907 42.4765 124.533 41.0977 122.833 41.0977H122.829Z" fill="white"/>
<path fill-rule="evenodd" clip-rule="evenodd" d="M70.6855 119.67C70.5858 119.67 70.4861 119.678 70.3907 119.686C69.8487 119.721 69.3067 119.754 68.7517 119.754C56.8715 119.754 47.246 110.124 47.246 98.2479V81.0466V52.7743C47.246 51.079 45.8715 49.7002 44.1718 49.7002C42.4765 49.7002 41.0977 51.0747 41.0977 52.7743V98.3242C41.0977 98.3589 41.0975 98.3429 41.0978 98.3793C41.1932 113.568 53.5373 125.894 68.7517 125.894C69.4064 125.894 70.0525 125.87 70.6942 125.826C72.2635 125.691 73.7596 124.439 73.7596 122.744C73.7596 121.048 72.3851 119.67 70.6855 119.67Z" fill="white"/>
</g>
<defs>
<clipPath id="clip0_5172_83930">
<rect width="84.8047" height="84.8047" fill="white" transform="translate(41.0977 41.0977)"/>
</clipPath>
</defs>
</svg>
