<svg width="120" height="120" viewBox="0 0 120 120" fill="none" xmlns="http://www.w3.org/2000/svg">
<circle cx="60" cy="60" r="49.6875" fill="#6F6CE8"/>
<g clip-path="url(#clip0_5172_83952)">
<path d="M33.7824 32.5834C34.2492 31.4563 33.714 30.1642 32.5869 29.6973C31.4598 29.2305 30.1677 29.7657 29.7008 30.8928C29.2339 32.0199 29.7692 33.3121 30.8963 33.7789C32.0234 34.2458 33.3155 33.7105 33.7824 32.5834Z" fill="white"/>
<path fill-rule="evenodd" clip-rule="evenodd" d="M88.2595 29.5312C87.0413 29.5312 86.0506 30.5189 86.0506 31.7402V58.2369V70.5483C86.0506 79.0849 79.1309 86.0508 70.5973 86.0508C62.0638 86.0508 55.1441 79.1001 55.1441 70.5666V38.7752C55.1597 36.1051 57.3281 33.946 59.9981 33.946C62.6682 33.946 64.8366 36.1051 64.8553 38.7752V58.2401C64.8553 58.2401 64.8553 58.2401 64.8553 58.2369V70.597C64.8553 72.8527 64.3693 74.9876 63.5 76.9193C63.3754 77.1997 63.31 77.5064 63.31 77.8273C63.31 79.0455 64.2976 80.0362 65.5189 80.0362C66.4785 80.0362 67.2917 79.4244 67.597 78.5707C68.6688 76.1312 69.2732 73.4474 69.2763 70.6153C69.2763 70.6028 69.2763 70.5912 69.2763 70.5788V38.878C69.2763 38.878 69.2763 38.8655 69.2763 38.8593C69.2763 38.8406 69.2763 38.8219 69.2763 38.8032C69.2763 33.6812 65.1233 29.5312 60.0044 29.5312C54.8855 29.5312 50.7324 33.6812 50.7324 38.8032C50.7324 38.8157 50.7324 38.825 50.7324 38.8375C50.7324 38.8406 50.7324 38.8437 50.7324 38.8499V70.6762C50.7324 70.6762 50.7324 70.6943 50.7324 70.7037C50.7916 81.6269 59.6617 90.4688 70.6004 90.4688C81.5392 90.4688 90.4716 81.5244 90.4716 70.5483V31.7402C90.4716 30.522 89.4839 29.5312 88.2626 29.5312H88.2595Z" fill="white"/>
<path fill-rule="evenodd" clip-rule="evenodd" d="M50.792 85.9898C50.7203 85.9898 50.6487 85.9957 50.5801 86.002C50.1907 86.0269 49.8012 86.0507 49.4024 86.0507C40.8658 86.0507 33.9492 79.1305 33.9492 70.597V58.2368V37.9213C33.9492 36.7032 32.9616 35.7124 31.7402 35.7124C30.5221 35.7124 29.5313 36.7 29.5313 37.9213V70.6518C29.5313 70.6767 29.5312 70.6653 29.5313 70.6914C29.5999 81.6053 38.4699 90.4626 49.4024 90.4626C49.8729 90.4626 50.3371 90.445 50.7982 90.4138C51.9258 90.3163 53.0009 89.4169 53.0009 88.1988C53.0009 86.9806 52.0133 85.9898 50.792 85.9898Z" fill="white"/>
</g>
<defs>
<clipPath id="clip0_5172_83952">
<rect width="60.9375" height="60.9375" fill="white" transform="translate(29.5312 29.5312)"/>
</clipPath>
</defs>
</svg>
