<svg width="512" height="512" viewBox="0 0 512 512" fill="none" xmlns="http://www.w3.org/2000/svg">
<circle cx="256" cy="256" r="212" fill="#6F6CE8"/>
<g clip-path="url(#clip0_5172_83901)">
<path d="M144.137 139.022C146.129 134.213 143.845 128.7 139.036 126.708C134.227 124.716 128.714 127 126.722 131.809C124.73 136.618 127.014 142.131 131.823 144.123C136.632 146.115 142.145 143.831 144.137 139.022Z" fill="white"/>
<path fill-rule="evenodd" clip-rule="evenodd" d="M376.576 126C371.378 126 367.151 130.214 367.151 135.425V248.478V301.006C367.151 337.429 337.627 367.15 301.217 367.15C264.807 367.15 235.283 337.494 235.283 301.084V165.441C235.349 154.048 244.601 144.836 255.994 144.836C267.386 144.836 276.638 154.048 276.718 165.441V248.491C276.718 248.491 276.718 248.491 276.718 248.478V301.214C276.718 310.838 274.644 319.947 270.935 328.189C270.403 329.385 270.124 330.694 270.124 332.063C270.124 337.261 274.338 341.488 279.549 341.488C283.643 341.488 287.113 338.877 288.416 335.235C292.988 324.826 295.567 313.375 295.581 301.292C295.581 301.239 295.581 301.189 295.581 301.136V165.879C295.581 165.879 295.581 165.826 295.581 165.8C295.581 165.72 295.581 165.64 295.581 165.56C295.581 143.706 277.861 126 256.02 126C234.18 126 216.46 143.706 216.46 165.56C216.46 165.613 216.46 165.653 216.46 165.707C216.46 165.72 216.46 165.733 216.46 165.76V301.552C216.46 301.552 216.46 301.629 216.46 301.669C216.713 348.275 254.558 386 301.23 386C347.902 386 386.014 347.838 386.014 301.006V135.425C386.014 130.227 381.8 126 376.589 126H376.576Z" fill="white"/>
<path fill-rule="evenodd" clip-rule="evenodd" d="M216.712 366.89C216.407 366.89 216.101 366.916 215.809 366.942C214.147 367.049 212.485 367.15 210.784 367.15C174.361 367.15 144.85 337.624 144.85 301.214V248.478V161.798C144.85 156.601 140.636 152.374 135.425 152.374C130.227 152.374 126 156.587 126 161.798V301.448C126 301.555 126 301.506 126 301.617C126.293 348.183 164.138 385.974 210.784 385.974C212.791 385.974 214.772 385.899 216.739 385.766C221.55 385.35 226.137 381.513 226.137 376.315C226.137 371.118 221.923 366.89 216.712 366.89Z" fill="white"/>
</g>
<defs>
<clipPath id="clip0_5172_83901">
<rect width="260" height="260" fill="white" transform="translate(126 126)"/>
</clipPath>
</defs>
</svg>
