<svg width="16" height="16" viewBox="0 0 16 16" fill="none" xmlns="http://www.w3.org/2000/svg">
<circle cx="8" cy="8" r="6.625" fill="#6F6CE8"/>
<g clip-path="url(#clip0_5172_83985)">
<path d="M4.50458 4.34443C4.56683 4.19415 4.49546 4.02186 4.34518 3.95961C4.1949 3.89736 4.02261 3.96873 3.96037 4.11901C3.89812 4.26929 3.96948 4.44158 4.11976 4.50382C4.27004 4.56607 4.44233 4.49471 4.50458 4.34443Z" fill="white"/>
<path fill-rule="evenodd" clip-rule="evenodd" d="M11.7683 3.9375C11.6058 3.9375 11.4737 4.06918 11.4737 4.23203V7.76493V9.40644C11.4737 10.5447 10.5511 11.4734 9.4133 11.4734C8.27549 11.4734 7.35287 10.5467 7.35287 9.40887V5.17002C7.35495 4.81401 7.64407 4.52614 8.00008 4.52614C8.35608 4.52614 8.64521 4.81401 8.6477 5.17002V7.76534C8.6477 7.76534 8.6477 7.76534 8.6477 7.76493V9.41294C8.6477 9.71369 8.5829 9.99835 8.467 10.2559C8.45038 10.2933 8.44166 10.3342 8.44166 10.377C8.44166 10.5394 8.57334 10.6715 8.73618 10.6715C8.86413 10.6715 8.97255 10.5899 9.01326 10.4761C9.15616 10.1508 9.23675 9.79298 9.23717 9.41537C9.23717 9.41371 9.23717 9.41216 9.23717 9.4105V5.18373C9.23717 5.18373 9.23717 5.18207 9.23717 5.18124C9.23717 5.17874 9.23717 5.17625 9.23717 5.17376C9.23717 4.49083 8.68343 3.9375 8.00091 3.9375C7.31839 3.9375 6.76465 4.49083 6.76465 5.17376C6.76465 5.17542 6.76465 5.17667 6.76465 5.17833C6.76465 5.17874 6.76465 5.17916 6.76465 5.17999V9.4235C6.76465 9.4235 6.76465 9.42591 6.76465 9.42716C6.77254 10.8836 7.95521 12.0625 9.41372 12.0625C10.8722 12.0625 12.0632 10.8699 12.0632 9.40644V4.23203C12.0632 4.0696 11.9315 3.9375 11.7687 3.9375H11.7683Z" fill="white"/>
<path fill-rule="evenodd" clip-rule="evenodd" d="M6.77226 11.4654C6.76271 11.4654 6.75315 11.4662 6.74402 11.467C6.69209 11.4703 6.64016 11.4735 6.58699 11.4735C5.44877 11.4735 4.52656 10.5508 4.52656 9.41299V7.76497V5.05624C4.52656 4.89382 4.39487 4.76172 4.23203 4.76172C4.06961 4.76172 3.93751 4.8934 3.93751 5.05624V9.42031C3.93751 9.42363 3.93749 9.4221 3.93751 9.42559C3.94665 10.8808 5.12932 12.0617 6.58699 12.0617C6.64972 12.0617 6.71161 12.0594 6.77309 12.0552C6.92344 12.0422 7.06679 11.9223 7.06679 11.7599C7.06679 11.5975 6.9351 11.4654 6.77226 11.4654Z" fill="white"/>
</g>
<defs>
<clipPath id="clip0_5172_83985">
<rect width="8.125" height="8.125" fill="white" transform="translate(3.9375 3.9375)"/>
</clipPath>
</defs>
</svg>
