<svg width="96" height="96" viewBox="0 0 96 96" fill="none" xmlns="http://www.w3.org/2000/svg">
<circle cx="48" cy="48" r="39.75" fill="#6F6CE8"/>
<g clip-path="url(#clip0_5172_83963)">
<path d="M27.0255 26.0666C27.399 25.1649 26.9708 24.1312 26.0691 23.7577C25.1675 23.3842 24.1337 23.8124 23.7602 24.714C23.3868 25.6157 23.8149 26.6495 24.7166 27.0229C25.6183 27.3964 26.652 26.9682 27.0255 26.0666Z" fill="white"/>
<path fill-rule="evenodd" clip-rule="evenodd" d="M70.6076 23.625C69.6331 23.625 68.8405 24.4151 68.8405 25.3922V46.5896V56.4386C68.8405 63.268 63.3047 68.8406 56.4779 68.8406C49.651 68.8406 44.1153 63.2801 44.1153 56.4533V31.0201C44.1277 28.8841 45.8625 27.1568 47.9985 27.1568C50.1345 27.1568 51.8693 28.8841 51.8843 31.0201V46.5921C51.8843 46.5921 51.8843 46.5921 51.8843 46.5896V56.4776C51.8843 58.2822 51.4954 59.9901 50.8 61.5354C50.7003 61.7598 50.648 62.0051 50.648 62.2618C50.648 63.2364 51.4381 64.029 52.4151 64.029C53.1828 64.029 53.8334 63.5395 54.0776 62.8566C54.935 60.905 55.4186 58.7579 55.4211 56.4922C55.4211 56.4823 55.4211 56.473 55.4211 56.463V31.1024C55.4211 31.1024 55.4211 31.0924 55.4211 31.0874C55.4211 31.0725 55.4211 31.0575 55.4211 31.0426C55.4211 26.945 52.0986 23.625 48.0035 23.625C43.9084 23.625 40.5859 26.945 40.5859 31.0426C40.5859 31.0525 40.5859 31.06 40.5859 31.07C40.5859 31.0725 40.5859 31.075 40.5859 31.0799V56.541C40.5859 56.541 40.5859 56.5555 40.5859 56.5629C40.6333 65.3015 47.7293 72.375 56.4803 72.375C65.2314 72.375 72.3773 65.2196 72.3773 56.4386V25.3922C72.3773 24.4176 71.5871 23.625 70.6101 23.625H70.6076Z" fill="white"/>
<path fill-rule="evenodd" clip-rule="evenodd" d="M40.6336 68.7917C40.5763 68.7917 40.5189 68.7965 40.4641 68.8015C40.1525 68.8214 39.841 68.8405 39.5219 68.8405C32.6926 68.8405 27.1594 63.3043 27.1594 56.4775V46.5893V30.337C27.1594 29.3624 26.3692 28.5698 25.3922 28.5698C24.4176 28.5698 23.625 29.3599 23.625 30.337V56.5213C23.625 56.5413 23.6249 56.5321 23.6251 56.553C23.6799 65.2841 30.7759 72.37 39.5219 72.37C39.8983 72.37 40.2697 72.3559 40.6386 72.331C41.5407 72.253 42.4007 71.5335 42.4007 70.5589C42.4007 69.5844 41.6106 68.7917 40.6336 68.7917Z" fill="white"/>
</g>
<defs>
<clipPath id="clip0_5172_83963">
<rect width="48.75" height="48.75" fill="white" transform="translate(23.625 23.625)"/>
</clipPath>
</defs>
</svg>
