<svg width="32" height="32" viewBox="0 0 32 32" fill="none" xmlns="http://www.w3.org/2000/svg">
<circle cx="16" cy="16" r="13.25" fill="#6F6CE8"/>
<g clip-path="url(#clip0_5172_83974)">
<path d="M9.00818 8.68885C9.13268 8.38829 8.98995 8.04372 8.68939 7.91922C8.38883 7.79473 8.04425 7.93745 7.91976 8.23801C7.79526 8.53857 7.93799 8.88315 8.23855 9.00765C8.53911 9.13214 8.88368 8.98941 9.00818 8.68885Z" fill="white"/>
<path fill-rule="evenodd" clip-rule="evenodd" d="M23.5355 7.875C23.2107 7.875 22.9465 8.13837 22.9465 8.46405V15.5299V18.8129C22.9465 21.0893 21.1012 22.9469 18.8256 22.9469C16.55 22.9469 14.7048 21.0934 14.7048 18.8177V10.34C14.7089 9.62803 15.2872 9.05227 15.9992 9.05227C16.7112 9.05227 17.2894 9.62803 17.2944 10.34V15.5307C17.2944 15.5307 17.2944 15.5307 17.2944 15.5299V18.8259C17.2944 19.4274 17.1648 19.9967 16.933 20.5118C16.8998 20.5866 16.8823 20.6684 16.8823 20.7539C16.8823 21.0788 17.1457 21.343 17.4714 21.343C17.7273 21.343 17.9441 21.1798 18.0255 20.9522C18.3113 20.3017 18.4725 19.586 18.4734 18.8307C18.4734 18.8274 18.4734 18.8243 18.4734 18.821V10.3675C18.4734 10.3675 18.4734 10.3641 18.4734 10.3625C18.4734 10.3575 18.4734 10.3525 18.4734 10.3475C18.4734 8.98165 17.3659 7.875 16.0008 7.875C14.6358 7.875 13.5283 8.98165 13.5283 10.3475C13.5283 10.3508 13.5283 10.3533 13.5283 10.3567C13.5283 10.3575 13.5283 10.3583 13.5283 10.36V18.847C13.5283 18.847 13.5283 18.8518 13.5283 18.8543C13.5441 21.7672 15.9094 24.125 18.8265 24.125C21.7435 24.125 24.1254 21.7399 24.1254 18.8129V8.46405C24.1254 8.1392 23.8621 7.875 23.5364 7.875H23.5355Z" fill="white"/>
<path fill-rule="evenodd" clip-rule="evenodd" d="M13.5445 22.9307C13.5254 22.9307 13.5063 22.9323 13.488 22.934C13.3842 22.9406 13.2803 22.947 13.174 22.947C10.8975 22.947 9.05312 21.1016 9.05312 18.826V15.5299V10.1125C9.05312 9.78764 8.78975 9.52344 8.46407 9.52344C8.13922 9.52344 7.87501 9.78681 7.87501 10.1125V18.8406C7.87501 18.8473 7.87498 18.8442 7.87502 18.8512C7.8933 21.7615 10.2586 24.1235 13.174 24.1235C13.2994 24.1235 13.4232 24.1188 13.5462 24.1105C13.8469 24.0845 14.1336 23.8446 14.1336 23.5198C14.1336 23.1949 13.8702 22.9307 13.5445 22.9307Z" fill="white"/>
</g>
<defs>
<clipPath id="clip0_5172_83974">
<rect width="16.25" height="16.25" fill="white" transform="translate(7.875 7.875)"/>
</clipPath>
</defs>
</svg>
