<svg width="35" height="27" viewBox="0 0 35 27" fill="none" xmlns="http://www.w3.org/2000/svg">
<path fill-rule="evenodd" clip-rule="evenodd" d="M28.6551 0L30.0714 1.4121L23.9093 7.55587C24.3338 7.49987 24.7668 7.47096 25.2066 7.47096C30.6155 7.47096 35.0003 11.8427 35.0003 17.2355C35.0003 22.6283 30.6155 27 25.2066 27C19.7977 27 15.4129 22.6283 15.4129 17.2355C15.4129 14.6943 16.3865 12.3799 17.9821 10.6428L17.9813 10.642L17.9996 10.6238C18.1834 10.4247 18.3755 10.2332 18.5752 10.0499L28.6551 0ZM14.6585 1.41215L13.2422 5.23031e-05L3.16379 10.0484C2.96302 10.2326 2.76999 10.4251 2.58523 10.6253L2.56837 10.6421L2.56909 10.6428C0.973564 12.3799 0 14.6943 0 17.2354C0 22.6282 4.38478 26.9999 9.79369 26.9999C12.5696 26.9999 15.0758 25.8484 16.858 23.9984C15.3526 22.1532 14.4502 19.7994 14.4502 17.2355C14.4502 14.6715 15.3526 12.3176 16.858 10.4724C15.0759 8.62239 12.5697 7.47089 9.79369 7.47089C9.35393 7.47089 8.92094 7.49979 8.49652 7.55579L14.6585 1.41215Z" fill="white"/>
</svg>
