<svg width="70" height="70" viewBox="0 0 70 70" fill="none" xmlns="http://www.w3.org/2000/svg">
<circle cx="35" cy="35" r="28.9844" fill="#6F6CE8"/>
<g clip-path="url(#clip0_5172_84018)">
<path d="M19.7061 19.0072C19.9784 18.3497 19.6662 17.5959 19.0087 17.3236C18.3512 17.0513 17.5975 17.3635 17.3251 18.021C17.0528 18.6784 17.365 19.4322 18.0225 19.7045C18.68 19.9769 19.4337 19.6646 19.7061 19.0072Z" fill="white"/>
<path fill-rule="evenodd" clip-rule="evenodd" d="M51.4846 17.2266C50.7739 17.2266 50.196 17.8027 50.196 18.5151V33.9716V41.1532C50.196 46.1329 46.1595 50.1963 41.1816 50.1963C36.2037 50.1963 32.1672 46.1417 32.1672 41.1638V22.6188C32.1763 21.0613 33.4412 19.8018 34.9988 19.8018C36.5563 19.8018 37.8212 21.0613 37.8321 22.6188V33.9734C37.8321 33.9734 37.8321 33.9734 37.8321 33.9716V41.1816C37.8321 42.4974 37.5486 43.7428 37.0415 44.8696C36.9688 45.0332 36.9307 45.212 36.9307 45.3992C36.9307 46.1098 37.5068 46.6878 38.2192 46.6878C38.779 46.6878 39.2533 46.3309 39.4314 45.8329C40.0566 44.4099 40.4092 42.8443 40.411 41.1923C40.411 41.185 40.411 41.1782 40.411 41.1709V22.6788C40.411 22.6788 40.411 22.6715 40.411 22.6679C40.411 22.657 40.411 22.6461 40.411 22.6352C40.411 19.6474 37.9884 17.2266 35.0024 17.2266C32.0164 17.2266 29.5938 19.6474 29.5938 22.6352C29.5938 22.6425 29.5938 22.6479 29.5938 22.6552C29.5938 22.657 29.5938 22.6588 29.5938 22.6625V41.2278C29.5938 41.2278 29.5938 41.2384 29.5938 41.2438C29.6283 47.6157 34.8025 52.7734 41.1834 52.7734C47.5644 52.7734 52.7749 47.5559 52.7749 41.1532V18.5151C52.7749 17.8045 52.1988 17.2266 51.4864 17.2266H51.4846Z" fill="white"/>
<path fill-rule="evenodd" clip-rule="evenodd" d="M29.6287 50.161C29.5869 50.161 29.5451 50.1645 29.5051 50.1681C29.2779 50.1826 29.0507 50.1965 28.8181 50.1965C23.8384 50.1965 19.8037 46.1597 19.8037 41.1818V33.9718V22.1211C19.8037 21.4105 19.2276 20.8325 18.5151 20.8325C17.8045 20.8325 17.2266 21.4086 17.2266 22.1211V41.2138C17.2266 41.2284 17.2265 41.2217 17.2266 41.2369C17.2666 47.6034 22.4408 52.7701 28.8181 52.7701C29.0925 52.7701 29.3633 52.7599 29.6323 52.7417C30.2901 52.6848 30.9172 52.1602 30.9172 51.4496C30.9172 50.7389 30.3411 50.161 29.6287 50.161Z" fill="white"/>
</g>
<defs>
<clipPath id="clip0_5172_84018">
<rect width="35.5469" height="35.5469" fill="white" transform="translate(17.2266 17.2266)"/>
</clipPath>
</defs>
</svg>
