<svg width="310" height="310" viewBox="0 0 310 310" fill="none" xmlns="http://www.w3.org/2000/svg">
<circle cx="155" cy="155" r="128.359" fill="#6F6CE8"/>
<g clip-path="url(#clip0_5172_83996)">
<path d="M87.2708 84.1736C88.4769 81.2619 87.0942 77.9238 84.1825 76.7178C81.2709 75.5117 77.9328 76.8944 76.7267 79.8061C75.5207 82.7177 76.9033 86.0558 79.815 87.2619C82.7267 88.4679 86.0648 87.0853 87.2708 84.1736Z" fill="white"/>
<path fill-rule="evenodd" clip-rule="evenodd" d="M228.005 76.2891C224.858 76.2891 222.298 78.8405 222.298 81.9955V150.445V182.25C222.298 204.303 204.422 222.298 182.377 222.298C160.332 222.298 142.456 204.342 142.456 182.297V100.169C142.497 93.2715 148.098 87.6939 154.996 87.6939C161.894 87.6939 167.495 93.2715 167.544 100.169V150.453C167.544 150.453 167.544 150.453 167.544 150.445V182.376C167.544 188.203 166.288 193.718 164.043 198.708C163.721 199.433 163.552 200.225 163.552 201.054C163.552 204.201 166.103 206.76 169.258 206.76C171.737 206.76 173.838 205.18 174.626 202.974C177.395 196.672 178.957 189.739 178.965 182.423C178.965 182.391 178.965 182.361 178.965 182.328V100.435C178.965 100.435 178.965 100.403 178.965 100.386C178.965 100.338 178.965 100.29 178.965 100.242C178.965 87.0098 168.236 76.2891 155.012 76.2891C141.788 76.2891 131.06 87.0098 131.06 100.242C131.06 100.274 131.06 100.298 131.06 100.33C131.06 100.338 131.06 100.346 131.06 100.362V182.58C131.06 182.58 131.06 182.627 131.06 182.651C131.212 210.869 154.127 233.711 182.385 233.711C210.644 233.711 233.719 210.605 233.719 182.25V81.9955C233.719 78.8485 231.168 76.2891 228.013 76.2891H228.005Z" fill="white"/>
<path fill-rule="evenodd" clip-rule="evenodd" d="M131.213 222.141C131.027 222.141 130.842 222.156 130.665 222.172C129.659 222.236 128.653 222.298 127.623 222.298C105.57 222.298 87.7021 204.421 87.7021 182.376V150.445V97.9638C87.7021 94.8168 85.1507 92.2573 81.9956 92.2573C78.8486 92.2573 76.2892 94.8087 76.2892 97.9638V182.517C76.2892 182.582 76.2888 182.552 76.2893 182.62C76.4663 210.814 99.3805 233.695 127.623 233.695C128.838 233.695 130.038 233.65 131.229 233.569C134.142 233.317 136.919 230.994 136.919 227.847C136.919 224.7 134.368 222.141 131.213 222.141Z" fill="white"/>
</g>
<defs>
<clipPath id="clip0_5172_83996">
<rect width="157.422" height="157.422" fill="white" transform="translate(76.2891 76.2891)"/>
</clipPath>
</defs>
</svg>
