<svg width="270" height="270" viewBox="0 0 270 270" fill="none" xmlns="http://www.w3.org/2000/svg">
<circle cx="135" cy="135" r="111.797" fill="#6F6CE8"/>
<g clip-path="url(#clip0_5172_84007)">
<path d="M76.0094 73.3123C77.0598 70.7763 75.8556 67.8689 73.3196 66.8185C70.7836 65.7681 67.8762 66.9723 66.8258 69.5083C65.7754 72.0443 66.9796 74.9516 69.5156 76.0021C72.0516 77.0525 74.959 75.8482 76.0094 73.3123Z" fill="white"/>
<path fill-rule="evenodd" clip-rule="evenodd" d="M198.584 66.4453C195.843 66.4453 193.614 68.6675 193.614 71.4154V131.033V158.734C193.614 177.941 178.045 193.614 158.844 193.614C139.644 193.614 124.075 177.975 124.075 158.775V87.2441C124.11 81.2365 128.989 76.3785 134.996 76.3785C141.004 76.3785 145.883 81.2365 145.925 87.2441V131.04C145.925 131.04 145.925 131.04 145.925 131.033V158.843C145.925 163.919 144.831 168.722 142.876 173.068C142.595 173.699 142.448 174.389 142.448 175.111C142.448 177.852 144.67 180.082 147.418 180.082C149.577 180.082 151.407 178.705 152.094 176.784C154.505 171.295 155.865 165.257 155.872 158.884C155.872 158.856 155.872 158.83 155.872 158.802V87.4754C155.872 87.4754 155.872 87.4474 155.872 87.4334C155.872 87.3913 155.872 87.3493 155.872 87.3072C155.872 75.7827 146.528 66.4453 135.01 66.4453C123.493 66.4453 114.148 75.7827 114.148 87.3072C114.148 87.3352 114.148 87.3563 114.148 87.3843C114.148 87.3913 114.148 87.3983 114.148 87.4123V159.022C114.148 159.022 114.148 159.062 114.148 159.083C114.282 183.66 134.239 203.555 158.851 203.555C183.464 203.555 203.562 183.43 203.562 158.734V71.4154C203.562 68.6745 201.339 66.4453 198.591 66.4453H198.584Z" fill="white"/>
<path fill-rule="evenodd" clip-rule="evenodd" d="M114.282 193.477C114.121 193.477 113.959 193.491 113.805 193.505C112.929 193.561 112.053 193.614 111.155 193.614C91.948 193.614 76.3857 178.044 76.3857 158.843V131.033V85.3231C76.3857 82.5822 74.1635 80.353 71.4156 80.353C68.6746 80.353 66.4454 82.5752 66.4454 85.3231V158.967C66.4454 159.023 66.4451 158.997 66.4455 159.056C66.5997 183.612 86.5572 203.541 111.155 203.541C112.214 203.541 113.258 203.501 114.296 203.431C116.833 203.212 119.252 201.188 119.252 198.447C119.252 195.706 117.03 193.477 114.282 193.477Z" fill="white"/>
</g>
<defs>
<clipPath id="clip0_5172_84007">
<rect width="137.109" height="137.109" fill="white" transform="translate(66.4453 66.4453)"/>
</clipPath>
</defs>
</svg>
