<svg width="310" height="150" viewBox="0 0 310 150" fill="none" xmlns="http://www.w3.org/2000/svg">
<circle cx="155" cy="75" r="62.1094" fill="#6F6CE8"/>
<g clip-path="url(#clip0_5172_84044)">
<path d="M122.228 40.7293C122.812 39.3204 122.143 37.7052 120.734 37.1217C119.325 36.5381 117.71 37.2071 117.126 38.616C116.542 40.0249 117.211 41.6401 118.62 42.2236C120.029 42.8072 121.644 42.1382 122.228 40.7293Z" fill="white"/>
<path fill-rule="evenodd" clip-rule="evenodd" d="M190.325 36.9141C188.802 36.9141 187.564 38.1486 187.564 39.6752V72.7962V88.1853C187.564 98.8562 178.914 107.563 168.247 107.563C157.58 107.563 148.931 98.8751 148.931 88.2082V48.4689C148.95 45.1314 151.661 42.4325 154.998 42.4325C158.336 42.4325 161.046 45.1314 161.07 48.4689V72.8001C161.07 72.8001 161.07 72.8001 161.07 72.7962V88.2463C161.07 91.0659 160.462 93.7346 159.376 96.1491C159.22 96.4996 159.138 96.8829 159.138 97.2841C159.138 98.8068 160.373 100.045 161.899 100.045C163.099 100.045 164.115 99.2805 164.497 98.2134C165.836 95.164 166.592 91.8092 166.596 88.2691C166.596 88.2536 166.596 88.239 166.596 88.2234V48.5975C166.596 48.5975 166.596 48.5819 166.596 48.5741C166.596 48.5507 166.596 48.5274 166.596 48.504C166.596 42.1015 161.405 36.9141 155.006 36.9141C148.607 36.9141 143.416 42.1015 143.416 48.504C143.416 48.5196 143.416 48.5313 143.416 48.5468C143.416 48.5507 143.416 48.5546 143.416 48.5624V88.3453C143.416 88.3453 143.416 88.3679 143.416 88.3796C143.49 102.034 154.578 113.086 168.251 113.086C181.925 113.086 193.09 101.906 193.09 88.1853V39.6752C193.09 38.1525 191.855 36.9141 190.329 36.9141H190.325Z" fill="white"/>
<path fill-rule="evenodd" clip-rule="evenodd" d="M143.49 107.487C143.4 107.487 143.311 107.495 143.225 107.503C142.738 107.534 142.252 107.564 141.753 107.564C131.082 107.564 122.436 98.9133 122.436 88.2463V72.7961V47.4018C122.436 45.8791 121.202 44.6406 119.675 44.6406C118.153 44.6406 116.914 45.8752 116.914 47.4018V88.3149C116.914 88.346 116.914 88.3317 116.914 88.3644C117 102.007 128.087 113.078 141.753 113.078C142.341 113.078 142.921 113.056 143.498 113.017C144.907 112.896 146.251 111.771 146.251 110.249C146.251 108.726 145.017 107.487 143.49 107.487Z" fill="white"/>
</g>
<defs>
<clipPath id="clip0_5172_84044">
<rect width="76.1719" height="76.1719" fill="white" transform="translate(116.914 36.9141)"/>
</clipPath>
</defs>
</svg>
